<svg width="500" height="500" viewBox="0 0 500 500" fill="none" xmlns="http://www.w3.org/2000/svg">
<path d="M500 0.00976562H0V500.01H500V0.00976562Z" fill="#797EF3"/>
<path d="M309.91 500.01H126.29C130.74 483.7 134.35 469.25 135.02 466.22C140.87 439.41 144.57 412.21 146.05 384.92C146.82 370.77 147 356.59 146.58 342.43C146.29 332.62 141.82 316.94 146.27 307.59C154.79 289.66 194.4 310.71 211.99 313C242.2 316.94 272.92 315.09 303.23 313.25C298.62 375.5 300.88 438.16 309.91 500.01Z" fill="#797EF3"/>
<path d="M437.65 279.9C440.48 292.71 445.92 305.13 446.02 318.26C443.3 318.92 440.77 316.75 438.9 314.67C419.13 292.64 412.85 261.89 408.7 232.58C406.14 214.48 399.57 184.42 408.15 167.28C412.52 158.55 428.34 148.4 437.38 156.8C448.07 166.75 439.45 201.83 438.03 214.6C435.62 236.26 432.88 258.34 437.65 279.9Z" fill="#444DF2"/>
<path d="M281.72 33.4498C273.29 28.6598 264.54 24.4298 255.47 20.8698C216.74 5.68977 171.25 4.14977 134.57 23.7998C102.3 41.0898 79.6999 73.0798 67.5299 107.61C55.3599 142.14 52.6798 179.27 52.4898 215.87C52.2498 260.37 55.5399 304.84 61.0199 348.99C64.5199 377.23 73.2598 449.83 111.05 451.33C157.44 453.16 204 450.86 249.99 444.5C289.16 439.09 353.7 468.91 385 442.01C403.69 425.94 396.87 368.19 404.89 344.88C414.64 316.56 421.91 287.11 422.78 257.17C423.93 217.7 413.66 177.95 393.53 143.98C382.82 125.91 369.45 109.53 355.19 94.1098C333.56 70.7298 309.29 49.1098 281.72 33.4498Z" fill="#444DF2"/>
<path d="M309.91 500.01H126.29C130.74 483.7 134.35 469.25 135.02 466.22C140.87 439.41 144.57 412.21 146.05 384.92C146.82 370.77 147 356.59 146.58 342.43C146.29 332.62 141.82 316.94 146.27 307.59C154.79 289.66 194.4 310.71 211.99 313C242.2 316.94 272.92 315.09 303.23 313.25C298.62 375.5 300.88 438.16 309.91 500.01Z" fill="#E8AE8E"/>
<path d="M148.73 374.2C179.29 407.02 221.37 427.83 266.54 439.49C309.54 450.59 360.17 451.9 393.09 422.09C420.75 397.05 428.29 356.97 431.13 319.76C434.53 275.18 433.45 230.38 431.5 185.72C430.65 166.3 429.62 146.75 424.96 127.89C417.91 99.3699 400.3 61.4699 372.42 48.8099C338.74 33.5199 298.39 29.4899 261.95 33.6099C235.58 36.5899 208.75 39.7499 184.51 50.5199C162.73 60.1999 134.5 72.5499 122.87 94.1599C108.12 121.56 99.7299 153.24 96.1599 184.02C90.7399 230.7 97.0699 278.88 115.22 322.28C123.53 342.21 134.96 359.42 148.73 374.2Z" fill="#F4C19F"/>
<path d="M123.08 191.96C116.69 184.41 107.76 179.38 95.5701 179.1C77.6601 178.69 60.5102 191.03 54.0302 207.74C43.6002 234.65 61.0401 267.49 84.5501 281.37C105.43 293.69 129.94 286.51 136.03 262.14C138.73 251.33 137.67 239.99 136.58 228.9C135.28 215.54 131.28 201.66 123.08 191.96Z" fill="#F4C19F"/>
<path d="M83.8299 258.88C81.0099 258.88 78.6099 256.72 78.3599 253.86C77.5499 244.54 81.1999 238.94 84.3999 235.88C90.2299 230.31 98.7399 228.86 104.91 228.63C103.98 226.52 102.62 224.76 100.81 223.32C92.5899 216.78 77.8099 218.8 77.6599 218.82C74.6599 219.28 71.8499 217.21 71.3999 214.21C70.9399 211.21 73.0099 208.4 76.0099 207.95C76.7999 207.83 95.5799 205.12 107.65 214.71C113.43 219.31 116.69 225.79 117.32 233.96C117.45 235.61 116.82 237.24 115.62 238.38C114.41 239.52 112.76 240.05 111.11 239.84C107.45 239.37 96.8599 239.17 91.9799 243.85C89.8399 245.91 88.9699 248.87 89.3199 252.91C89.5799 255.94 87.3399 258.6 84.3199 258.87C84.1499 258.87 83.9899 258.88 83.8299 258.88Z" fill="#EAAA7F"/>
<path d="M213.44 166.67C213.41 166.71 213.39 166.75 213.36 166.79C210.06 171.62 198.39 171.14 193.35 171.78C189.16 172.31 129.74 177.57 129.46 174.78C131.73 197.93 134 221.09 136.27 244.24C139.15 273.66 141.6 305.26 126.92 330.92C132.29 291.79 125.25 251.05 107.06 215.99C101.27 204.82 94.2801 193.96 91.8201 181.62C89.7101 171 91.1201 160 93.3601 149.41C98.9601 123.03 109.77 97.7699 124.99 75.5099C152.94 34.6499 203.66 13.7899 251.81 10.3699C273.21 8.84989 294.73 9.06989 316.09 11.0299C346.69 13.8399 381.54 23.7999 401.74 48.4899C413.63 63.0299 421.24 80.5099 428.7 97.7499C430.4 101.68 454.06 174.07 448.07 172.76C435.89 170.11 423.72 167.46 411.54 164.81C398.47 161.97 385.39 159.12 372.13 157.37C345.04 153.8 317.65 154.9 290.51 157.28C283.4 157.9 239.07 168.03 235.53 157.82C229.67 140.92 223.8 124.02 217.94 107.12C216.98 104.36 212.95 101.42 212.02 104.19C212.04 115.8 219.1 157.92 213.44 166.67Z" fill="#444DF2"/>
<path d="M316.33 313.56C313.3 313.56 310.84 311.11 310.83 308.08C310.82 305.04 313.27 302.57 316.3 302.56C316.66 302.56 351.8 302.12 353.8 282.64C354.59 274.9 352.27 272.21 348.06 267.34C341.14 259.34 331.67 248.38 332.3 212.9C332.35 209.9 334.8 207.5 337.8 207.5C337.83 207.5 337.87 207.5 337.9 207.5C340.94 207.55 343.36 210.06 343.3 213.1C342.74 244.38 350.3 253.12 356.38 260.15C361.12 265.63 366.02 271.31 364.74 283.77C361.73 313.05 318.2 313.56 316.35 313.57C316.35 313.56 316.34 313.56 316.33 313.56Z" fill="#1B1464"/>
<path d="M272.161 260.436C280.179 259.909 285.962 248.55 285.077 235.064C284.192 221.578 276.974 211.072 268.955 211.598C260.936 212.125 255.153 223.484 256.038 236.97C256.924 250.456 264.142 260.962 272.161 260.436Z" fill="#1B1464"/>
<path d="M383.267 257.315C391.285 256.789 397.068 245.429 396.183 231.943C395.298 218.457 388.08 207.951 380.061 208.478C372.042 209.004 366.259 220.363 367.144 233.849C368.029 247.335 375.248 257.841 383.267 257.315Z" fill="#1B1464"/>
<path d="M410.64 206.02C409.51 206.02 408.38 205.68 407.4 204.96C383.39 187.41 361.8 192.87 360.89 193.11C357.96 193.89 354.95 192.16 354.16 189.23C353.37 186.31 355.08 183.3 357.99 182.49C359.1 182.19 385.41 175.26 413.89 196.07C416.34 197.86 416.88 201.3 415.09 203.76C414.01 205.24 412.34 206.02 410.64 206.02Z" fill="#1B1464"/>
<path d="M215.42 211.99C214.56 211.99 213.68 211.79 212.86 211.35C210.17 209.93 209.14 206.61 210.56 203.92C211.11 202.88 224.58 178.59 281.65 178.59C282.15 178.59 282.65 178.59 283.16 178.6C286.2 178.62 288.64 181.1 288.62 184.14C288.6 187.16 286.14 189.6 283.12 189.6C283.11 189.6 283.09 189.6 283.08 189.6C232.2 189.23 220.39 208.85 220.29 209.05C219.31 210.92 217.4 211.99 215.42 211.99Z" fill="#1B1464"/>
<path d="M307.18 360.22C263.65 360.22 234.69 324.97 233.39 323.37C231.48 321.01 231.85 317.54 234.22 315.64C236.58 313.73 240.04 314.1 241.95 316.47C242.4 317.02 272.95 353.91 315.67 348.71C318.69 348.35 321.43 350.49 321.79 353.51C322.16 356.52 320.01 359.27 316.99 359.63C313.65 360.03 310.37 360.22 307.18 360.22Z" fill="#1B1464"/>
<path d="M300.81 451.01C236.7 451.01 171.24 401.98 168.49 399.89C166.07 398.06 165.59 394.61 167.43 392.19C169.26 389.77 172.71 389.29 175.14 391.12C175.79 391.61 240.44 440 300.82 440C303.86 440 306.32 442.46 306.32 445.5C306.32 448.54 303.85 451.01 300.81 451.01Z" fill="#1B1464"/>
</svg>
