<svg width="500" height="500" viewBox="0 0 500 500" fill="none" xmlns="http://www.w3.org/2000/svg">
<path d="M500 -0.00170898H0V499.998H500V-0.00170898Z" fill="#797EF3"/>
<path d="M385 228.398C381.9 220.598 381.6 211.898 381.3 203.498C381 193.298 382.6 182.498 387.8 174.398C391.8 168.098 398.1 163.398 407.2 161.998C413.2 161.098 422.2 161.498 426.3 166.398C430.7 171.598 432.8 181.098 433.1 187.698C433.5 196.498 431 204.998 428.6 213.298C425.9 222.398 423.4 241.598 412.1 243.898C400.2 246.498 389.2 239.198 385 228.398Z" fill="#D9A48E"/>
<path d="M344.3 499.998H121.8C122.6 496.598 123.4 493.198 124.2 489.798C140.1 421.598 146.3 355.498 147.2 283.998C203.5 304.798 262.7 295.898 320.8 294.998C342.4 294.698 335.2 319.198 335.4 342.098C335.7 370.698 336.8 399.198 338.5 427.598C340 451.798 341.9 475.998 344.3 499.998Z" fill="#D9A48E"/>
<path d="M404.3 137.198C410 164.698 408.4 193.698 410.3 222.798C411.1 235.498 412.3 248.098 414 260.698C419.3 299.498 429.4 341.098 412.3 376.298C399.7 402.198 373.7 419.798 345.8 427.198C325.6 432.598 304.8 432.798 284.1 430.998C252 428.198 218.3 420.098 189.3 404.198C171.5 394.498 155.5 381.798 142.7 365.798C125.9 344.598 121.3 325.998 118.3 300.298C108.2 213.998 56.5001 115.698 151.8 56.1983C221.7 12.4983 337.9 21.6983 386.2 93.2983C395.8 107.298 401.2 121.998 404.3 137.198Z" fill="#E5B69E"/>
<path d="M265.254 254.495C273.108 252.929 277.329 240.902 274.682 227.632C272.036 214.362 263.523 204.875 255.67 206.441C247.816 208.007 243.595 220.034 246.242 233.304C248.889 246.574 257.401 256.062 265.254 254.495Z" fill="#1B1464"/>
<path d="M356.846 229.084C364.699 227.518 368.92 215.491 366.274 202.221C363.627 188.951 355.115 179.464 347.261 181.03C339.408 182.596 335.187 194.624 337.833 207.893C340.48 221.163 348.992 230.651 356.846 229.084Z" fill="#1B1464"/>
<path d="M229.58 188.938C233.92 185.548 241.06 181.978 248.5 180.508C255.98 179.038 262.75 179.858 267.52 183.758L274.48 175.238C266.15 168.438 255.52 167.918 246.38 169.718C237.2 171.528 228.48 175.848 222.82 180.268L229.58 188.938ZM267.52 183.758C269.87 185.678 273.34 185.328 275.26 182.978C277.18 180.628 276.83 177.158 274.48 175.238L267.52 183.758ZM222.82 180.258C220.42 182.128 220 185.578 221.87 187.978C223.74 190.378 227.19 190.798 229.59 188.928L222.82 180.258Z" fill="#1B1464"/>
<path d="M320.8 149.598C324.06 154.028 324.06 154.028 324.06 154.028C324.06 154.028 324.07 154.018 324.08 154.018C324.1 153.998 324.14 153.968 324.21 153.928C324.33 153.838 324.53 153.708 324.8 153.528C325.34 153.178 326.15 152.668 327.18 152.098C329.26 150.948 332.13 149.588 335.39 148.668C341.91 146.828 349.2 146.868 355.42 152.778L363 144.808C352.91 135.218 341.01 135.658 332.4 138.088C328.1 139.308 324.43 141.048 321.86 142.478C320.56 143.198 319.52 143.838 318.79 144.318C318.42 144.558 318.13 144.758 317.92 144.898C317.82 144.968 317.73 145.028 317.67 145.078C317.64 145.098 317.61 145.118 317.59 145.138C317.58 145.148 317.57 145.148 317.56 145.158L317.55 145.168C317.54 145.168 317.54 145.168 320.8 149.598ZM355.41 152.788C357.61 154.878 361.09 154.798 363.19 152.588C365.28 150.388 365.2 146.908 362.99 144.808L355.41 152.788ZM317.54 145.168C315.1 146.968 314.58 150.418 316.38 152.858C318.18 155.298 321.63 155.818 324.07 154.018L317.54 145.168Z" fill="#1B1464"/>
<path d="M269.86 339.738C288.89 353.608 314.08 358.428 336.88 352.518L334.12 341.868C314.52 346.958 292.71 342.778 276.34 330.848L269.86 339.738ZM336.88 352.518C339.82 351.758 341.59 348.758 340.82 345.818C340.06 342.878 337.06 341.108 334.12 341.878L336.88 352.518ZM276.34 330.858C273.89 329.068 270.44 329.608 268.66 332.068C266.88 334.528 267.41 337.968 269.87 339.748L276.34 330.858Z" fill="#1B1464"/>
<path d="M325.19 217.488C324.17 212.548 324.48 207.408 324.89 201.378L313.92 200.638C313.53 206.408 313.04 213.068 314.42 219.728L325.19 217.488ZM341.16 245.878C333.36 237.788 327.42 228.388 325.19 217.498L314.41 219.708C317.18 233.208 324.45 244.408 333.24 253.528L341.16 245.878ZM345.67 281.158C350.71 274.938 352.13 268.298 350.66 261.838C349.27 255.728 345.42 250.358 341.18 245.908L333.21 253.488C336.87 257.328 339.18 260.968 339.93 264.278C340.61 267.238 340.18 270.458 337.12 274.228L345.67 281.158ZM301.49 287.478C307.84 290.118 315.98 291.768 323.86 291.278C331.72 290.788 340.07 288.078 345.67 281.168L337.13 274.238C334.14 277.928 329.23 279.918 323.17 280.298C317.13 280.678 310.67 279.378 305.71 277.318L301.49 287.478ZM324.89 201.368C325.1 198.338 322.81 195.718 319.77 195.508C316.74 195.298 314.12 197.588 313.91 200.628L324.89 201.368ZM319.8 218.598L325.19 217.498V217.488L319.8 218.598ZM337.2 249.698L341.18 245.908C341.17 245.898 341.16 245.888 341.15 245.878L337.2 249.698ZM305.71 277.318C302.91 276.148 299.69 277.478 298.52 280.288C297.35 283.088 298.68 286.308 301.49 287.478L305.71 277.318Z" fill="#1B1464"/>
<path d="M344.9 348.998C344.9 349.198 344.8 349.398 344.8 349.598C344.2 353.498 342.2 356.998 339.7 359.998C331.2 370.198 317.1 374.898 304 373.298C290.9 371.698 278.8 364.298 270.1 354.298C265.7 349.198 262.1 343.298 261.1 336.698C260.7 333.998 260.9 330.898 263 329.198C263.8 328.498 264.8 328.098 265.8 327.798C277.8 323.898 290.6 328.898 302.8 331.998C310 333.798 317.4 334.998 324.8 335.798C334.6 336.898 346.7 334.798 344.9 348.998ZM410.4 222.798C409.1 226.198 408.3 229.698 407.6 233.198C404.7 248.598 406.1 264.698 401.3 279.798C397 293.298 385.7 305.498 375 314.398C372.6 316.398 370 318.398 367 319.498C355.9 323.598 345 317.398 334.1 317.198C326.7 316.998 319.3 317.998 311.9 317.598C296 316.698 280.7 309.098 264.7 309.798C249.3 310.498 237.1 320.698 222.7 325.198C213.2 328.198 202.6 326.498 193.8 321.798C186.2 317.798 178.1 311.398 174 303.698C169.3 294.798 168.3 283.298 164.8 273.798C162.7 267.998 151.3 243.798 148.6 261.498C146.9 272.398 146.4 283.098 142.4 293.598C140.1 299.698 137 305.498 135 311.698C121.3 354.698 154.9 385.498 189.2 404.298C218.2 420.098 251.9 428.298 284 431.098C304.6 432.898 325.5 432.598 345.7 427.298C373.5 419.898 399.6 402.198 412.2 376.398C429.3 341.198 419.2 299.598 413.9 260.798C412.4 248.098 411.2 235.498 410.4 222.798Z" fill="#1B1464"/>
<path d="M134.6 212.998C127.3 206.298 117.8 202.498 105.6 203.898C87.8003 205.798 72.4002 220.298 68.2002 237.698C61.4002 265.698 83.0003 295.998 108.1 306.698C130.4 316.198 153.8 305.898 156.6 280.898C157.9 269.798 155.3 258.698 152.8 247.898C149.8 234.798 144 221.498 134.6 212.998Z" fill="#E5B69E"/>
<path d="M128.9 256.498C128.9 250.998 128.9 250.998 128.9 250.998C128.9 250.998 128.9 250.998 128.89 250.998H128.88C128.87 250.998 128.86 250.998 128.85 250.998C128.82 250.998 128.79 250.998 128.75 250.998C128.67 250.998 128.56 250.998 128.43 251.008C128.16 251.018 127.78 251.028 127.32 251.048C126.39 251.098 125.09 251.198 123.56 251.388C120.53 251.778 116.39 252.558 112.32 254.208C108.28 255.838 103.87 258.498 100.89 262.908C97.7898 267.498 96.6998 273.298 98.2298 280.188L108.97 277.798C108 273.438 108.83 270.808 110 269.058C111.3 267.138 113.52 265.578 116.44 264.398C119.32 263.228 122.44 262.608 124.94 262.298C126.17 262.138 127.2 262.068 127.9 262.028C128.25 262.008 128.52 261.998 128.7 261.998C128.79 261.998 128.85 261.998 128.88 261.998C128.9 261.998 128.91 261.998 128.91 261.998C128.9 261.998 128.9 261.998 128.9 256.498ZM91.4998 240.298C93.0298 245.578 93.0298 245.578 93.0298 245.578C93.0298 245.578 93.0497 245.578 93.0697 245.568C93.1097 245.558 93.1698 245.538 93.2698 245.518C93.4598 245.468 93.7498 245.398 94.1398 245.308C94.9198 245.128 96.0597 244.898 97.4497 244.678C100.27 244.248 103.95 243.938 107.69 244.308C111.45 244.678 114.91 245.708 117.62 247.668C120.2 249.528 122.47 252.508 123.54 257.618L134.31 255.378C132.72 247.738 129 242.318 124.07 238.748C119.27 235.278 113.72 233.848 108.78 233.358C103.83 232.868 99.1598 233.288 95.7898 233.798C94.0898 234.058 92.6798 234.348 91.6798 234.578C91.1798 234.698 90.7798 234.798 90.4898 234.868C90.3498 234.908 90.2298 234.938 90.1498 234.958C90.1098 234.968 90.0698 234.978 90.0498 234.988C90.0398 234.988 90.0298 234.998 90.0198 234.998H90.0098C90.0098 234.998 90.0098 234.998 89.9998 234.998C89.9698 235.018 89.9698 235.018 91.4998 240.298ZM98.2298 280.188C98.8898 283.158 101.83 285.018 104.79 284.368C107.75 283.718 109.62 280.768 108.97 277.808L98.2298 280.188ZM128.9 256.498V261.998C130.56 261.998 132.12 261.248 133.17 259.968C134.21 258.688 134.63 256.998 134.29 255.378L128.9 256.498ZM89.9697 235.018C87.0497 235.868 85.3697 238.918 86.2197 241.828C87.0697 244.748 90.1198 246.428 93.0298 245.578L89.9697 235.018Z" fill="#DB9F7F"/>
<path d="M122 115.898C115.6 115.898 115.6 125.898 122 125.898C128.5 125.898 128.5 115.898 122 115.898Z" fill="#DB9F7F"/>
<path d="M130.5 98.2983C124.1 98.2983 124.1 108.298 130.5 108.298C136.9 108.298 136.9 98.2983 130.5 98.2983Z" fill="#DB9F7F"/>
<path d="M140.9 115.198C134.5 115.198 134.5 125.198 140.9 125.198C147.3 125.198 147.3 115.198 140.9 115.198Z" fill="#DB9F7F"/>
</svg>
