<svg width="500" height="500" viewBox="0 0 500 500" fill="none" xmlns="http://www.w3.org/2000/svg">
<path d="M500 -0.00170898H0V499.998H500V-0.00170898Z" fill="#444DF2"/>
<path d="M399.8 297.098C404.6 308.098 412.3 317.598 418.2 327.998C424.1 338.398 428.1 350.898 424.8 362.398C427.7 363.098 430 359.798 431.1 356.998C437.5 339.898 430.6 311.998 424.4 295.398C416.5 274.098 399.5 255.698 398.6 232.998C391 253.198 391 277.198 399.8 297.098Z" fill="#797EF3"/>
<path d="M387.2 73.6982C400.8 90.1982 411.4 110.398 411 131.798C410.8 139.298 409.3 146.598 407.8 153.898C404.7 168.898 401.6 183.798 398.5 198.798C397.7 202.498 397 206.198 395 209.398C390.4 216.898 379.9 219.298 371.7 216.298C363.5 213.298 357.4 205.798 354.2 197.698C349.2 185.298 349.8 171.098 353.5 158.298C357.2 145.398 363.8 133.598 370.6 122.098C375.7 113.498 381.1 104.798 389.1 98.7982L387.2 73.6982Z" fill="#797EF3"/>
<path d="M308.9 499.998H201.7C201.6 499.998 201.6 499.998 201.5 499.998C183.4 499.098 165.1 499.698 146.9 499.898C143.3 499.898 139.7 499.998 136 499.998C136.7 497.598 137.4 495.298 138 492.998C149.4 453.498 154.9 415.198 156.9 374.698C157.3 366.898 157.5 358.998 157.7 351.098C160.4 351.898 163.1 352.598 165.9 353.298C166.5 353.498 167 353.598 167.6 353.698C172.2 354.798 176.8 355.798 181.5 356.498C222.3 363.498 264.4 359.098 305.9 358.598C322.3 358.398 314.8 390.498 308.3 415.598C308.3 415.698 308.2 415.798 308.2 415.898C305.3 426.798 302.7 436.398 302.3 441.398C300.8 461.098 302.3 481.498 308.9 499.998Z" fill="#E8C5AA"/>
<path d="M345.5 87.8983C336 81.0983 324.6 76.7983 312.5 72.5983C258.7 53.8983 192.3 59.4983 150.4 101.298C134.4 117.198 122.9 137.398 116.8 159.198C110.2 182.698 113.6 203.498 115.1 227.198C117.4 264.798 123.3 304.598 147.7 333.298C189 381.898 254 412.398 317.3 416.498C337 417.798 358.9 415.198 375.9 404.598C386.1 398.198 394.5 388.398 398.5 376.898C401.2 369.098 400 360.198 401.4 351.998C404.1 335.798 409.7 320.298 411.7 303.998C413.8 286.798 413.4 269.398 411.9 252.198C411 241.598 410.7 230.698 407.9 220.398C405.1 209.998 399.8 200.698 396.6 190.298C390.2 169.398 384.2 146.498 374.3 126.998C367.3 113.298 358.1 96.7983 345.5 87.8983Z" fill="#F4D3B8"/>
<path d="M323.834 234.833C331.634 233.014 335.465 220.857 332.392 207.679C329.319 194.501 320.506 185.293 312.707 187.112C304.907 188.93 301.076 201.087 304.149 214.265C307.222 227.443 316.035 236.651 323.834 234.833Z" fill="#1B1464"/>
<path d="M382.11 209.378C388.24 207.948 391.27 198.458 388.88 188.188C386.49 177.918 379.57 170.748 373.44 172.178C367.31 173.608 364.28 183.098 366.68 193.368C369.07 203.638 375.98 210.808 382.11 209.378Z" fill="#1B1464"/>
<path d="M395.88 249.028C397.39 250.838 397.7 254.118 395.53 259.668C393.49 264.888 389.98 270.168 387.36 273.988L396.44 280.198C399.02 276.428 403.22 270.208 405.77 263.668C408.2 257.468 410 248.748 404.32 241.958L395.88 249.028ZM374.8 240.548C378.93 242.558 384.29 243.708 387.72 244.738C391.68 245.918 394.28 247.158 395.94 249.088L404.28 241.918C400.44 237.448 395.19 235.488 390.87 234.198C386.02 232.748 382.68 232.148 379.61 230.658L374.8 240.548ZM351.76 210.198C353.76 223.858 363.01 234.768 374.78 240.538L379.62 230.658C370.59 226.228 364.04 218.138 362.64 208.598L351.76 210.198ZM387.36 273.988C385.64 276.498 386.29 279.918 388.79 281.628C391.29 283.338 394.72 282.698 396.43 280.198L387.36 273.988ZM400.1 245.498L404.32 241.968C404.3 241.948 404.29 241.928 404.27 241.918L400.1 245.498ZM377.2 235.598L374.78 240.538C374.79 240.538 374.79 240.548 374.8 240.548L377.2 235.598ZM362.64 208.598C362.2 205.588 359.41 203.518 356.4 203.958C353.39 204.398 351.32 207.188 351.76 210.198L362.64 208.598Z" fill="#1B1464"/>
<path d="M330.4 324.488C346.66 323.308 366.36 321.748 380.65 309.708L373.56 301.298C362.45 310.658 346.55 312.298 329.61 313.518L330.4 324.488ZM304.01 323.768C313.03 325.768 322.24 325.078 330.4 324.488L329.61 313.518C321.17 314.128 313.58 314.628 306.4 313.038L304.01 323.768ZM376.3 330.218C353.78 339.518 325.46 332.908 309.31 314.748L301.09 322.058C320.34 343.698 353.62 351.488 380.5 340.388L376.3 330.218ZM380.64 309.708C382.96 307.748 383.26 304.278 381.3 301.958C379.34 299.638 375.87 299.338 373.55 301.298L380.64 309.708ZM305.2 318.398L306.39 313.028C304.06 312.508 301.66 313.558 300.45 315.608C299.24 317.668 299.5 320.268 301.08 322.048L305.2 318.398ZM380.5 340.378C383.31 339.218 384.64 335.998 383.48 333.198C382.32 330.388 379.1 329.058 376.3 330.218L380.5 340.378Z" fill="#1B1464"/>
<path d="M287.21 166.998C278.08 171.178 269.21 178.428 265.02 188.488L275.17 192.718C277.98 185.968 284.31 180.418 291.78 177.008L287.21 166.998ZM322.98 162.608C310.27 160.068 299.2 161.548 287.23 166.998L291.78 177.008C301.8 172.448 310.53 171.338 320.83 173.398L322.98 162.608ZM265.02 188.478C263.85 191.278 265.18 194.498 267.98 195.668C270.78 196.838 274 195.508 275.17 192.708L265.02 188.478ZM289.5 171.998L287.22 166.988C287.22 166.988 287.21 166.988 287.21 166.998L289.5 171.998ZM320.82 173.388C323.8 173.988 326.7 172.048 327.29 169.078C327.89 166.098 325.95 163.198 322.98 162.608L320.82 173.388Z" fill="#1B1464"/>
<path d="M360.9 152.598C362.5 157.858 362.5 157.858 362.49 157.858C362.49 157.858 362.49 157.858 362.5 157.858C362.51 157.858 362.54 157.848 362.57 157.838C362.64 157.818 362.77 157.778 362.94 157.738C363.28 157.648 363.79 157.528 364.45 157.388C365.77 157.108 367.63 156.798 369.73 156.658C374.11 156.358 378.7 156.868 382.03 159.018L388 149.778C381.72 145.728 374.26 145.328 369 145.688C366.28 145.868 363.9 146.268 362.21 146.628C361.36 146.808 360.67 146.978 360.17 147.098C359.92 147.158 359.73 147.218 359.58 147.258C359.51 147.278 359.45 147.298 359.41 147.308C359.39 147.318 359.37 147.318 359.35 147.328C359.34 147.328 359.34 147.328 359.33 147.338H359.32C359.3 147.338 359.3 147.338 360.9 152.598ZM382.02 159.018C384.57 160.668 387.98 159.938 389.62 157.378C391.26 154.818 390.54 151.418 387.98 149.778L382.02 159.018ZM359.3 147.338C356.39 148.218 354.75 151.288 355.63 154.198C356.51 157.108 359.58 158.748 362.49 157.868L359.3 147.338Z" fill="#1B1464"/>
<path d="M307.8 114.198C309.6 116.498 311.5 118.798 313.4 120.998C326.8 136.498 344.8 135.898 364 137.898C378.3 139.298 393.6 143.098 402.4 154.498C409.6 163.898 410.8 176.798 409 188.498C408.3 193.398 407.1 198.198 406.6 203.098C405 218.798 410.8 234.798 421 246.698C431.2 258.698 445.7 266.698 460.9 270.398C452.9 263.198 444.8 255.898 438.8 246.798C432 236.398 428.3 224.098 428.4 211.698C428.5 198.998 432.4 186.598 435 174.198C440.8 146.498 439 117.498 431.2 90.3984C424.7 67.9984 413.5 37.1984 392.6 24.2984C375.4 13.5984 356.7 8.19836 336.2 9.79836C318.8 11.1984 301.3 19.2984 291.4 33.7984C274.4 58.6984 291.4 93.0984 307.8 114.198Z" fill="#797EF3"/>
<path d="M302.5 69.3984C301 70.4984 299.5 71.4984 298 72.4984C296 73.7984 294 75.0984 292 76.2984C290.7 77.0984 289.4 77.8984 288.1 78.6984C268 91.4984 247.8 104.298 229.5 119.598C217.9 129.298 207.1 139.798 196.5 150.498C191.7 155.298 185.5 159.698 181.2 164.798C177 169.798 177.1 175.098 176.4 181.598C176.3 182.598 176.2 183.698 176 184.698C172.2 217.398 168.4 250.098 164.5 282.698C161.7 306.298 164.1 329.098 165.7 351.898C165.7 352.298 165.8 352.698 165.8 353.098C166.6 365.698 167.2 378.298 166.5 391.198C166.3 394.898 166 398.598 165.5 402.298C163.9 416.098 162.2 429.798 160.6 443.598C158.5 461.398 156.3 479.598 148.8 495.898C148.2 497.198 147.5 498.598 146.8 499.898H52C49.7 497.898 47.6 495.898 46.1 493.498C40.2 483.898 43.1 466.498 46.7 456.698C50.6 446.398 57.4 437.398 62.1 427.498C66.8 417.498 69.1 405.298 63.8 395.698C61.5 391.498 58 388.198 55.1 384.398C42.2 366.798 46.6 342.298 52.9 321.398C59.2 300.498 66.9 277.898 59.1 257.498C55.4 247.898 48.5 239.798 44.2 230.398C32.5 204.598 42.5 173.798 58.3 150.298C64.8 140.598 72.3 131.398 76.5 120.498C81.1 108.598 81.4 95.4984 83.3 82.8984C85.2 70.2984 89.4 57.0984 99.5 49.1984C107.8 42.6984 118.4 41.0984 128.1 37.5984C138 33.9984 146.1 27.8984 155 22.4984C175.7 9.99836 199.3 3.09836 223.5 2.69836C241.2 2.49836 258.9 5.49836 275.7 10.8984C286.3 14.2984 292.8 18.5984 299 24.8984C302.2 28.1984 305.4 32.0984 309 36.5984C311.7 39.9984 314.4 43.4984 315.2 47.6984C316.8 56.5984 310 63.8984 302.5 69.3984Z" fill="#797EF3"/>
<path d="M135.2 201.898C128.8 194.298 119.9 189.298 107.7 188.998C89.7999 188.598 72.5999 200.898 66.1999 217.598C55.7999 244.498 73.1999 277.398 96.6999 291.198C117.6 303.498 142.1 296.298 148.2 271.998C150.9 261.198 149.8 249.798 148.8 238.798C147.4 225.498 143.4 211.698 135.2 201.898Z" fill="#F4D3B8"/>
<path d="M124 244.398C124.73 238.948 124.72 238.948 124.72 238.948C124.72 238.948 124.72 238.948 124.71 238.948H124.7C124.69 238.948 124.68 238.948 124.67 238.948C124.64 238.948 124.61 238.938 124.57 238.938C124.49 238.928 124.38 238.918 124.25 238.898C123.98 238.868 123.61 238.828 123.14 238.798C122.21 238.728 120.91 238.648 119.37 238.638C116.32 238.618 112.12 238.858 107.87 239.958C103.66 241.048 98.9298 243.108 95.4098 247.088C91.7398 251.228 89.9098 256.848 90.5198 263.878L101.48 262.928C101.09 258.458 102.26 255.948 103.65 254.378C105.19 252.638 107.59 251.388 110.63 250.608C113.63 249.828 116.8 249.628 119.32 249.638C120.56 249.648 121.58 249.708 122.29 249.758C122.64 249.788 122.91 249.808 123.08 249.828C123.17 249.838 123.23 249.848 123.26 249.848C123.28 249.848 123.29 249.848 123.29 249.848C123.27 249.848 123.27 249.848 124 244.398ZM88.9998 223.398C89.8198 228.838 89.8198 228.838 89.8198 228.838C89.8198 228.838 89.8398 228.838 89.8598 228.828C89.8998 228.818 89.9698 228.818 90.0598 228.798C90.2498 228.778 90.5498 228.738 90.9498 228.698C91.7398 228.618 92.8998 228.538 94.3098 228.508C97.1498 228.448 100.85 228.628 104.5 229.488C108.17 230.348 111.48 231.828 113.92 234.128C116.24 236.328 118.12 239.588 118.53 244.798L129.5 243.958C128.9 236.178 125.91 230.308 121.48 226.128C117.17 222.058 111.85 219.908 107.03 218.768C102.18 217.628 97.4998 217.428 94.0998 217.498C92.3798 217.528 90.9498 217.638 89.9298 217.728C89.4198 217.778 89.0098 217.828 88.7198 217.858C88.5698 217.878 88.4598 217.888 88.3698 217.908C88.3298 217.918 88.2898 217.918 88.2598 217.918C88.2498 217.918 88.2298 217.918 88.2298 217.928H88.2198C88.2198 217.928 88.2198 217.928 88.2098 217.928C88.1798 217.958 88.1798 217.958 88.9998 223.398ZM90.5198 263.878C90.7798 266.908 93.4498 269.148 96.4798 268.878C99.5098 268.618 101.75 265.948 101.48 262.918L90.5198 263.878ZM124 244.398L123.27 249.848C124.91 250.068 126.57 249.528 127.78 248.388C128.99 247.248 129.61 245.628 129.48 243.968L124 244.398ZM88.1798 217.958C85.1798 218.418 83.1098 221.218 83.5698 224.218C84.0298 227.218 86.8298 229.288 89.8298 228.828L88.1798 217.958Z" fill="#EABC97"/>
<path d="M148.3 136.898C154.4 119.798 164.6 103.598 175 88.9983C185.1 74.6983 198.8 62.9983 214.5 55.1983C229.2 47.9983 246.2 44.1983 262 48.3983C287.8 55.2983 303.5 87.4983 290.6 111.898C285.5 121.598 275.8 127.898 266.8 133.998C237.9 153.798 209.6 179.198 202.2 213.398C197.6 234.498 201.7 256.398 198.3 277.598C195.6 293.898 188 307.698 183.2 322.998C178.1 338.798 180.8 357.398 185.5 372.998C190.8 390.498 199.5 406.598 208 422.798C214.3 434.798 220.4 449.998 212.6 461.098C216.4 450.898 212.2 439.198 205.4 430.698C198.6 422.198 189.5 415.898 181.5 408.498C163 391.198 150.9 367.298 147.4 342.298C145.9 331.898 144.7 320.698 144 310.098C143.2 297.398 148.5 284.798 149.9 272.198C152.5 248.398 141.4 230.098 139.3 207.998C137.1 184.798 140.4 159.098 148.3 136.898Z" fill="#797EF3"/>
<path d="M303.5 416.498C303.5 410.998 303.5 410.998 303.5 410.998C303.49 410.998 303.48 410.998 303.45 410.998C303.4 410.998 303.32 410.998 303.2 410.998C302.97 410.988 302.61 410.978 302.12 410.958C301.15 410.918 299.69 410.828 297.78 410.638C293.97 410.278 288.4 409.538 281.52 408.058C267.75 405.098 248.75 399.148 228.03 387.228L222.55 396.768C244.42 409.348 264.53 415.658 279.21 418.818C286.55 420.398 292.55 421.198 296.74 421.598C298.84 421.798 300.49 421.898 301.63 421.948C302.2 421.978 302.65 421.988 302.96 421.998C303.12 421.998 303.24 422.008 303.33 422.008C303.37 422.008 303.41 422.008 303.44 422.008C303.45 422.008 303.47 422.008 303.47 422.008H303.48C303.5 421.998 303.5 421.998 303.5 416.498ZM228.04 387.228C225.41 385.718 222.04 386.618 220.53 389.258C219.02 391.898 219.92 395.258 222.56 396.768L228.04 387.228ZM303.5 421.998C306.54 421.998 309 419.538 309 416.498C309 413.458 306.54 410.998 303.5 410.998V421.998Z" fill="#1B1464"/>
</svg>
