<svg width="500" height="500" viewBox="0 0 500 500" fill="none" xmlns="http://www.w3.org/2000/svg">
<path d="M500 0.00976562H0V499.998H500V0.00976562Z" fill="#444DF2"/>
<path d="M294.15 415.7C290.68 443.55 287.35 471.849 286.24 499.998H52.8701C55.9401 495.288 59.5801 490.308 63.6601 484.879C83.6901 458.269 99.9201 428.81 111.79 397.691C117.72 382.141 122.57 366.161 126.24 349.922C128.8 338.652 137.34 314.182 133.51 303.073C135.7 309.433 138.79 315.312 142.58 320.742C154.57 337.912 173.58 350.422 193.34 358.321C219.35 368.711 247.41 372.721 274.33 380.451C279.96 382.071 285.82 384.031 289.75 388.381C296.13 395.461 295.33 406.24 294.15 415.7Z" fill="#444DF2"/>
<path d="M294.15 415.7C290.68 443.55 287.35 471.849 286.24 499.998H52.8701C55.9401 495.288 59.5801 490.308 63.6601 484.879C83.6901 458.269 99.9201 428.81 111.79 397.691C117.72 382.141 122.57 366.161 126.24 349.922C128.8 338.652 137.34 314.182 133.51 303.073C135.7 309.433 138.79 315.312 142.58 320.742C154.57 337.912 173.58 350.422 193.34 358.321C219.35 368.711 247.41 372.721 274.33 380.451C279.96 382.071 285.82 384.031 289.75 388.381C296.13 395.461 295.33 406.24 294.15 415.7Z" fill="#EAAA7F"/>
<path d="M105.87 182.036C105.55 160.156 107.87 137.997 117.98 118.347C135.32 84.618 173.36 63.7084 212.01 56.3886C250.67 49.0688 290.42 53.3487 329.35 57.9486C352.74 60.7185 387.62 64.9384 400.17 86.3679C416.76 114.667 418.37 155.516 421.67 187.186C424.97 218.855 429 250.444 432.16 282.133C434.93 309.923 433.86 339.422 422.62 365.841C409.19 397.421 379.79 423.1 344.93 431.59C295.34 443.66 227.62 427.95 195.71 390.321C172.28 362.692 146.02 332.572 130.51 300.153C114.56 266.814 108.07 229.895 106.25 193.355C106.06 189.596 105.92 185.816 105.87 182.036Z" fill="#F7C9A4"/>
<path d="M141.51 317.272C134.4 318.072 127.42 317.393 121.03 314.073C113.21 310.013 107.76 302.623 102.75 295.383C74.6798 254.874 53.2298 206.145 48.8098 156.606C47.1198 137.617 51.5498 117.187 64.8898 103.557C68.2898 100.088 72.2298 97.0776 74.9298 93.0377C78.4898 87.7178 79.5498 81.1679 81.8298 75.1781C89.3398 55.4085 109.24 41.4488 128.42 32.559C216.67 -8.34001 325.46 -14.4799 408.64 35.949C415.7 40.2289 422.68 47.0187 427.56 53.6686C448.06 81.6179 428.07 120.607 402.52 135.967C366.17 157.826 328.33 166.866 285.9 161.966C250.28 157.846 216.1 145.946 182.25 134.117C195.48 166.466 194.98 202.995 182.76 235.534C177.09 250.644 178.49 258.884 178.34 274.633C178.25 283.803 178.61 305.393 167.82 309.673C159.45 312.993 150.38 316.283 141.51 317.272Z" fill="#1B1464"/>
<path d="M151.38 220.685C178.18 239.274 186.44 285.653 187.12 316.032C187.15 317.452 187.17 318.932 187.8 320.212C189.83 324.402 161.22 325.862 158.9 325.882C147.61 325.992 136.31 324.802 125.29 322.322C113.33 319.632 109.69 316.482 102.58 306.193C96.6101 297.553 91.9401 287.973 89.4201 277.763C85.3301 261.194 87.2601 242.794 96.5901 228.514C99.6801 223.785 103.59 219.505 108.41 216.565C121.41 208.655 138.87 212.005 151.38 220.685Z" fill="#F7C9A4"/>
<path d="M172.08 318.042C149.13 333.652 120.53 324.432 112.42 317.562C100.61 307.553 93.0699 292.623 89.4099 277.773C85.3199 261.204 87.2499 242.804 96.5799 228.524C99.6699 223.795 103.58 219.515 108.4 216.575C121.4 208.655 138.86 212.015 151.38 220.685C165.05 230.164 174.41 245.614 176.49 262.124" fill="#F7C9A4"/>
<path d="M317.277 261.907C324.634 261.424 329.94 250.998 329.128 238.62C328.315 226.242 321.692 216.599 314.335 217.082C306.977 217.565 301.671 227.991 302.484 240.369C303.296 252.747 309.919 262.389 317.277 261.907Z" fill="#1B1464"/>
<path d="M395.401 237.925C402.758 237.442 408.064 227.017 407.252 214.639C406.439 202.261 399.816 192.618 392.459 193.101C385.101 193.584 379.795 204.009 380.608 216.387C381.42 228.765 388.043 238.408 395.401 237.925Z" fill="#1B1464"/>
<path d="M365.22 325.992C354.04 325.992 342.86 322.682 335.49 319.933C332.88 318.953 331.55 316.053 332.53 313.433C333.51 310.823 336.42 309.493 339.03 310.473C347.51 313.643 368.59 320.123 381.08 311.863C382.08 311.203 382.39 310.843 382.48 310.713C382.51 310.233 382.13 308.963 381.96 308.403C378.78 297.833 374.76 287.323 370.88 277.164C364.9 261.514 358.72 245.324 355.23 228.185C354.67 225.455 356.44 222.785 359.17 222.225C361.9 221.665 364.57 223.435 365.13 226.165C368.46 242.494 374.49 258.284 380.32 273.564C384.27 283.893 388.35 294.583 391.64 305.493C392.22 307.403 393.18 310.593 392.07 313.913C391 317.123 388.47 319.083 386.66 320.283C380.29 324.482 372.76 325.992 365.22 325.992Z" fill="#1B1464"/>
<path d="M263.79 237.694C261.35 237.694 259.2 235.914 258.81 233.424C255.42 211.795 268.82 188.816 289.32 181.126C291.93 180.146 294.84 181.466 295.82 184.076C296.8 186.686 295.48 189.596 292.87 190.575C276.69 196.645 266.11 214.785 268.79 231.855C269.22 234.604 267.34 237.194 264.58 237.624C264.31 237.674 264.05 237.694 263.79 237.694Z" fill="#1B1464"/>
<path d="M409.63 177.546C407.59 177.546 405.67 176.296 404.91 174.276C403.78 171.266 401.16 168.756 397.74 167.386C394.32 166.016 390.69 166.026 387.79 167.406C385.28 168.616 382.26 167.546 381.06 165.036C379.85 162.526 380.92 159.506 383.43 158.296C388.87 155.686 395.46 155.586 401.5 158.006C407.54 160.426 412.23 165.056 414.36 170.706C415.34 173.316 414.03 176.226 411.42 177.216C410.83 177.436 410.22 177.546 409.63 177.546Z" fill="#1B1464"/>
<path d="M344.71 378.182C331.94 378.182 319.16 374.572 308.65 367.402C306.35 365.832 305.75 362.692 307.33 360.382C308.9 358.082 312.04 357.482 314.35 359.052C331.35 370.652 355.45 371.182 372.95 360.322C375.32 358.852 378.43 359.582 379.9 361.952C381.37 364.322 380.64 367.432 378.27 368.902C368.29 375.102 356.5 378.182 344.71 378.182Z" fill="#1B1464"/>
<path d="M287.75 442.95C287.44 442.95 287.13 442.92 286.81 442.86C248.16 435.59 209.38 411.98 177.63 376.381C175.77 374.301 175.96 371.111 178.04 369.251C180.12 367.391 183.31 367.581 185.17 369.661C215.45 403.6 252.21 426.08 288.68 432.93C291.42 433.45 293.22 436.08 292.71 438.82C292.25 441.26 290.13 442.95 287.75 442.95Z" fill="#1B1464"/>
<path d="M123.88 291.423C121.29 291.423 119.08 289.443 118.86 286.813C118.12 278.253 121.46 273.114 124.4 270.304C129.75 265.194 137.56 263.854 143.23 263.644C142.38 261.714 141.14 260.104 139.49 258.794C131.89 252.724 118.34 254.624 118.21 254.644C115.46 255.044 112.89 253.144 112.48 250.394C112.07 247.644 113.96 245.074 116.71 244.654C117.44 244.544 134.68 242.054 145.76 250.864C151.07 255.084 154.06 261.034 154.63 268.534C154.75 270.054 154.17 271.544 153.07 272.594C151.96 273.644 150.44 274.123 148.93 273.934C145.57 273.504 135.85 273.314 131.37 277.613C129.4 279.503 128.6 282.223 128.93 285.933C129.17 288.713 127.12 291.163 124.34 291.403C124.18 291.413 124.03 291.423 123.88 291.423Z" fill="#EAAA7F"/>
</svg>
