<svg width="500" height="500" viewBox="0 0 500 500" fill="none" xmlns="http://www.w3.org/2000/svg">
<path d="M500 0.00976562H0V500.01H500V0.00976562Z" fill="#ADB0D9"/>
<path d="M306.91 500.01H84.3901C85.1801 497.66 85.9902 495.32 86.7802 492.98C102.66 445.93 108.85 400.38 109.76 351.06C166.1 365.4 225.27 359.25 283.4 358.65C305.03 358.43 297.76 375.36 298.04 391.11C298.38 410.8 299.4 430.48 301.1 450.1C302.54 466.79 304.48 483.44 306.91 500.01Z" fill="#ADB0D9"/>
<path d="M306.91 500.01H84.3901C85.1801 497.66 85.9902 495.32 86.7802 492.98C102.66 445.93 108.85 400.38 109.76 351.06C166.1 365.4 225.27 359.25 283.4 358.65C305.03 358.43 297.76 375.36 298.04 391.11C298.38 410.8 299.4 430.48 301.1 450.1C302.54 466.79 304.48 483.44 306.91 500.01Z" fill="#E8AE8E"/>
<path d="M149.1 391.33C149.46 391.76 149.83 392.19 150.19 392.61C154.83 398.07 159.5 403.56 164.96 408.21C193.43 432.43 237.74 435.21 272.81 442.05C294.11 446.2 315.43 446.91 336.42 440.48C360.62 433.06 382.33 416.7 394.49 394.5C409.63 366.84 409.02 333.58 408.02 302.06C407.45 284.17 406.88 266.29 406.31 248.4C405.95 237.18 405.6 225.95 406.17 214.74C407.57 187.11 414.79 158.77 408.83 131.23C403.88 108.37 384.76 84.5096 363.42 74.8196C329.74 59.5296 289.39 55.4997 252.95 59.6197C226.58 62.5997 199.75 65.7596 175.51 76.5296C153.73 86.2096 125.5 98.5597 113.87 120.17C99.1201 147.57 90.7302 179.25 87.1602 210.03C84.2102 235.47 84.7401 261.32 88.7701 286.62C92.5801 310.55 98.9501 332.32 114.77 350.93C126.2 364.4 137.65 377.86 149.1 391.33Z" fill="#F4C19F"/>
<path d="M307.33 313.56C304.35 313.56 301.9 311.18 301.83 308.19C301.76 305.15 304.16 302.63 307.2 302.56C320.91 302.24 326.38 298.27 335.69 289.71C325.05 265.94 318.79 240.72 317.06 214.68C316.86 211.65 319.15 209.03 322.18 208.83C325.19 208.64 327.83 210.92 328.03 213.95C329.73 239.59 336.4 265.44 347.32 288.7C348.34 290.86 347.84 293.43 346.09 295.06C333.35 306.92 325.85 313.13 307.45 313.55C307.42 313.56 307.38 313.56 307.33 313.56Z" fill="#1B1464"/>
<path d="M263.185 260.433C271.204 259.907 276.987 248.548 276.102 235.062C275.216 221.576 267.998 211.07 259.979 211.596C251.961 212.122 246.178 223.482 247.063 236.968C247.948 250.454 255.166 260.96 263.185 260.433Z" fill="#1B1464"/>
<path d="M374.291 257.312C382.31 256.786 388.093 245.427 387.208 231.941C386.322 218.455 379.104 207.949 371.085 208.475C363.067 209.001 357.284 220.361 358.169 233.847C359.054 247.333 366.272 257.839 374.291 257.312Z" fill="#1B1464"/>
<path d="M399.3 211.86C397.74 211.86 396.18 211.2 395.1 209.91C375.72 186.99 352.94 187.44 352.72 187.43C349.65 187.54 347.15 185.14 347.05 182.1C346.95 179.06 349.34 176.53 352.38 176.43C353.52 176.4 380.73 175.86 403.51 202.8C405.47 205.12 405.18 208.59 402.86 210.55C401.81 211.43 400.55 211.86 399.3 211.86Z" fill="#1B1464"/>
<path d="M210.84 220.92C210.46 220.92 210.08 220.88 209.69 220.8C206.72 220.18 204.82 217.22 205.44 214.25C205.68 213.09 212.05 185.56 268.27 169.91C271.2 169.1 274.23 170.81 275.04 173.73C275.85 176.66 274.14 179.69 271.22 180.5C222.24 194.14 216.25 216.36 216.19 216.58C215.64 219.18 213.38 220.92 210.84 220.92Z" fill="#1B1464"/>
<path d="M308.47 370.14C304.12 370.14 299.6 369.5 295.06 368.2C284.49 365.17 275.03 359.14 266.69 353.82C264.13 352.19 263.38 348.78 265.01 346.23C266.64 343.67 270.04 342.92 272.6 344.55C280.68 349.71 289.04 355.05 298.07 357.63C307.44 360.31 316.42 359.43 322.71 355.22C325.23 353.53 328.65 354.21 330.34 356.73C332.03 359.25 331.35 362.67 328.83 364.36C323.13 368.18 316.07 370.14 308.47 370.14Z" fill="#1B1464"/>
<path d="M108.86 302.15C105.05 285.33 109.26 266.31 110.09 249.17C110.2 247 110.39 244.61 111.83 243.08C114.75 239.97 119.52 242.75 123.46 244.05C130.76 246.45 138.95 242.59 143.78 236.28C149.48 228.84 151.13 218.78 151.38 209.17C151.52 203.73 151.08 199.09 148.95 194.22C147.66 191.29 144.83 182.95 141.69 181.86C154.56 186.3 170.18 185.56 179.75 175.38C182.61 172.34 184.77 168.63 186.61 164.8C191.5 154.6 196.31 136.49 187.08 127.55C195.99 136.52 208.72 143 221.18 139.92C233.89 136.77 243.54 120.5 237.42 108.22C243.77 121.63 251.71 136.45 265.39 140.04C280.61 144.04 297.3 128.56 295.68 111.94C302.38 128.78 312.65 145.6 328.73 152C344.8 158.4 366.83 148.78 368.48 130.57C368.04 135.35 366.16 140.46 366.4 145.21C367.3 162.91 383.25 176.53 396.62 184.39C409.42 191.91 424.45 200.24 439.81 197.67C454.34 195.25 461.54 183.01 463.68 168.34C465.08 158.73 464.46 147.86 458.16 140.82C451.08 151.96 437.92 158.33 425.39 156.7C432.6 152.45 437.97 143.8 436.76 135.12C435.32 124.69 425.23 120.6 416.87 122.6C425.19 111.94 436.13 104.01 435.51 88.1898C434.82 70.6398 420.68 52.7498 406.81 44.8698C399.58 40.7598 391.11 38.3798 383.13 40.3498C375.15 42.3198 367.98 49.4398 367.35 58.1498C365.26 41.0498 354.35 26.1598 340.73 16.8698C327.11 7.57983 310.99 3.27983 294.95 1.03983C284.69 -0.400167 273.78 -0.950167 264.48 3.87983C255.18 8.70983 248.35 20.5598 251.89 30.9198C239.92 12.1898 218.39 2.19983 197.17 0.789833C175.95 -0.620167 154.91 5.57983 135.07 13.7398C127.52 16.8498 119.66 20.5998 115.12 27.7398C105.31 43.1798 116.06 63.7298 127.27 78.0298C120.59 63.3498 102.6 59.9698 87.3 59.6398C71.35 59.2998 52.23 62.3698 45.55 77.8098C38.3 94.5498 50.82 112.97 62.49 126.56C45.24 118.85 22.88 133.77 21.85 153.68C20.82 173.59 41.4999 191.05 59.4499 185.4C55.0999 179.51 45.4101 181.81 41.5601 188.09C37.7101 194.36 38.25 202.58 39.85 209.88C42.44 221.75 47.47 233.01 54.47 242.65C59.86 250.07 71.76 256.02 76.16 247.89C63.44 249.13 51.91 259.32 48.41 272.42C44.91 285.51 49.68 300.66 59.88 308.85C64.41 312.49 70.26 314.84 75.77 313.42C81.28 312 85.84 305.86 84.4499 300C78.9199 297.53 72.33 302.23 70.49 308.31C68.65 314.39 70.4 321.06 72.97 326.83C77.6 337.24 84.96 346.24 93.99 352.56C96.04 353.99 98.38 355.34 100.8 354.97C104.49 354.41 106.61 350.26 107.85 346.52C112.79 331.66 112.23 317.17 108.86 302.15Z" fill="#444DF2"/>
<path d="M116.08 201.96C109.69 194.41 100.76 189.38 88.5701 189.1C70.6601 188.69 53.5102 201.03 47.0302 217.74C36.6002 244.65 54.0402 277.49 77.5502 291.37C98.4302 303.69 122.94 296.51 129.03 272.14C131.73 261.33 130.67 249.99 129.58 238.9C128.28 225.54 124.28 211.66 116.08 201.96Z" fill="#F4C19F"/>
<path d="M76.8299 268.88C74.0099 268.88 71.6099 266.72 71.3599 263.86C70.5499 254.54 74.1999 248.94 77.3999 245.88C83.2299 240.31 91.7399 238.86 97.9099 238.63C96.9799 236.52 95.62 234.76 93.81 233.32C85.59 226.78 70.8099 228.8 70.6599 228.82C67.6599 229.29 64.8499 227.21 64.3999 224.21C63.9399 221.21 66.0099 218.4 69.0099 217.95C69.7999 217.83 88.5799 215.12 100.65 224.71C106.43 229.31 109.69 235.79 110.32 243.96C110.45 245.61 109.82 247.24 108.62 248.38C107.41 249.52 105.76 250.05 104.11 249.84C100.45 249.37 89.8599 249.17 84.9799 253.85C82.8399 255.91 81.9698 258.87 82.3198 262.91C82.5798 265.94 80.3398 268.6 77.3198 268.87C77.1498 268.87 76.9899 268.88 76.8299 268.88Z" fill="#EAAA7F"/>
<path d="M294.44 447.83C292.89 447.83 267.07 447.69 233.98 439.12C202.98 431.09 159.64 413.79 129.26 377.01C127.33 374.67 127.66 371.2 130 369.27C132.34 367.34 135.81 367.67 137.74 370.01C166.18 404.44 207.12 420.76 236.45 428.4C268.52 436.75 294.14 436.83 294.46 436.83C297.5 436.83 299.96 439.29 299.96 442.32C299.96 445.36 297.51 447.82 294.47 447.83C294.47 447.83 294.46 447.83 294.44 447.83Z" fill="#1B1464"/>
</svg>
