<svg width="500" height="500" viewBox="0 0 500 500" fill="none" xmlns="http://www.w3.org/2000/svg">
<path d="M500 -0.00170898H0V499.998H500V-0.00170898Z" fill="#ADB0D9"/>
<path d="M373.9 135.798C375.8 128.798 380.9 122.098 379.6 114.998C378.6 109.498 376.3 103.798 377 98.0983C377.5 93.8983 383.8 81.2984 389.3 82.7984C391.5 83.3984 392.6 85.8983 393.3 87.9983C397.3 99.4983 400.5 109.298 401.8 121.598C403.1 133.998 403.4 146.498 402.9 158.998C402.6 166.698 401.9 174.498 398.8 181.498C396.1 187.698 391.5 193.098 385.9 196.798C384.3 193.298 380.9 191.098 378.4 188.198C374.4 183.698 372.5 177.798 371.4 171.898C371.4 159.398 370.6 148.198 373.9 135.798Z" fill="#444DF2"/>
<path d="M362.3 249.998C360.3 241.798 361.1 233.198 361.9 224.798C362.9 214.698 365.9 204.198 372.1 196.798C376.9 191.098 383.7 187.298 392.9 187.098C399 186.998 407.8 188.498 411.3 193.998C414.9 199.798 415.8 209.498 415.3 215.998C414.6 224.798 411 232.898 407.5 240.798C403.7 249.498 398.7 268.198 387.1 268.998C375 269.898 365.1 261.298 362.3 249.998Z" fill="#F5B18F"/>
<path d="M297.9 499.998H75.3999C76.1999 496.598 76.9999 493.198 77.7999 489.798C93.6999 421.598 99.8999 355.498 100.8 283.998C157.1 304.798 216.3 295.898 274.4 294.998C296 294.698 288.8 319.198 289 342.098C289.3 370.698 290.4 399.198 292.1 427.598C293.5 451.798 295.5 475.998 297.9 499.998Z" fill="#F5B18F"/>
<path d="M395.9 161.998C393.6 190.598 390.1 219.198 388.2 247.898C387.4 260.598 386.9 273.198 386.9 285.898C387 325.098 391.7 367.598 370.1 400.298C354.2 424.298 326.1 438.398 297.5 442.098C276.8 444.798 256.1 442.298 235.9 437.798C204.4 430.898 172.1 418.298 145.4 398.798C129 386.798 114.8 372.198 104.3 354.598C94.1997 337.798 88.1997 318.898 85.0997 299.398C83.4997 289.098 82.6997 278.598 82.5997 268.098C82.3997 248.598 84.3997 229.098 87.1997 209.798C91.1997 182.198 95.0997 152.998 110.8 129.198C125.5 106.998 147.3 89.6983 171.6 78.9983C212.2 61.1983 258.1 59.9983 302.4 62.6983C318.1 63.6983 333.9 65.0983 348.8 70.0983C363.7 75.0983 377.7 83.9983 386.2 97.0983C398.3 115.798 397.7 139.798 395.9 161.998Z" fill="#FEC29B"/>
<path d="M241.272 260.462C249.264 259.937 255.023 248.566 254.137 235.063C253.251 221.561 246.054 211.04 238.063 211.565C230.071 212.089 224.312 223.46 225.198 236.963C226.084 250.466 233.281 260.986 241.272 260.462Z" fill="#1B1464"/>
<path d="M335.387 247.36C343.378 246.836 349.138 235.465 348.251 221.962C347.365 208.46 340.168 197.939 332.177 198.463C324.186 198.988 318.426 210.359 319.312 223.862C320.199 237.364 327.395 247.885 335.387 247.36Z" fill="#1B1464"/>
<path d="M214.42 190.718C219.14 187.908 226.67 185.278 234.23 184.798C241.83 184.318 248.4 186.038 252.57 190.538L260.64 183.058C253.32 175.158 242.83 173.228 233.53 173.818C224.19 174.408 214.97 177.588 208.79 181.268L214.42 190.718ZM252.57 190.538C254.64 192.768 258.12 192.898 260.34 190.828C262.57 188.758 262.7 185.278 260.63 183.058L252.57 190.538ZM208.78 181.278C206.17 182.838 205.32 186.208 206.87 188.818C208.43 191.428 211.8 192.278 214.41 190.728L208.78 181.278Z" fill="#1B1464"/>
<path d="M333.2 178.798C335.87 183.608 335.86 183.608 335.86 183.608C335.86 183.608 335.87 183.608 335.88 183.598C335.9 183.588 335.95 183.558 336.02 183.528C336.15 183.458 336.37 183.348 336.66 183.208C337.24 182.928 338.11 182.538 339.2 182.108C341.41 181.238 344.43 180.268 347.78 179.778C354.48 178.798 361.72 179.778 367.14 186.468L375.68 179.538C366.9 168.718 355.04 167.608 346.19 168.898C341.77 169.548 337.9 170.798 335.17 171.878C333.79 172.418 332.67 172.928 331.89 173.308C331.49 173.498 331.18 173.658 330.96 173.778C330.85 173.838 330.76 173.888 330.69 173.918C330.66 173.938 330.63 173.948 330.61 173.968C330.6 173.978 330.59 173.978 330.58 173.988C330.58 173.988 330.57 173.988 330.57 173.998C330.54 173.988 330.53 173.988 333.2 178.798ZM367.13 186.468C369.04 188.828 372.51 189.188 374.87 187.278C377.23 185.368 377.59 181.898 375.68 179.538L367.13 186.468ZM330.53 173.988C327.87 175.458 326.91 178.808 328.39 181.468C329.86 184.128 333.21 185.088 335.87 183.608L330.53 173.988Z" fill="#1B1464"/>
<path d="M234.6 345.478C251.6 361.728 276.04 369.758 299.35 366.958L298.04 356.038C277.95 358.448 256.79 351.478 242.19 337.518L234.6 345.478ZM299.35 366.958C302.37 366.598 304.52 363.858 304.16 360.838C303.8 357.818 301.06 355.668 298.04 356.028L299.35 366.958ZM242.2 337.518C240 335.418 236.52 335.498 234.42 337.698C232.32 339.898 232.4 343.378 234.6 345.478L242.2 337.518Z" fill="#1B1464"/>
<path d="M394.9 104.698C386.6 129.598 348.1 133.898 326.1 136.298C292.6 139.998 262.8 132.498 230.6 124.998C226.4 123.998 172.1 110.698 172.1 110.698C169.3 138.498 163 163.098 146.1 185.398C138.8 194.998 145.2 206.998 144.1 219.598C142.8 235.698 142.3 255.298 137.3 270.698C136.7 272.698 134.8 274.398 132.7 274.098C129.8 273.698 128.9 270.198 127.8 267.498C125.3 261.198 118.2 255.498 111.2 258.498C104.6 261.398 101.3 271.698 97.9 277.398C94.7 282.798 89.7 287.398 87.9 293.398C87.3 295.398 87.1 297.498 86.2 299.398C85.3 301.298 83.5 302.998 81.4 302.998C79.9 302.998 78.5 301.998 77.4 300.998C66.5 291.598 64.7 279.198 61 266.398C56.8 251.398 55.0999 235.898 53.5999 220.498C52.6999 210.498 51.8999 200.398 50.5999 190.398C49.4999 181.698 47.1 173.098 47 164.298C46.6 135.898 52.5 107.098 66.4 82.4983C84.6 50.4983 121.7 33.5983 155 24.7983C209.8 10.3983 264.5 18.2983 317.8 35.2983C339.3 42.1983 405.1 74.3983 394.9 104.698Z" fill="#444DF2"/>
<path d="M314.7 256.528C310.3 252.528 307.18 250.258 304.85 247.188C302.95 244.668 301.89 241.898 302.63 237.388L291.77 235.608C290.51 243.298 292.5 249.078 296.07 253.808C299.22 257.978 303.99 261.658 307.3 264.668L314.7 256.528ZM324.2 278.168C324.45 269.918 320.68 261.898 314.68 256.508L307.33 264.688C311.13 268.098 313.35 273.078 313.21 277.828L324.2 278.168ZM271.85 297.658C280.71 302.788 292.91 305.678 303.42 303.588C308.78 302.528 313.95 300.108 317.85 295.738C321.79 291.328 323.99 285.408 324.19 278.148L313.19 277.838C313.04 282.978 311.55 286.268 309.63 288.418C307.68 290.608 304.86 292.088 301.26 292.798C293.87 294.268 284.37 292.208 277.33 288.128L271.85 297.658ZM302.63 237.388C303.12 234.388 301.09 231.558 298.09 231.068C295.09 230.578 292.26 232.608 291.77 235.608L302.63 237.388ZM311 260.598L307.3 264.668C307.31 264.678 307.32 264.688 307.33 264.688L311 260.598ZM318.7 277.998L313.2 277.828V277.838L318.7 277.998ZM277.35 288.138C274.72 286.618 271.36 287.518 269.83 290.148C268.31 292.778 269.21 296.138 271.84 297.668L277.35 288.138Z" fill="#1B1464"/>
<path d="M116.1 201.898C109.7 194.298 100.8 189.298 88.5998 188.998C70.6998 188.598 53.4998 200.898 47.0998 217.598C36.6998 244.498 54.0998 277.398 77.5998 291.198C98.4998 303.498 123 296.298 129.1 271.998C131.8 261.198 130.7 249.798 129.7 238.798C128.3 225.498 124.3 211.698 116.1 201.898Z" fill="#FEC29B"/>
<path d="M104.8 244.398C105.53 238.948 105.52 238.948 105.52 238.948C105.52 238.948 105.52 238.948 105.51 238.948H105.5C105.49 238.948 105.48 238.948 105.47 238.948C105.44 238.948 105.41 238.938 105.37 238.938C105.29 238.928 105.18 238.918 105.05 238.898C104.78 238.868 104.41 238.828 103.94 238.798C103.01 238.728 101.71 238.648 100.17 238.638C97.1201 238.618 92.9201 238.858 88.6701 239.958C84.4601 241.048 79.7302 243.108 76.2102 247.088C72.5402 251.228 70.7101 256.848 71.3201 263.878L82.2802 262.928C81.8902 258.458 83.0602 255.948 84.4502 254.378C85.9902 252.638 88.3901 251.388 91.4301 250.608C94.4301 249.828 97.6001 249.628 100.12 249.638C101.36 249.648 102.38 249.708 103.09 249.758C103.44 249.788 103.71 249.808 103.88 249.828C103.97 249.838 104.03 249.848 104.06 249.848C104.08 249.848 104.09 249.848 104.09 249.848C104.07 249.848 104.07 249.848 104.8 244.398ZM69.8001 223.398C70.6201 228.838 70.6201 228.838 70.6201 228.838C70.6201 228.838 70.6401 228.838 70.6601 228.828C70.7001 228.818 70.7701 228.818 70.8601 228.798C71.0501 228.778 71.3501 228.738 71.7501 228.698C72.5401 228.618 73.7001 228.538 75.1101 228.508C77.9501 228.448 81.6501 228.628 85.3001 229.488C88.9701 230.348 92.2801 231.828 94.7201 234.128C97.0401 236.328 98.9202 239.588 99.3302 244.798L110.3 243.958C109.7 236.178 106.71 230.308 102.28 226.128C97.9702 222.058 92.6502 219.908 87.8302 218.768C82.9802 217.628 78.3002 217.428 74.9002 217.498C73.1802 217.528 71.7501 217.638 70.7301 217.728C70.2201 217.778 69.8102 217.828 69.5202 217.858C69.3702 217.878 69.2601 217.888 69.1701 217.908C69.1301 217.918 69.0901 217.918 69.0601 217.918C69.0501 217.918 69.0302 217.918 69.0302 217.928H69.0202C69.0202 217.928 69.0202 217.928 69.0102 217.928C68.9802 217.958 68.9801 217.958 69.8001 223.398ZM71.3201 263.878C71.5801 266.908 74.2502 269.148 77.2802 268.878C80.3102 268.618 82.5502 265.948 82.2802 262.918L71.3201 263.878ZM104.8 244.398L104.07 249.848C105.71 250.068 107.37 249.528 108.58 248.388C109.79 247.248 110.41 245.628 110.28 243.968L104.8 244.398ZM68.9801 217.958C65.9801 218.418 63.9101 221.218 64.3701 224.218C64.8301 227.218 67.6301 229.288 70.6301 228.828L68.9801 217.958Z" fill="#F4AC7D"/>
<path d="M286.25 436.008C244.83 437.858 195.71 425.128 161.45 402.228L155.34 411.368C191.68 435.668 243.16 448.938 286.74 446.988L286.25 436.008ZM161.46 402.228C158.93 400.538 155.52 401.218 153.83 403.748C152.14 406.278 152.82 409.688 155.35 411.378L161.46 402.228ZM286.75 446.988C289.78 446.848 292.13 444.278 292 441.248C291.87 438.218 289.29 435.868 286.26 435.998L286.75 446.988Z" fill="#1B1464"/>
</svg>
