<svg width="24" height="24" viewBox="0 0 24 24" fill="none" xmlns="http://www.w3.org/2000/svg">
<mask id="mask0_210_1567" style="mask-type:alpha" maskUnits="userSpaceOnUse" x="0" y="0" width="24" height="24">
<rect width="24" height="24" fill="#D9D9D9"/>
</mask>
<g mask="url(#mask0_210_1567)">
<path d="M12 19.3501C11.6333 19.3501 11.3207 19.2208 11.062 18.9621C10.804 18.7041 10.675 18.3918 10.675 18.0251V13.3001H5.95C5.58333 13.3001 5.271 13.1708 5.013 12.9121C4.75433 12.6541 4.625 12.3418 4.625 11.9751C4.625 11.6084 4.75433 11.2958 5.013 11.0371C5.271 10.7791 5.58333 10.6501 5.95 10.6501H10.675V5.9251C10.675 5.55843 10.804 5.24576 11.062 4.9871C11.3207 4.7291 11.6333 4.6001 12 4.6001C12.3667 4.6001 12.6793 4.7291 12.938 4.9871C13.196 5.24576 13.325 5.55843 13.325 5.9251V10.6501H18.05C18.4167 10.6501 18.7293 10.7791 18.988 11.0371C19.246 11.2958 19.375 11.6084 19.375 11.9751C19.375 12.3418 19.246 12.6541 18.988 12.9121C18.7293 13.1708 18.4167 13.3001 18.05 13.3001H13.325V18.0251C13.325 18.3918 13.196 18.7041 12.938 18.9621C12.6793 19.2208 12.3667 19.3501 12 19.3501Z" fill="#535AF1"/>
</g>
</svg>
