<svg width="40" height="40" viewBox="0 0 40 40" fill="none" xmlns="http://www.w3.org/2000/svg">
<rect width="40" height="40" rx="20" fill="#ECEEFE"/>
<mask id="mask0_388_3044" style="mask-type:alpha" maskUnits="userSpaceOnUse" x="8" y="8" width="24" height="24">
<rect x="8" y="8" width="24" height="24" fill="#D9D9D9"/>
</mask>
<g mask="url(#mask0_388_3044)">
<path d="M27 22C26.7167 22 26.4793 21.904 26.288 21.712C26.096 21.5207 26 21.2833 26 21V19H24C23.7167 19 23.4793 18.904 23.288 18.712C23.096 18.5207 23 18.2833 23 18C23 17.7167 23.096 17.479 23.288 17.287C23.4793 17.0957 23.7167 17 24 17H26V15C26 14.7167 26.096 14.479 26.288 14.287C26.4793 14.0957 26.7167 14 27 14C27.2833 14 27.5207 14.0957 27.712 14.287C27.904 14.479 28 14.7167 28 15V17H30C30.2833 17 30.5207 17.0957 30.712 17.287C30.904 17.479 31 17.7167 31 18C31 18.2833 30.904 18.5207 30.712 18.712C30.5207 18.904 30.2833 19 30 19H28V21C28 21.2833 27.904 21.5207 27.712 21.712C27.5207 21.904 27.2833 22 27 22ZM17 20C15.9 20 14.9583 19.6083 14.175 18.825C13.3917 18.0417 13 17.1 13 16C13 14.9 13.3917 13.9583 14.175 13.175C14.9583 12.3917 15.9 12 17 12C18.1 12 19.0417 12.3917 19.825 13.175C20.6083 13.9583 21 14.9 21 16C21 17.1 20.6083 18.0417 19.825 18.825C19.0417 19.6083 18.1 20 17 20ZM10 28C9.71667 28 9.47933 27.904 9.288 27.712C9.096 27.5207 9 27.2833 9 27V25.2C9 24.6333 9.146 24.1123 9.438 23.637C9.72933 23.1623 10.1167 22.8 10.6 22.55C11.6333 22.0333 12.6833 21.6457 13.75 21.387C14.8167 21.129 15.9 21 17 21C18.1 21 19.1833 21.129 20.25 21.387C21.3167 21.6457 22.3667 22.0333 23.4 22.55C23.8833 22.8 24.2707 23.1623 24.562 23.637C24.854 24.1123 25 24.6333 25 25.2V27C25 27.2833 24.904 27.5207 24.712 27.712C24.5207 27.904 24.2833 28 24 28H10ZM11 26H23V25.2C23 25.0167 22.9543 24.85 22.863 24.7C22.771 24.55 22.65 24.4333 22.5 24.35C21.6 23.9 20.6917 23.5623 19.775 23.337C18.8583 23.1123 17.9333 23 17 23C16.0667 23 15.1417 23.1123 14.225 23.337C13.3083 23.5623 12.4 23.9 11.5 24.35C11.35 24.4333 11.2293 24.55 11.138 24.7C11.046 24.85 11 25.0167 11 25.2V26ZM17 18C17.55 18 18.021 17.804 18.413 17.412C18.8043 17.0207 19 16.55 19 16C19 15.45 18.8043 14.9793 18.413 14.588C18.021 14.196 17.55 14 17 14C16.45 14 15.9793 14.196 15.588 14.588C15.196 14.9793 15 15.45 15 16C15 16.55 15.196 17.0207 15.588 17.412C15.9793 17.804 16.45 18 17 18Z" fill="black"/>
</g>
</svg>
