<svg width="40" height="40" viewBox="0 0 40 40" fill="none" xmlns="http://www.w3.org/2000/svg">
<rect width="40" height="40" rx="20" fill="#ECEEFE"/>
<mask id="mask0_388_3073" style="mask-type:alpha" maskUnits="userSpaceOnUse" x="8" y="8" width="24" height="24">
<rect x="8" y="8" width="24" height="24" fill="#D9D9D9"/>
</mask>
<g mask="url(#mask0_388_3073)">
<path d="M27.3002 22.2001C26.9335 22.2001 26.6212 22.0708 26.3632 21.8121C26.1045 21.5541 25.9752 21.2418 25.9752 20.8751V19.1501H24.2502C23.8835 19.1501 23.5709 19.0208 23.3122 18.7621C23.0542 18.5041 22.9252 18.1918 22.9252 17.8251C22.9252 17.4584 23.0542 17.1458 23.3122 16.8871C23.5709 16.6291 23.8835 16.5001 24.2502 16.5001H25.9752V14.7751C25.9752 14.4084 26.1045 14.0958 26.3632 13.8371C26.6212 13.5791 26.9335 13.4501 27.3002 13.4501C27.6669 13.4501 27.9795 13.5791 28.2382 13.8371C28.4962 14.0958 28.6252 14.4084 28.6252 14.7751V16.5001H30.3502C30.7169 16.5001 31.0295 16.6291 31.2882 16.8871C31.5462 17.1458 31.6752 17.4584 31.6752 17.8251C31.6752 18.1918 31.5462 18.5041 31.2882 18.7621C31.0295 19.0208 30.7169 19.1501 30.3502 19.1501H28.6252V20.8751C28.6252 21.2418 28.4962 21.5541 28.2382 21.8121C27.9795 22.0708 27.6669 22.2001 27.3002 22.2001ZM17.0752 19.7001C15.8085 19.7001 14.7335 19.2584 13.8502 18.3751C12.9669 17.4918 12.5252 16.4168 12.5252 15.1501C12.5252 13.8834 12.9669 12.8084 13.8502 11.9251C14.7335 11.0418 15.8085 10.6001 17.0752 10.6001C18.3419 10.6001 19.4169 11.0418 20.3002 11.9251C21.1835 12.8084 21.6252 13.8834 21.6252 15.1501C21.6252 16.4168 21.1835 17.4918 20.3002 18.3751C19.4169 19.2584 18.3419 19.7001 17.0752 19.7001ZM9.6252 29.5251C9.25853 29.5251 8.9502 29.4001 8.7002 29.1501C8.4502 28.9001 8.3252 28.5918 8.3252 28.2251V25.9501C8.3252 25.2668 8.48753 24.6501 8.8122 24.1001C9.13753 23.5501 9.5752 23.1334 10.1252 22.8501C11.2252 22.2834 12.3585 21.8584 13.5252 21.5751C14.6919 21.2918 15.8752 21.1501 17.0752 21.1501C18.2752 21.1501 19.4585 21.2918 20.6252 21.5751C21.7919 21.8584 22.9252 22.2834 24.0252 22.8501C24.5752 23.1334 25.0125 23.5501 25.3372 24.1001C25.6625 24.6501 25.8252 25.2668 25.8252 25.9501V28.2251C25.8252 28.5918 25.7002 28.9001 25.4502 29.1501C25.2002 29.4001 24.8919 29.5251 24.5252 29.5251H9.6252ZM10.9752 26.8751H23.1752V25.9501C23.1752 25.7668 23.1462 25.6168 23.0882 25.5001C23.0295 25.3834 22.9502 25.3001 22.8502 25.2501C21.9335 24.8001 20.9795 24.4461 19.9882 24.1881C18.9962 23.9294 18.0252 23.8001 17.0752 23.8001C16.1252 23.8001 15.1542 23.9294 14.1622 24.1881C13.1709 24.4461 12.2169 24.8001 11.3002 25.2501C11.2002 25.3001 11.1209 25.3834 11.0622 25.5001C11.0042 25.6168 10.9752 25.7668 10.9752 25.9501V26.8751ZM17.0752 17.0501C17.6085 17.0501 18.0585 16.8668 18.4252 16.5001C18.7919 16.1334 18.9752 15.6834 18.9752 15.1501C18.9752 14.6168 18.7919 14.1668 18.4252 13.8001C18.0585 13.4334 17.6085 13.2501 17.0752 13.2501C16.5419 13.2501 16.0919 13.4334 15.7252 13.8001C15.3585 14.1668 15.1752 14.6168 15.1752 15.1501C15.1752 15.6834 15.3585 16.1334 15.7252 16.5001C16.0919 16.8668 16.5419 17.0501 17.0752 17.0501Z" fill="#535AF1"/>
</g>
</svg>
