<svg width="48" height="48" viewBox="0 0 48 48" fill="none" xmlns="http://www.w3.org/2000/svg">
<g clip-path="url(#clip0_34001_14204)">
<path d="M48 0H0V48H48V0Z" fill="#ADB0D9"/>
<path d="M29.4635 48H8.10156C8.1774 47.7744 8.25516 47.5498 8.331 47.3251C9.85548 42.8083 10.4497 38.4355 10.5371 33.7008C15.9457 35.0774 21.626 34.487 27.2065 34.4294C29.283 34.4083 28.5851 36.0336 28.612 37.5456C28.6446 39.4358 28.7425 41.3251 28.9057 43.2086C29.044 44.8109 29.2302 46.4093 29.4635 48Z" fill="#ADB0D9"/>
<path d="M29.4635 48H8.10156C8.1774 47.7744 8.25516 47.5498 8.331 47.3251C9.85548 42.8083 10.4497 38.4355 10.5371 33.7008C15.9457 35.0774 21.626 34.487 27.2065 34.4294C29.283 34.4083 28.5851 36.0336 28.612 37.5456C28.6446 39.4358 28.7425 41.3251 28.9057 43.2086C29.044 44.8109 29.2302 46.4093 29.4635 48Z" fill="#E8AE8E"/>
<path d="M14.3136 37.5668C14.3482 37.608 14.3837 37.6493 14.4183 37.6896C14.8637 38.2138 15.312 38.7408 15.8362 39.1872C18.5693 41.5124 22.8231 41.7792 26.1898 42.4359C28.2346 42.8343 30.2813 42.9024 32.2964 42.2852C34.6196 41.5728 36.7037 40.0023 37.8711 37.8711C39.3245 35.2157 39.266 32.0228 39.17 28.9968C39.1152 27.2794 39.0605 25.5629 39.0058 23.8455C38.9712 22.7684 38.9376 21.6903 38.9924 20.6141C39.1268 17.9616 39.8199 15.241 39.2477 12.5972C38.7725 10.4026 36.937 8.11204 34.8884 7.1818C31.6551 5.71396 27.7815 5.32708 24.2832 5.7226C21.7517 6.00868 19.176 6.31204 16.849 7.34596C14.7581 8.27524 12.048 9.46084 10.9316 11.5354C9.51556 14.1658 8.71013 17.2071 8.36741 20.162C8.08421 22.6042 8.13508 25.0858 8.52196 27.5146C8.88772 29.8119 9.49924 31.9018 11.018 33.6884C12.1152 34.9815 13.2144 36.2736 14.3136 37.5668Z" fill="#F4C19F"/>
<path d="M29.5037 30.1008C29.2176 30.1008 28.9824 29.8723 28.9757 29.5853C28.969 29.2934 29.1994 29.0515 29.4912 29.0448C30.8074 29.0141 31.3325 28.633 32.2263 27.8112C31.2048 25.5293 30.6039 23.1082 30.4378 20.6083C30.4186 20.3174 30.6385 20.0659 30.9293 20.0467C31.2183 20.0285 31.4717 20.2474 31.4909 20.5382C31.6541 22.9997 32.2944 25.4813 33.3428 27.7142C33.4407 27.9216 33.3927 28.1683 33.2247 28.3248C32.0016 29.4634 31.2816 30.0595 29.5152 30.0998C29.5124 30.1008 29.5085 30.1008 29.5037 30.1008Z" fill="#1B1464"/>
<path d="M25.2658 25.0007C26.0356 24.9502 26.5908 23.8597 26.5058 22.565C26.4208 21.2704 25.7279 20.2618 24.9581 20.3123C24.1883 20.3628 23.6331 21.4533 23.7181 22.748C23.8031 24.0427 24.496 25.0512 25.2658 25.0007Z" fill="#1B1464"/>
<path d="M35.9318 24.7011C36.7016 24.6506 37.2568 23.5601 37.1718 22.2655C37.0869 20.9708 36.3939 19.9622 35.6241 20.0128C34.8543 20.0633 34.2991 21.1538 34.3841 22.4484C34.4691 23.7431 35.162 24.7517 35.9318 24.7011Z" fill="#1B1464"/>
<path d="M38.3327 20.3377C38.1829 20.3377 38.0332 20.2743 37.9295 20.1505C36.069 17.9501 33.8821 17.9933 33.861 17.9924C33.5663 18.0029 33.3263 17.7725 33.3167 17.4807C33.3071 17.1889 33.5365 16.946 33.8284 16.9364C33.9378 16.9335 36.55 16.8817 38.7369 19.4679C38.925 19.6906 38.8972 20.0237 38.6744 20.2119C38.5736 20.2964 38.4527 20.3377 38.3327 20.3377Z" fill="#1B1464"/>
<path d="M20.2406 21.2074C20.2041 21.2074 20.1676 21.2036 20.1302 21.1959C19.8451 21.1364 19.6627 20.8522 19.7222 20.5671C19.7452 20.4557 20.3568 17.8128 25.7539 16.3104C26.0352 16.2327 26.326 16.3968 26.4038 16.6772C26.4816 16.9584 26.3174 17.2493 26.0371 17.3271C21.335 18.6365 20.76 20.7696 20.7542 20.7908C20.7014 21.0404 20.4844 21.2074 20.2406 21.2074Z" fill="#1B1464"/>
<path d="M29.613 35.5325C29.1954 35.5325 28.7615 35.4711 28.3257 35.3463C27.311 35.0554 26.4028 34.4765 25.6022 33.9658C25.3564 33.8093 25.2844 33.482 25.4409 33.2372C25.5974 32.9914 25.9238 32.9194 26.1695 33.0759C26.9452 33.5712 27.7478 34.0839 28.6146 34.3316C29.5142 34.5888 30.3762 34.5044 30.9801 34.1002C31.222 33.938 31.5503 34.0032 31.7126 34.2452C31.8748 34.4871 31.8095 34.8154 31.5676 34.9776C31.0204 35.3444 30.3426 35.5325 29.613 35.5325Z" fill="#1B1464"/>
<path d="M10.4505 29.0054C10.0847 27.3907 10.4889 25.5648 10.5686 23.9194C10.5791 23.711 10.5974 23.4816 10.7356 23.3347C11.0159 23.0362 11.4739 23.303 11.8521 23.4278C12.5529 23.6582 13.3391 23.2877 13.8028 22.6819C14.35 21.9677 14.5084 21.0019 14.5324 20.0794C14.5459 19.5571 14.5036 19.1117 14.2991 18.6442C14.1753 18.3629 13.9036 17.5622 13.6022 17.4576C14.8377 17.8838 16.3372 17.8128 17.2559 16.8355C17.5305 16.5437 17.7379 16.1875 17.9145 15.8198C18.3839 14.8406 18.8457 13.1021 17.9596 12.2438C18.815 13.105 20.0371 13.727 21.2332 13.4314C22.4534 13.129 23.3798 11.567 22.7923 10.3882C23.4019 11.6755 24.1641 13.0982 25.4774 13.4429C26.9385 13.8269 28.5408 12.3408 28.3852 10.7453C29.0284 12.3619 30.0143 13.9766 31.558 14.591C33.1007 15.2054 35.2156 14.2819 35.374 12.5338C35.3318 12.9926 35.1513 13.4832 35.1743 13.9392C35.2607 15.6384 36.7919 16.9459 38.0755 17.7005C39.3043 18.4224 40.7472 19.2221 42.2217 18.9754C43.6166 18.743 44.3078 17.568 44.5132 16.1597C44.6476 15.2371 44.5881 14.1936 43.9833 13.5178C43.3036 14.5872 42.0403 15.1987 40.8374 15.0422C41.5295 14.6342 42.0451 13.8038 41.9289 12.9706C41.7907 11.9693 40.822 11.5766 40.0195 11.7686C40.8182 10.7453 41.8684 9.984 41.8089 8.46528C41.7427 6.78048 40.3852 5.06304 39.0537 4.30656C38.3596 3.912 37.5465 3.68352 36.7804 3.87264C36.0143 4.06176 35.326 4.74528 35.2655 5.58144C35.0649 3.93984 34.0175 2.5104 32.71 1.61856C31.4025 0.72672 29.855 0.31392 28.3151 0.0988796C27.3302 -0.0393604 26.2828 -0.0921604 25.39 0.37152C24.4972 0.8352 23.8415 1.9728 24.1814 2.96736C23.0323 1.16928 20.9654 0.21024 18.9283 0.0748796C16.8912 -0.0604804 14.8713 0.53472 12.9667 1.31808C12.2419 1.61664 11.4873 1.97664 11.0515 2.66208C10.1097 4.14432 11.1417 6.11712 12.2179 7.48992C11.5766 6.08064 9.84955 5.75616 8.38075 5.72448C6.84955 5.69184 5.01403 5.98656 4.37275 7.4688C3.67675 9.07584 4.87867 10.8442 5.99899 12.1488C4.34299 11.4086 2.19642 12.841 2.09754 14.7523C1.99866 16.6637 3.98394 18.3398 5.70714 17.7974C5.28954 17.232 4.35931 17.4528 3.98971 18.0557C3.62011 18.6576 3.67194 19.4467 3.82554 20.1475C4.07418 21.287 4.55706 22.368 5.22906 23.2934C5.7465 24.0058 6.88891 24.577 7.31131 23.7965C6.09019 23.9155 4.98331 24.8938 4.64731 26.1514C4.31131 27.408 4.76923 28.8624 5.74843 29.6486C6.18331 29.9981 6.74491 30.2237 7.27387 30.0874C7.80283 29.951 8.24058 29.3616 8.10714 28.799C7.57626 28.5619 6.94363 29.0131 6.76699 29.5968C6.59035 30.1805 6.75834 30.8208 7.00506 31.3747C7.44954 32.3741 8.15611 33.2381 9.02298 33.8448C9.21979 33.9821 9.44443 34.1117 9.67675 34.0762C10.031 34.0224 10.2345 33.624 10.3535 33.265C10.8278 31.8384 10.774 30.4474 10.4505 29.0054Z" fill="#444DF2"/>
<path d="M11.1436 19.3872C10.5301 18.6624 9.67285 18.1796 8.50261 18.1527C6.78325 18.1133 5.13686 19.298 4.51478 20.9021C3.5135 23.4855 5.18774 26.6381 7.4447 27.9706C9.44918 29.1533 11.8021 28.464 12.3868 26.1245C12.646 25.0868 12.5442 23.9981 12.4396 22.9335C12.3148 21.6509 11.9308 20.3184 11.1436 19.3872Z" fill="#F4C19F"/>
<path d="M7.37544 25.8115C7.10472 25.8115 6.87432 25.6042 6.85032 25.3296C6.77256 24.4349 7.12297 23.8973 7.43017 23.6035C7.98985 23.0688 8.80681 22.9296 9.39913 22.9075C9.30985 22.705 9.17929 22.536 9.00553 22.3978C8.21641 21.7699 6.79753 21.9639 6.78313 21.9658C6.49513 22.0109 6.22537 21.8112 6.18217 21.5232C6.13801 21.2352 6.33673 20.9655 6.62473 20.9223C6.70057 20.9107 8.50345 20.6506 9.66217 21.5712C10.217 22.0128 10.53 22.6349 10.5905 23.4192C10.603 23.5776 10.5425 23.7341 10.4273 23.8435C10.3111 23.953 10.1527 24.0039 9.99432 23.9837C9.64296 23.9386 8.62632 23.9194 8.15784 24.3687C7.9524 24.5664 7.86888 24.8506 7.90248 25.2384C7.92744 25.5293 7.7124 25.7847 7.42248 25.8106C7.40616 25.8106 7.3908 25.8115 7.37544 25.8115Z" fill="#EAAA7F"/>
<path d="M28.2662 42.9907C28.1174 42.9907 25.6387 42.9773 22.4621 42.1546C19.4861 41.3837 15.3254 39.7229 12.4089 36.192C12.2237 35.9674 12.2553 35.6343 12.48 35.449C12.7046 35.2637 13.0377 35.2954 13.223 35.52C15.9533 38.8253 19.8835 40.392 22.6992 41.1255C25.7779 41.9271 28.2374 41.9347 28.2681 41.9347C28.56 41.9347 28.7961 42.1709 28.7961 42.4618C28.7961 42.7536 28.5609 42.9898 28.2691 42.9907C28.2691 42.9907 28.2681 42.9907 28.2662 42.9907Z" fill="#1B1464"/>
</g>
<defs>
<clipPath id="clip0_34001_14204">
<rect width="48" height="48" rx="24" fill="white"/>
</clipPath>
</defs>
</svg>
