<svg width="48" height="48" viewBox="0 0 48 48" fill="none" xmlns="http://www.w3.org/2000/svg">
<g clip-path="url(#clip0_34001_14187)">
<path d="M48 0H0V48H48V0Z" fill="#ADB0D9"/>
<path d="M35.8944 13.0368C36.0768 12.3648 36.5664 11.7216 36.4416 11.04C36.3456 10.512 36.1248 9.96485 36.192 9.41765C36.24 9.01445 36.8448 7.80485 37.3728 7.94885C37.584 8.00645 37.6896 8.24645 37.7568 8.44805C38.1408 9.55205 38.448 10.4928 38.5728 11.6736C38.6976 12.864 38.7264 14.064 38.6784 15.264C38.6496 16.0032 38.5824 16.752 38.2848 17.424C38.0256 18.0192 37.584 18.5377 37.0464 18.8928C36.8928 18.5569 36.5664 18.3456 36.3264 18.0672C35.9424 17.6352 35.76 17.0688 35.6544 16.5024C35.6544 15.3024 35.5776 14.2272 35.8944 13.0368Z" fill="#444DF2"/>
<path d="M34.7809 24C34.5889 23.2128 34.6657 22.3872 34.7425 21.5808C34.8385 20.6112 35.1265 19.6032 35.7217 18.8928C36.1825 18.3456 36.8353 17.9808 37.7185 17.9616C38.3041 17.952 39.1489 18.096 39.4849 18.624C39.8305 19.1808 39.9169 20.112 39.8689 20.736C39.8017 21.5808 39.4561 22.3584 39.1201 23.1168C38.7553 23.952 38.2753 25.7472 37.1617 25.824C36.0001 25.9104 35.0497 25.0848 34.7809 24Z" fill="#F5B18F"/>
<path d="M28.5983 48H7.23828C7.31508 47.6736 7.39188 47.3472 7.46868 47.0208C8.99508 40.4736 9.59028 34.128 9.67668 27.264C15.0815 29.2608 20.7647 28.4064 26.3423 28.32C28.4159 28.2912 27.7247 30.6432 27.7439 32.8416C27.7727 35.5872 27.8783 38.3232 28.0415 41.0496C28.1759 43.3728 28.3679 45.696 28.5983 48Z" fill="#F5B18F"/>
<path d="M38.0063 15.552C37.7855 18.2976 37.4495 21.0432 37.2671 23.7984C37.1903 25.0176 37.1423 26.2272 37.1423 27.4464C37.1519 31.2096 37.6031 35.2896 35.5295 38.4288C34.0031 40.7328 31.3055 42.0864 28.5599 42.4416C26.5727 42.7008 24.5855 42.4608 22.6463 42.0288C19.6223 41.3664 16.5215 40.1568 13.9583 38.2848C12.3839 37.1328 11.0207 35.7312 10.0127 34.0416C9.04315 32.4288 8.46714 30.6144 8.16954 28.7424C8.01594 27.7536 7.93914 26.7456 7.92954 25.7376C7.91034 23.8656 8.10235 21.9936 8.37115 20.1408C8.75515 17.4912 9.12955 14.688 10.6367 12.4032C12.0479 10.272 14.1407 8.61123 16.4735 7.58403C20.3711 5.87523 24.7775 5.76003 29.0303 6.01923C30.5375 6.11523 32.0543 6.24963 33.4847 6.72963C34.9151 7.20963 36.2591 8.06403 37.0751 9.32163C38.2367 11.1168 38.1791 13.4208 38.0063 15.552Z" fill="#FEC29B"/>
<path d="M23.162 25.0046C23.9292 24.9542 24.4821 23.8626 24.3971 22.5663C24.312 21.2701 23.6211 20.2601 22.8539 20.3104C22.0868 20.3608 21.5338 21.4524 21.6189 22.7487C21.704 24.0449 22.3949 25.0549 23.162 25.0046Z" fill="#1B1464"/>
<path d="M32.1972 23.7467C32.9644 23.6964 33.5173 22.6048 33.4322 21.3085C33.3471 20.0123 32.6562 19.0023 31.8891 19.0526C31.1219 19.103 30.569 20.1946 30.6541 21.4909C30.7391 22.7871 31.43 23.7971 32.1972 23.7467Z" fill="#1B1464"/>
<path d="M20.5842 18.3091C21.0374 18.0394 21.7602 17.7869 22.486 17.7408C23.2156 17.6947 23.8463 17.8598 24.2466 18.2918L25.0214 17.5738C24.3186 16.8154 23.3116 16.6301 22.4188 16.6867C21.5222 16.7434 20.637 17.0486 20.0438 17.4019L20.5842 18.3091ZM24.2466 18.2918C24.4454 18.5059 24.7794 18.5184 24.9926 18.3197C25.2066 18.121 25.2191 17.7869 25.0204 17.5738L24.2466 18.2918ZM20.0428 17.4029C19.7922 17.5526 19.7106 17.8762 19.8594 18.1267C20.0092 18.3773 20.3327 18.4589 20.5833 18.3101L20.0428 17.4029Z" fill="#1B1464"/>
<path d="M31.9873 17.1648C32.2436 17.6266 32.2426 17.6266 32.2426 17.6266C32.2426 17.6266 32.2436 17.6266 32.2445 17.6256C32.2465 17.6247 32.2513 17.6218 32.258 17.6189C32.2705 17.6122 32.2916 17.6016 32.3194 17.5882C32.3751 17.5613 32.4586 17.5238 32.5633 17.4826C32.7754 17.399 33.0653 17.3059 33.3869 17.2589C34.0301 17.1648 34.7252 17.2589 35.2455 17.9011L36.0653 17.2358C35.2225 16.1971 34.0839 16.0906 33.2343 16.2144C32.81 16.2768 32.4385 16.3968 32.1764 16.5005C32.0439 16.5523 31.9364 16.6013 31.8615 16.6378C31.8231 16.656 31.7933 16.6714 31.7722 16.6829C31.7617 16.6886 31.753 16.6934 31.7463 16.6963C31.7434 16.6982 31.7405 16.6992 31.7386 16.7011C31.7377 16.7021 31.7367 16.7021 31.7357 16.703C31.7357 16.703 31.7348 16.703 31.7348 16.704C31.7319 16.703 31.7309 16.703 31.9873 17.1648ZM35.2445 17.9011C35.4279 18.1277 35.761 18.1623 35.9876 17.9789C36.2141 17.7955 36.2487 17.4624 36.0653 17.2358L35.2445 17.9011ZM31.7309 16.703C31.4756 16.8442 31.3834 17.1658 31.5255 17.4211C31.6666 17.6765 31.9882 17.7687 32.2436 17.6266L31.7309 16.703Z" fill="#1B1464"/>
<path d="M22.5215 33.1661C24.1535 34.7261 26.4997 35.497 28.7375 35.2282L28.6117 34.1798C26.6831 34.4112 24.6517 33.7421 23.2501 32.4019L22.5215 33.1661ZM28.7375 35.2282C29.0274 35.1936 29.2338 34.9306 29.1993 34.6406C29.1647 34.3507 28.9017 34.1443 28.6117 34.1789L28.7375 35.2282ZM23.2511 32.4019C23.0399 32.2003 22.7058 32.208 22.5042 32.4192C22.3026 32.6304 22.3103 32.9645 22.5215 33.1661L23.2511 32.4019Z" fill="#1B1464"/>
<path d="M37.9105 10.0512C37.1137 12.4416 33.4177 12.8544 31.3057 13.0848C28.0897 13.44 25.2289 12.72 22.1377 12C21.7345 11.904 16.5217 10.6272 16.5217 10.6272C16.2529 13.296 15.6481 15.6576 14.0257 17.7984C13.3249 18.72 13.9393 19.872 13.8337 21.0816C13.7089 22.6272 13.6609 24.5088 13.1809 25.9872C13.1233 26.1792 12.9409 26.3424 12.7393 26.3136C12.4609 26.2752 12.3745 25.9392 12.2689 25.68C12.0289 25.0752 11.3473 24.528 10.6753 24.816C10.0417 25.0944 9.72488 26.0832 9.39848 26.6304C9.09128 27.1488 8.61128 27.5904 8.43848 28.1664C8.38088 28.3584 8.36168 28.56 8.27528 28.7424C8.18888 28.9248 8.01608 29.088 7.81448 29.088C7.67048 29.088 7.53608 28.992 7.43048 28.896C6.38408 27.9936 6.21128 26.8032 5.85608 25.5744C5.45288 24.1344 5.28967 22.6464 5.14567 21.168C5.05927 20.208 4.98247 19.2384 4.85767 18.2784C4.75207 17.4432 4.52168 16.6176 4.51208 15.7728C4.47368 13.0464 5.04008 10.2816 6.37448 7.91999C8.12168 4.84799 11.6833 3.22559 14.8801 2.38079C20.1409 0.998394 25.3921 1.75679 30.5089 3.38879C32.5729 4.05119 38.8897 7.14239 37.9105 10.0512Z" fill="#444DF2"/>
<path d="M30.2112 24.6268C29.7888 24.2428 29.4893 24.0249 29.2656 23.7302C29.0832 23.4883 28.9815 23.2223 29.0525 22.7894L28.0099 22.6185C27.889 23.3567 28.08 23.9116 28.4227 24.3657C28.7251 24.766 29.1831 25.1193 29.5008 25.4083L30.2112 24.6268ZM31.1232 26.7043C31.1472 25.9123 30.7853 25.1423 30.2093 24.6249L29.5037 25.4102C29.8685 25.7375 30.0816 26.2156 30.0682 26.6716L31.1232 26.7043ZM26.0976 28.5753C26.9482 29.0678 28.1194 29.3452 29.1283 29.1446C29.6429 29.0428 30.1392 28.8105 30.5136 28.391C30.8919 27.9676 31.1031 27.3993 31.1223 26.7023L30.0663 26.6726C30.0519 27.166 29.9088 27.4819 29.7245 27.6883C29.5373 27.8985 29.2666 28.0406 28.921 28.1087C28.2115 28.2499 27.2995 28.0521 26.6237 27.6604L26.0976 28.5753ZM29.0525 22.7894C29.0995 22.5014 28.9047 22.2297 28.6167 22.1827C28.3287 22.1356 28.057 22.3305 28.0099 22.6185L29.0525 22.7894ZM29.856 25.0175L29.5008 25.4083C29.5018 25.4092 29.5027 25.4102 29.5037 25.4102L29.856 25.0175ZM30.5952 26.6879L30.0672 26.6716V26.6726L30.5952 26.6879ZM26.6256 27.6614C26.3731 27.5155 26.0506 27.6019 25.9037 27.8543C25.7578 28.1068 25.8442 28.4294 26.0967 28.5763L26.6256 27.6614Z" fill="#1B1464"/>
<path d="M11.1456 19.3824C10.5312 18.6528 9.67679 18.1728 8.50559 18.144C6.78719 18.1056 5.13599 19.2864 4.52159 20.8896C3.52319 23.472 5.19359 26.6304 7.44959 27.9552C9.45599 29.136 11.808 28.4448 12.3936 26.112C12.6528 25.0752 12.5472 23.9808 12.4512 22.9248C12.3168 21.648 11.9328 20.3232 11.1456 19.3824Z" fill="#FEC29B"/>
<path d="M10.0608 23.4624C10.1308 22.9392 10.1299 22.9392 10.1299 22.9392C10.1299 22.9392 10.1299 22.9392 10.1289 22.9392H10.128C10.127 22.9392 10.126 22.9392 10.1251 22.9392C10.1222 22.9392 10.1193 22.9382 10.1155 22.9382C10.1078 22.9373 10.0972 22.9363 10.0848 22.9344C10.0588 22.9315 10.0233 22.9277 9.9782 22.9248C9.88892 22.9181 9.76412 22.9104 9.61628 22.9094C9.32348 22.9075 8.92028 22.9305 8.51228 23.0361C8.10812 23.1408 7.65404 23.3385 7.31612 23.7206C6.9638 24.1181 6.78812 24.6576 6.84668 25.3325L7.89885 25.2413C7.86141 24.8121 7.97372 24.5712 8.10716 24.4205C8.255 24.2534 8.4854 24.1334 8.77724 24.0585C9.06524 23.9837 9.36956 23.9645 9.61148 23.9654C9.73052 23.9664 9.82845 23.9721 9.89661 23.9769C9.93021 23.9798 9.95612 23.9817 9.97244 23.9837C9.98108 23.9846 9.98684 23.9856 9.98972 23.9856C9.99164 23.9856 9.9926 23.9856 9.9926 23.9856C9.99068 23.9856 9.99068 23.9856 10.0608 23.4624ZM6.70076 21.4464C6.77948 21.9686 6.77948 21.9686 6.77948 21.9686C6.77948 21.9686 6.7814 21.9686 6.78332 21.9677C6.78716 21.9667 6.79388 21.9667 6.80252 21.9648C6.82076 21.9629 6.84956 21.959 6.88796 21.9552C6.9638 21.9475 7.07516 21.9398 7.21052 21.9369C7.48316 21.9312 7.83836 21.9485 8.18876 22.031C8.54108 22.1136 8.85884 22.2557 9.09308 22.4765C9.3158 22.6877 9.49628 23.0006 9.53564 23.5008L10.5888 23.4201C10.5312 22.6733 10.2441 22.1097 9.81885 21.7085C9.40509 21.3177 8.89436 21.1113 8.43164 21.0019C7.96604 20.8925 7.51677 20.8733 7.19037 20.88C7.02525 20.8829 6.88796 20.8934 6.79004 20.9021C6.74108 20.9069 6.70172 20.9117 6.67388 20.9145C6.65948 20.9165 6.64892 20.9174 6.64028 20.9193C6.63644 20.9203 6.6326 20.9203 6.62972 20.9203C6.62876 20.9203 6.62685 20.9203 6.62685 20.9213H6.62588C6.62588 20.9213 6.62588 20.9213 6.62492 20.9213C6.62204 20.9241 6.62204 20.9241 6.70076 21.4464ZM6.84668 25.3325C6.87164 25.6233 7.12797 25.8384 7.41885 25.8125C7.70973 25.7875 7.92477 25.5312 7.89885 25.2403L6.84668 25.3325ZM10.0608 23.4624L9.99068 23.9856C10.1481 24.0067 10.3075 23.9549 10.4236 23.8454C10.5398 23.736 10.5993 23.5805 10.5868 23.4211L10.0608 23.4624ZM6.62204 20.9241C6.33404 20.9683 6.13532 21.2371 6.17948 21.5251C6.22364 21.8131 6.49244 22.0118 6.78044 21.9677L6.62204 20.9241Z" fill="#F4AC7D"/>
<path d="M27.48 41.857C23.5036 42.0346 18.7881 40.8125 15.4992 38.6141L14.9126 39.4915C18.4012 41.8243 23.3433 43.0982 27.527 42.911L27.48 41.857ZM15.5001 38.6141C15.2572 38.4518 14.9299 38.5171 14.7676 38.76C14.6054 39.0029 14.6707 39.3302 14.9136 39.4925L15.5001 38.6141ZM27.528 42.911C27.8188 42.8976 28.0444 42.6509 28.032 42.36C28.0195 42.0691 27.7718 41.8435 27.4809 41.856L27.528 42.911Z" fill="#1B1464"/>
</g>
<defs>
<clipPath id="clip0_34001_14187">
<rect width="48" height="48" rx="24" fill="white"/>
</clipPath>
</defs>
</svg>
