<svg width="48" height="48" viewBox="0 0 48 48" fill="none" xmlns="http://www.w3.org/2000/svg">
<g clip-path="url(#clip0_34001_14169)">
<path d="M48 0H0V48H48V0Z" fill="#444DF2"/>
<path d="M38.3807 28.5216C38.8415 29.5776 39.5807 30.4896 40.1471 31.488C40.7135 32.4864 41.0975 33.6864 40.7807 34.7904C41.0591 34.8576 41.2799 34.5408 41.3855 34.272C41.9999 32.6304 41.3375 29.952 40.7423 28.3584C39.9839 26.3136 38.3519 24.5472 38.2655 22.368C37.5359 24.3072 37.5359 26.6112 38.3807 28.5216Z" fill="#797EF3"/>
<path d="M37.1713 7.0752C38.4769 8.6592 39.4945 10.5984 39.4561 12.6528C39.4369 13.3728 39.2929 14.0736 39.1489 14.7744C38.8513 16.2144 38.5537 17.6448 38.2561 19.0848C38.1793 19.44 38.1121 19.7952 37.9201 20.1024C37.4785 20.8224 36.4705 21.0528 35.6833 20.7648C34.8961 20.4768 34.3105 19.7568 34.0033 18.9792C33.5233 17.7888 33.5809 16.4256 33.9361 15.1968C34.2913 13.9584 34.9249 12.8256 35.5777 11.7216C36.0673 10.896 36.5857 10.0608 37.3537 9.4848L37.1713 7.0752Z" fill="#797EF3"/>
<path d="M29.6543 48H19.3631C19.3535 48 19.3535 48 19.3439 48C17.6063 47.9136 15.8495 47.9712 14.1023 47.9904C13.7567 47.9904 13.4111 48 13.0559 48C13.1231 47.7696 13.1903 47.5488 13.2479 47.328C14.3423 43.536 14.8703 39.8592 15.0623 35.9712C15.1007 35.2224 15.1199 34.464 15.1391 33.7056C15.3983 33.7824 15.6575 33.8496 15.9263 33.9168C15.9839 33.936 16.0319 33.9456 16.0895 33.9552C16.5311 34.0608 16.9727 34.1568 17.4239 34.224C21.3407 34.896 25.3823 34.4736 29.3663 34.4256C30.9407 34.4064 30.2207 37.488 29.5967 39.8976C29.5967 39.9072 29.5871 39.9168 29.5871 39.9264C29.3087 40.9728 29.0591 41.8944 29.0207 42.3744C28.8767 44.2656 29.0207 46.224 29.6543 48Z" fill="#E8C5AA"/>
<path d="M33.1679 8.43846C32.2559 7.78566 31.1615 7.37286 29.9999 6.96966C24.8351 5.17446 18.4607 5.71206 14.4383 9.72486C12.9023 11.2513 11.7983 13.1905 11.2127 15.2833C10.5791 17.5393 10.9055 19.5361 11.0495 21.8113C11.2703 25.4209 11.8367 29.2417 14.1791 31.9969C18.1439 36.6625 24.3839 39.5905 30.4607 39.9841C32.3519 40.1089 34.4543 39.8593 36.0863 38.8417C37.0655 38.2273 37.8719 37.2865 38.2559 36.1825C38.5151 35.4337 38.3999 34.5793 38.5343 33.7921C38.7935 32.2369 39.3311 30.7489 39.5231 29.1841C39.7247 27.5329 39.6863 25.8625 39.5423 24.2113C39.4559 23.1937 39.4271 22.1473 39.1583 21.1585C38.8895 20.1601 38.3807 19.2673 38.0735 18.2689C37.4591 16.2625 36.8831 14.0641 35.9327 12.1921C35.2607 10.8769 34.3775 9.29286 33.1679 8.43846Z" fill="#F4D3B8"/>
<path d="M31.088 22.5442C31.8367 22.3696 32.2045 21.2025 31.9095 19.9374C31.6145 18.6723 30.7684 17.7883 30.0197 17.9629C29.271 18.1375 28.9032 19.3046 29.1982 20.5697C29.4932 21.8347 30.3393 22.7187 31.088 22.5442Z" fill="#1B1464"/>
<path d="M36.6826 20.1005C37.2711 19.9632 37.5619 19.0522 37.3325 18.0662C37.1031 17.0803 36.4387 16.392 35.8503 16.5293C35.2618 16.6666 34.9709 17.5776 35.2013 18.5635C35.4307 19.5494 36.0941 20.2378 36.6826 20.1005Z" fill="#1B1464"/>
<path d="M38.0044 23.9068C38.1493 24.0806 38.1791 24.3955 37.9708 24.9283C37.7749 25.4294 37.438 25.9363 37.1864 26.303L38.0581 26.8992C38.3058 26.5372 38.709 25.9401 38.9538 25.3123C39.1871 24.7171 39.3599 23.88 38.8146 23.2281L38.0044 23.9068ZM35.9807 23.0928C36.3772 23.2857 36.8917 23.3961 37.221 23.495C37.6012 23.6083 37.8508 23.7273 38.0101 23.9126L38.8108 23.2243C38.4421 22.7952 37.9381 22.607 37.5234 22.4832C37.0578 22.344 36.7372 22.2864 36.4424 22.1433L35.9807 23.0928ZM33.7688 20.1792C33.9608 21.4905 34.8488 22.5379 35.9788 23.0918L36.4434 22.1433C35.5765 21.718 34.9477 20.9414 34.8133 20.0256L33.7688 20.1792ZM37.1864 26.303C37.0213 26.544 37.0837 26.8723 37.3237 27.0364C37.5637 27.2006 37.893 27.1392 38.0572 26.8992L37.1864 26.303ZM38.4095 23.568L38.8146 23.2291C38.8127 23.2272 38.8117 23.2252 38.8098 23.2243L38.4095 23.568ZM36.2111 22.6176L35.9788 23.0918C35.9797 23.0918 35.9797 23.0928 35.9807 23.0928L36.2111 22.6176ZM34.8133 20.0256C34.7711 19.7366 34.5032 19.5379 34.2143 19.5801C33.9253 19.6224 33.7266 19.8902 33.7688 20.1792L34.8133 20.0256Z" fill="#1B1464"/>
<path d="M31.7185 31.151C33.2794 31.0377 35.1706 30.8879 36.5425 29.7321L35.8618 28.9247C34.7953 29.8233 33.2689 29.9807 31.6426 30.0979L31.7185 31.151ZM29.185 31.0819C30.0509 31.2739 30.9351 31.2076 31.7185 31.151L31.6426 30.0979C30.8324 30.1564 30.1037 30.2044 29.4145 30.0518L29.185 31.0819ZM36.1249 31.7011C33.9629 32.5939 31.2442 31.9593 29.6938 30.216L28.9047 30.9177C30.7527 32.9952 33.9476 33.743 36.5281 32.6774L36.1249 31.7011ZM36.5415 29.7321C36.7642 29.5439 36.793 29.2108 36.6049 28.9881C36.4167 28.7654 36.0836 28.7366 35.8609 28.9247L36.5415 29.7321ZM29.2993 30.5663L29.4135 30.0508C29.1898 30.0009 28.9594 30.1017 28.8433 30.2985C28.7271 30.4963 28.7521 30.7459 28.9037 30.9167L29.2993 30.5663ZM36.5281 32.6764C36.7978 32.5651 36.9255 32.256 36.8141 31.9872C36.7028 31.7174 36.3937 31.5897 36.1249 31.7011L36.5281 32.6764Z" fill="#1B1464"/>
<path d="M27.5722 16.032C26.6957 16.4333 25.8442 17.1293 25.4419 18.0951L26.4163 18.5011C26.6861 17.8531 27.2938 17.3203 28.0109 16.993L27.5722 16.032ZM31.0061 15.6106C29.7859 15.3667 28.7232 15.5088 27.5741 16.032L28.0109 16.993C28.9728 16.5552 29.8109 16.4487 30.7997 16.6464L31.0061 15.6106ZM25.4419 18.0941C25.3296 18.3629 25.4573 18.672 25.7261 18.7843C25.9949 18.8967 26.304 18.769 26.4163 18.5002L25.4419 18.0941ZM27.792 16.512L27.5731 16.0311C27.5731 16.0311 27.5722 16.0311 27.5722 16.032L27.792 16.512ZM30.7987 16.6455C31.0848 16.7031 31.3632 16.5168 31.4198 16.2317C31.4774 15.9456 31.2912 15.6672 31.0061 15.6106L30.7987 16.6455Z" fill="#1B1464"/>
<path d="M34.6464 14.6496C34.8 15.1546 34.8 15.1546 34.799 15.1546C34.799 15.1546 34.799 15.1546 34.8 15.1546C34.801 15.1546 34.8038 15.1536 34.8067 15.1527C34.8134 15.1508 34.8259 15.1469 34.8422 15.1431C34.8749 15.1344 34.9238 15.1229 34.9872 15.1095C35.1139 15.0826 35.2925 15.0528 35.4941 15.0394C35.9146 15.0106 36.3552 15.0596 36.6749 15.266L37.248 14.3789C36.6451 13.9901 35.929 13.9517 35.424 13.9863C35.1629 14.0036 34.9344 14.042 34.7722 14.0765C34.6906 14.0938 34.6243 14.1101 34.5763 14.1216C34.5523 14.1274 34.5341 14.1332 34.5197 14.137C34.513 14.1389 34.5072 14.1408 34.5034 14.1418C34.5014 14.1428 34.4995 14.1428 34.4976 14.1437C34.4966 14.1437 34.4966 14.1437 34.4957 14.1447H34.4947C34.4928 14.1447 34.4928 14.1447 34.6464 14.6496ZM36.6739 15.266C36.9187 15.4244 37.2461 15.3543 37.4035 15.1085C37.561 14.8628 37.4918 14.5364 37.2461 14.3789L36.6739 15.266ZM34.4928 14.1447C34.2134 14.2292 34.056 14.5239 34.1405 14.8032C34.225 15.0826 34.5197 15.24 34.799 15.1556L34.4928 14.1447Z" fill="#1B1464"/>
<path d="M29.5487 10.9632C29.7215 11.184 29.9039 11.4048 30.0863 11.616C31.3727 13.104 33.1007 13.0464 34.9439 13.2384C36.3167 13.3728 37.7855 13.7376 38.6303 14.832C39.3215 15.7344 39.4367 16.9728 39.2639 18.096C39.1967 18.5664 39.0815 19.0272 39.0335 19.4976C38.8799 21.0048 39.4367 22.5408 40.4159 23.6832C41.3951 24.8352 42.7871 25.6032 44.2463 25.9584C43.4783 25.2672 42.7007 24.5664 42.1247 23.6928C41.4719 22.6944 41.1167 21.5136 41.1263 20.3232C41.1359 19.104 41.5103 17.9136 41.7599 16.7232C42.3167 14.064 42.1439 11.28 41.3951 8.67837C40.7711 6.52797 39.6959 3.57116 37.6895 2.33276C36.0383 1.30556 34.2431 0.787165 32.2751 0.940765C30.6047 1.07516 28.9247 1.85276 27.9743 3.24476C26.3423 5.63517 27.9743 8.93756 29.5487 10.9632Z" fill="#797EF3"/>
<path d="M29.0399 6.6624C28.8959 6.768 28.7519 6.864 28.6079 6.96C28.4159 7.0848 28.2239 7.2096 28.0319 7.3248C27.9071 7.4016 27.7823 7.4784 27.6575 7.5552C25.7279 8.784 23.7887 10.0128 22.0319 11.4816C20.9183 12.4128 19.8815 13.4208 18.8639 14.448C18.4031 14.9088 17.8079 15.3312 17.3951 15.8208C16.9919 16.3008 17.0015 16.8096 16.9343 17.4336C16.9247 17.5296 16.9151 17.6352 16.8959 17.7312C16.5311 20.8704 16.1663 24.0096 15.7919 27.1392C15.5231 29.4048 15.7535 31.5936 15.9071 33.7824C15.9071 33.8208 15.9167 33.8592 15.9167 33.8976C15.9935 35.1072 16.0511 36.3168 15.9839 37.5552C15.9647 37.9104 15.9359 38.2656 15.8879 38.6208C15.7343 39.9456 15.5711 41.2608 15.4175 42.5856C15.2159 44.2944 15.0047 46.0416 14.2847 47.6064C14.2271 47.7312 14.1599 47.8656 14.0927 47.9904H4.9919C4.7711 47.7984 4.5695 47.6064 4.4255 47.376C3.8591 46.4544 4.1375 44.784 4.4831 43.8432C4.8575 42.8544 5.5103 41.9904 5.9615 41.04C6.4127 40.08 6.6335 38.9088 6.1247 37.9872C5.9039 37.584 5.5679 37.2672 5.2895 36.9024C4.0511 35.2128 4.4735 32.8608 5.0783 30.8544C5.6831 28.848 6.4223 26.6784 5.6735 24.72C5.3183 23.7984 4.6559 23.0208 4.2431 22.1184C3.1199 19.6416 4.0799 16.6848 5.5967 14.4288C6.2207 13.4976 6.9407 12.6144 7.3439 11.568C7.7855 10.4256 7.8143 9.168 7.9967 7.9584C8.1791 6.7488 8.5823 5.4816 9.5519 4.7232C10.3487 4.0992 11.3663 3.9456 12.2975 3.6096C13.2479 3.264 14.0255 2.6784 14.8799 2.16C16.8671 0.960003 19.1327 0.297603 21.4559 0.259203C23.1551 0.240003 24.8543 0.528003 26.4671 1.0464C27.4847 1.3728 28.1087 1.7856 28.7039 2.3904C29.0111 2.7072 29.3183 3.0816 29.6639 3.5136C29.9231 3.84 30.1823 4.176 30.2591 4.5792C30.4127 5.4336 29.7599 6.1344 29.0399 6.6624Z" fill="#797EF3"/>
<path d="M12.9791 19.3824C12.3647 18.6528 11.5103 18.1728 10.3391 18.144C8.62069 18.1056 6.96949 19.2864 6.35509 20.8896C5.35669 23.472 7.02709 26.6304 9.28309 27.9552C11.2895 29.136 13.6415 28.4448 14.2271 26.112C14.4863 25.0752 14.3807 23.9808 14.2847 22.9248C14.1503 21.648 13.7663 20.3232 12.9791 19.3824Z" fill="#F4D3B8"/>
<path d="M11.904 23.4624C11.9741 22.9392 11.9731 22.9392 11.9731 22.9392C11.9731 22.9392 11.9731 22.9392 11.9722 22.9392H11.9712C11.9703 22.9392 11.9693 22.9392 11.9683 22.9392C11.9655 22.9392 11.9626 22.9382 11.9587 22.9382C11.9511 22.9373 11.9405 22.9363 11.928 22.9344C11.9021 22.9315 11.8666 22.9277 11.8215 22.9248C11.7322 22.9181 11.6074 22.9104 11.4595 22.9094C11.1667 22.9075 10.7635 22.9305 10.3555 23.0361C9.95138 23.1408 9.4973 23.3385 9.15938 23.7206C8.80706 24.1181 8.63138 24.6576 8.68994 25.3325L9.7421 25.2413C9.70466 24.8121 9.81698 24.5712 9.95042 24.4205C10.0983 24.2534 10.3287 24.1334 10.6205 24.0585C10.9085 23.9837 11.2128 23.9645 11.4547 23.9654C11.5738 23.9664 11.6717 23.9721 11.7399 23.9769C11.7735 23.9798 11.7994 23.9817 11.8157 23.9837C11.8243 23.9846 11.8301 23.9856 11.833 23.9856C11.8349 23.9856 11.8359 23.9856 11.8359 23.9856C11.8339 23.9856 11.8339 23.9856 11.904 23.4624ZM8.54402 21.4464C8.62274 21.9686 8.62274 21.9686 8.62274 21.9686C8.62274 21.9686 8.62466 21.9686 8.62658 21.9677C8.63042 21.9667 8.63714 21.9667 8.64578 21.9648C8.66402 21.9629 8.69282 21.959 8.73122 21.9552C8.80706 21.9475 8.91842 21.9398 9.05378 21.9369C9.32642 21.9312 9.68162 21.9485 10.032 22.031C10.3843 22.1136 10.7021 22.2557 10.9363 22.4765C11.1591 22.6877 11.3395 23.0006 11.3789 23.5008L12.432 23.4201C12.3744 22.6733 12.0874 22.1097 11.6621 21.7085C11.2483 21.3177 10.7376 21.1113 10.2749 21.0019C9.8093 20.8925 9.36002 20.8733 9.03362 20.88C8.8685 20.8829 8.73122 20.8934 8.6333 20.9021C8.58434 20.9069 8.54498 20.9117 8.51714 20.9145C8.50274 20.9165 8.49218 20.9174 8.48354 20.9193C8.4797 20.9203 8.47586 20.9203 8.47298 20.9203C8.47202 20.9203 8.4701 20.9203 8.4701 20.9213H8.46914C8.46914 20.9213 8.46914 20.9213 8.46818 20.9213C8.4653 20.9241 8.4653 20.9241 8.54402 21.4464ZM8.68994 25.3325C8.7149 25.6233 8.97122 25.8384 9.2621 25.8125C9.55298 25.7875 9.76802 25.5312 9.7421 25.2403L8.68994 25.3325ZM11.904 23.4624L11.8339 23.9856C11.9914 24.0067 12.1507 23.9549 12.2669 23.8454C12.3831 23.736 12.4426 23.5805 12.4301 23.4211L11.904 23.4624ZM8.4653 20.9241C8.1773 20.9683 7.97858 21.2371 8.02274 21.5251C8.0669 21.8131 8.3357 22.0118 8.6237 21.9677L8.4653 20.9241Z" fill="#EABC97"/>
<path d="M14.2369 13.1425C14.8225 11.5009 15.8017 9.94566 16.8001 8.54406C17.7697 7.17126 19.0849 6.04806 20.5921 5.29926C22.0033 4.60806 23.6353 4.24326 25.1521 4.64646C27.6289 5.30886 29.1361 8.40006 27.8977 10.7425C27.4081 11.6737 26.4769 12.2785 25.6129 12.8641C22.8385 14.7649 20.1217 17.2033 19.4113 20.4865C18.9697 22.5121 19.3633 24.6145 19.0369 26.6497C18.7777 28.2145 18.0481 29.5393 17.5873 31.0081C17.0977 32.5249 17.3569 34.3105 17.8081 35.8081C18.3169 37.4881 19.1521 39.0337 19.9681 40.5889C20.5729 41.7409 21.1585 43.2001 20.4097 44.2657C20.7745 43.2865 20.3713 42.1633 19.7185 41.3473C19.0657 40.5313 18.1921 39.9265 17.4241 39.2161C15.6481 37.5553 14.4865 35.2609 14.1505 32.8609C14.0065 31.8625 13.8913 30.7873 13.8241 29.7697C13.7473 28.5505 14.2561 27.3409 14.3905 26.1313C14.6401 23.8465 13.5745 22.0897 13.3729 19.9681C13.1617 17.7409 13.4785 15.2737 14.2369 13.1425Z" fill="#797EF3"/>
<path d="M29.1359 39.984C29.1359 39.456 29.1359 39.456 29.1359 39.456C29.135 39.456 29.134 39.456 29.1311 39.456C29.1263 39.456 29.1187 39.456 29.1071 39.456C29.0851 39.4551 29.0505 39.4541 29.0035 39.4522C28.9103 39.4484 28.7702 39.4397 28.5868 39.4215C28.2211 39.3869 27.6863 39.3159 27.0259 39.1738C25.7039 38.8896 23.8799 38.3184 21.8908 37.1741L21.3647 38.09C23.4643 39.2976 25.3948 39.9034 26.8041 40.2068C27.5087 40.3584 28.0847 40.4352 28.487 40.4736C28.6886 40.4928 28.847 40.5024 28.9564 40.5072C29.0111 40.5101 29.0543 40.5111 29.0841 40.512C29.0995 40.512 29.111 40.513 29.1196 40.513C29.1235 40.513 29.1273 40.513 29.1302 40.513C29.1311 40.513 29.1331 40.513 29.1331 40.513H29.134C29.1359 40.512 29.1359 40.512 29.1359 39.984ZM21.8918 37.1741C21.6393 37.0292 21.3158 37.1156 21.1708 37.369C21.0259 37.6224 21.1123 37.945 21.3657 38.09L21.8918 37.1741ZM29.1359 40.512C29.4278 40.512 29.6639 40.2759 29.6639 39.984C29.6639 39.6922 29.4278 39.456 29.1359 39.456V40.512Z" fill="#1B1464"/>
</g>
<defs>
<clipPath id="clip0_34001_14169">
<rect width="48" height="48" rx="24" fill="white"/>
</clipPath>
</defs>
</svg>
