<svg width="40" height="40" viewBox="0 0 40 40" fill="none" xmlns="http://www.w3.org/2000/svg">
<rect width="40" height="40" rx="20" fill="#ECEEFE"/>
<mask id="mask0_1823_21515" style="mask-type:alpha" maskUnits="userSpaceOnUse" x="8" y="8" width="24" height="24">
<rect x="8" y="8" width="24" height="24" fill="#D9D9D9"/>
</mask>
<g mask="url(#mask0_1823_21515)">
<path d="M19.996 29.25C19.3487 29.25 18.7959 29.0195 18.3375 28.5585C17.8792 28.0975 17.65 27.5434 17.65 26.896C17.65 26.2487 17.8805 25.6958 18.3415 25.2375C18.8025 24.7792 19.3567 24.55 20.004 24.55C20.6513 24.55 21.2042 24.7805 21.6625 25.2415C22.1209 25.7025 22.35 26.2566 22.35 26.904C22.35 27.5513 22.1195 28.1042 21.6585 28.5625C21.1975 29.0208 20.6434 29.25 19.996 29.25ZM19.996 22.35C19.3487 22.35 18.7959 22.1195 18.3375 21.6585C17.8792 21.1975 17.65 20.6434 17.65 19.996C17.65 19.3487 17.8805 18.7958 18.3415 18.3375C18.8025 17.8792 19.3567 17.65 20.004 17.65C20.6513 17.65 21.2042 17.8805 21.6625 18.3415C22.1209 18.8025 22.35 19.3566 22.35 20.004C22.35 20.6513 22.1195 21.2042 21.6585 21.6625C21.1975 22.1208 20.6434 22.35 19.996 22.35ZM19.996 15.45C19.3487 15.45 18.7959 15.2195 18.3375 14.7585C17.8792 14.2975 17.65 13.7434 17.65 13.096C17.65 12.4487 17.8805 11.8958 18.3415 11.4375C18.8025 10.9792 19.3567 10.75 20.004 10.75C20.6513 10.75 21.2042 10.9805 21.6625 11.4415C22.1209 11.9025 22.35 12.4566 22.35 13.104C22.35 13.7513 22.1195 14.3042 21.6585 14.7625C21.1975 15.2208 20.6434 15.45 19.996 15.45Z" fill="#535AF1"/>
</g>
</svg>
