<svg width="20" height="20" viewBox="0 0 20 20" fill="none" xmlns="http://www.w3.org/2000/svg">
<path d="M8.33777 0L10.0044 3.33333L11.6711 0H8.33777ZM14.3044 0.333333L14.0711 4.06667L17.1711 2L14.3044 0.333333ZM2.83777 2L5.9711 4.06667L5.73777 0.333333L2.83777 2Z" fill="#4AA9FF"/>
<path d="M6.13768 20H2.20435V15.7L6.80435 16.7666C5.70435 17.9333 6.13768 20 6.13768 20Z" fill="#EBA352"/>
<path d="M5.77089 20H1.37089C1.37089 20 1.43756 17.8667 0.704224 16.0333L6.20422 16.8333C5.57089 18.4667 5.77089 20 5.77089 20ZM5.33756 14.1333H7.00422V6.73333C7.00422 6.23333 6.63756 5.83333 6.17089 5.83333C5.70422 5.83333 5.33756 6.23333 5.33756 6.76667V14.1333ZM3.37089 14.1333H5.33756V6.1C5.33756 5.5 4.90422 5 4.33756 5C3.80422 5 3.33756 5.5 3.33756 6.1V14.1333H3.37089Z" fill="#FFDD67"/>
<path d="M1.67091 14.1333H3.40425V6.56664C3.40425 6.03331 3.00425 5.59998 2.53758 5.59998C2.07091 5.59998 1.67091 6.03331 1.67091 6.56664V14.1333ZM0.870915 6.73331C0.437581 6.73331 0.104248 7.13331 0.104248 7.63331V14.1333H1.67091V7.63331C1.67091 7.13331 1.30425 6.73331 0.870915 6.73331Z" fill="#FFDD67"/>
<path d="M6.171 5.8H6.00434C6.40434 5.86667 6.70434 6.26667 6.70434 6.7V14.1333H7.00434V6.73333C7.00434 6.23333 6.63767 5.8 6.171 5.8ZM4.371 5C4.30434 5 4.271 5 4.23767 5.03333C4.70434 5.1 5.071 5.56667 5.071 6.1V11.4667L5.37101 11.8V6.1C5.33767 5.5 4.90434 5 4.371 5ZM2.53767 5.6H2.40434C2.80434 5.66667 3.10434 6.06667 3.10434 6.53333V11.4333L3.40434 11.7667V6.56667C3.371 6.03333 3.00434 5.6 2.53767 5.6ZM0.871004 6.73333C0.804338 6.73333 0.771004 6.73333 0.737671 6.76667C1.10434 6.83333 1.371 7.2 1.371 7.63333V11.4667L1.671 11.8V7.63333C1.671 7.13333 1.30434 6.73333 0.871004 6.73333Z" fill="#EBA352"/>
<path d="M9.80434 10.7334C9.30433 10.1667 8.30433 10.4334 7.60433 11.9C7.10433 12.9 6.971 12.7 6.70434 12.7667V11.8667C6.70434 11.8667 0.0710007 11.4334 0.0710007 12.4334C0.0710007 12.4334 -0.228999 14.9 0.404334 16.4334C1.371 18.7334 6.30434 19.3334 7.83767 15.4334C8.13767 14.6667 8.571 13.8334 8.90434 13C9.33767 12 10.371 11.4 9.80434 10.7334Z" fill="#FFDD67"/>
<path d="M9.47112 10.5C10.5378 11.3 8.57112 12.8333 7.63778 15.2C6.30445 18.6 2.40445 18.6 0.771118 17.0333C2.27112 18.8 6.43779 19.1333 7.83779 15.4333C8.77112 13.0333 11.0378 11.2 9.47112 10.5Z" fill="#EBA352"/>
<path d="M7.0044 12.7333C5.7044 12.2666 2.97106 13.1666 3.33773 15.7666C3.33773 13.3333 5.5044 12.7666 6.7044 12.7666C6.87106 12.7666 7.0044 12.7333 7.0044 12.7333ZM13.8711 20H17.8044V15.7L13.2044 16.7666C14.3044 17.9333 13.8711 20 13.8711 20Z" fill="#EBA352"/>
<path d="M14.2377 20H18.6377C18.6377 20 18.5711 17.8667 19.3044 16.0333L13.8044 16.8333C14.4377 18.4667 14.2377 20 14.2377 20ZM14.6711 14.1333H13.0044V6.73333C13.0044 6.23333 13.3711 5.83333 13.8377 5.83333C14.3044 5.83333 14.6711 6.23333 14.6711 6.76667V14.1333ZM16.6377 14.1333H14.6711V6.1C14.6711 5.5 15.1044 5 15.6711 5C16.2044 5 16.6711 5.5 16.6711 6.1V14.1333H16.6377Z" fill="#FFDD67"/>
<path d="M18.3376 14.1333H16.6042V6.56664C16.6042 6.03331 17.0042 5.59998 17.4709 5.59998C17.9376 5.59998 18.3376 6.03331 18.3376 6.56664V14.1333ZM19.1376 6.73331C19.5709 6.73331 19.9042 7.13331 19.9042 7.63331V14.1333H18.3376V7.63331C18.3376 7.13331 18.7042 6.73331 19.1376 6.73331Z" fill="#FFDD67"/>
<path d="M13.8377 5.8H14.0044C13.6044 5.86667 13.3044 6.26667 13.3044 6.7V14.1333H13.0044V6.73333C13.0044 6.23333 13.3711 5.8 13.8377 5.8ZM15.6377 5C15.7044 5 15.7377 5 15.7711 5.03333C15.3044 5.1 14.9377 5.56667 14.9377 6.1V11.4667L14.6377 11.8V6.1C14.6711 5.5 15.1044 5 15.6377 5ZM17.4711 5.6H17.6044C17.2044 5.66667 16.9044 6.06667 16.9044 6.53333V11.4333L16.6044 11.7667V6.56667C16.6377 6.03333 17.0044 5.6 17.4711 5.6ZM19.1377 6.73333C19.2044 6.73333 19.2377 6.73333 19.2711 6.76667C18.9044 6.83333 18.6377 7.2 18.6377 7.63333V11.4667L18.3377 11.8V7.63333C18.3377 7.13333 18.7044 6.73333 19.1377 6.73333Z" fill="#EBA352"/>
<path d="M10.2044 10.7334C10.7044 10.1667 11.7044 10.4334 12.4044 11.9C12.9044 12.9 13.0378 12.7 13.3044 12.7667V11.8667C13.3044 11.8667 19.9378 11.4334 19.9378 12.4334C19.9378 12.4334 20.2378 14.9 19.6044 16.4334C18.6378 18.7334 13.7044 19.3334 12.1711 15.4334C11.8711 14.6667 11.4378 13.8334 11.1044 13C10.6711 12 9.63777 11.4 10.2044 10.7334Z" fill="#FFDD67"/>
<path d="M10.5378 10.5C9.47114 11.3 11.4378 12.8333 12.3711 15.2C13.7045 18.6 17.6045 18.6 19.2378 17.0333C17.7378 18.8 13.5711 19.1333 12.1711 15.4333C11.2378 13.0333 8.97114 11.2 10.5378 10.5Z" fill="#EBA352"/>
<path d="M13.0045 12.7333C14.3045 12.2666 17.0378 13.1666 16.6712 15.7666C16.6712 13.3333 14.5045 12.7666 13.3045 12.7666C13.1379 12.7666 13.0045 12.7333 13.0045 12.7333Z" fill="#EBA352"/>
</svg>
