<svg width="24" height="24" viewBox="0 0 24 24" fill="none" xmlns="http://www.w3.org/2000/svg">
<path d="M3.55413 18.6488C5.15147 17.0515 5.31121 16.6522 6.30954 17.6505C7.30788 18.6488 6.90854 18.7686 5.31121 20.4059C4.1132 21.6039 2.59573 21.3643 2.59573 21.3643C2.59573 21.3643 2.35613 19.8468 3.55413 18.6488Z" fill="#FF9D27"/>
<path d="M6.58902 20.286C7.22796 18.6088 7.42762 18.4091 6.50915 17.89C5.59069 17.3709 5.59069 17.7303 4.99168 19.4075C4.51248 20.6454 5.07155 21.7635 5.07155 21.7635C5.07155 21.7635 6.14975 21.5639 6.58902 20.286Z" fill="#FF9D27"/>
<path d="M5.67052 18.7287C6.02993 17.8102 6.02993 17.6106 6.50913 17.8901C7.02826 18.1696 6.90846 18.2894 6.54906 19.2079C6.30946 19.8868 5.71046 20.0465 5.71046 20.0465C5.71046 20.0465 5.43092 19.4475 5.67052 18.7287Z" fill="#FDF516"/>
<path d="M6.02979 17.451C5.51066 16.5325 5.31099 16.7322 3.63379 17.3711C2.39585 17.8503 2.15625 18.8886 2.15625 18.8886C2.15625 18.8886 3.27439 19.4477 4.51232 18.9685C6.18953 18.3295 6.54893 18.3295 6.02979 17.451Z" fill="#FF9D27"/>
<path d="M5.19134 18.2895C6.10981 17.9301 6.30948 17.9301 6.02994 17.4509C5.75041 16.9318 5.63061 17.0516 4.71214 17.411C4.03327 17.6506 3.87354 18.2496 3.87354 18.2496C3.87354 18.2496 4.51247 18.5291 5.19134 18.2895Z" fill="#FDF516"/>
<path d="M4.75196 18.2097C5.6305 17.3311 5.71036 17.0915 6.26943 17.6506C6.8285 18.2097 6.5889 18.2895 5.71036 19.1681C5.03149 19.8469 4.19289 19.6872 4.19289 19.6872C4.19289 19.6872 4.11302 18.8885 4.75196 18.2097Z" fill="#FDF516"/>
<path d="M6.58902 14.3759C4.11314 10.2229 0 11.94 0 11.94C0 11.94 5.87022 6.06978 9.82363 10.0232L6.58902 14.3759Z" fill="#3BAACF"/>
<path d="M8.50582 11.3011L9.78369 10.0232C5.87022 6.06978 0 11.94 0 11.94C0 11.94 5.15141 8.26612 8.50582 11.3011Z" fill="#428BC1"/>
<path d="M9.58398 17.3711C13.7371 19.847 12.0199 23.9601 12.0199 23.9601C12.0199 23.9601 17.8901 18.0899 13.9367 14.1365L9.58398 17.3711Z" fill="#3BAACF"/>
<path d="M12.6587 15.4541L13.9366 14.1763C17.89 18.1297 12.0198 23.9999 12.0198 23.9999C12.0198 23.9999 15.6937 18.8085 12.6587 15.4541Z" fill="#428BC1"/>
<path d="M18.6889 11.5408C14.0167 16.1731 8.86531 18.6889 7.0683 16.8919C5.2713 15.0949 7.7871 9.9435 12.4194 5.27129C17.8503 -0.159657 23.8803 0.0799443 23.8803 0.0799443C23.8803 0.0799443 24.08 6.10989 18.6889 11.5408Z" fill="#C5D0D8"/>
<path d="M17.4909 10.223C12.8587 14.8552 8.22639 17.8902 7.14819 16.812C6.06998 15.7338 9.10493 11.1015 13.7372 6.46922C19.1682 1.03827 23.9602 0 23.9602 0C23.9602 0 22.9219 4.79201 17.4909 10.223Z" fill="#DAE3EA"/>
<path d="M8.90518 18.1697C8.70552 18.3694 8.38605 18.3694 8.18638 18.1697L5.79038 15.7737C5.59071 15.574 5.59071 15.2146 5.79038 15.0149L6.50918 14.2961L9.62399 17.411L8.90518 18.1697Z" fill="#C94747"/>
<path d="M8.22627 17.451C8.0266 17.6506 7.787 17.7305 7.6672 17.6107L6.30946 16.253C6.18966 16.1332 6.26953 15.8936 6.4692 15.6939L7.188 14.9751L8.94507 16.7322L8.22627 17.451Z" fill="#F15744"/>
<path d="M7.54756 18.4492C7.42776 18.569 7.14822 18.569 7.02842 18.4492L5.47102 16.8918C5.35122 16.772 5.39115 16.5324 5.51095 16.4125L5.99015 15.9333L8.02676 17.97L7.54756 18.4492Z" fill="#3E4347"/>
<path d="M7.22781 18.1298C7.10801 18.2496 6.86841 18.2895 6.78855 18.2097L5.71034 17.1315C5.63048 17.0516 5.67041 16.8519 5.83014 16.7321L6.30935 16.2529L7.70702 17.6506L7.22781 18.1298Z" fill="#62727A"/>
<path d="M23.8801 0.0798612C23.8801 0.0798612 21.7237 -5.63264e-06 18.8086 1.11813L22.8419 5.15141C23.96 2.23627 23.8801 0.0798612 23.8801 0.0798612Z" fill="#C94747"/>
<path d="M23.8802 0.079834C23.8802 0.079834 22.1631 0.439235 19.5674 1.91677L22.0433 4.39265C23.5208 1.79697 23.8802 0.079834 23.8802 0.079834Z" fill="#F15744"/>
<path d="M16.5724 9.38421C17.6751 9.38421 18.569 8.49027 18.569 7.38754C18.569 6.28481 17.6751 5.39087 16.5724 5.39087C15.4696 5.39087 14.5757 6.28481 14.5757 7.38754C14.5757 8.49027 15.4696 9.38421 16.5724 9.38421Z" fill="#EDF4F9"/>
<path d="M16.5722 8.70543C17.3 8.70543 17.89 8.11543 17.89 7.38763C17.89 6.65982 17.3 6.06982 16.5722 6.06982C15.8444 6.06982 15.2544 6.65982 15.2544 7.38763C15.2544 8.11543 15.8444 8.70543 16.5722 8.70543Z" fill="#3BAACF"/>
<path d="M12.5789 13.3776C13.6817 13.3776 14.5756 12.4837 14.5756 11.3809C14.5756 10.2782 13.6817 9.38428 12.5789 9.38428C11.4762 9.38428 10.5823 10.2782 10.5823 11.3809C10.5823 12.4837 11.4762 13.3776 12.5789 13.3776Z" fill="#EDF4F9"/>
<path d="M12.579 12.6988C13.3068 12.6988 13.8968 12.1088 13.8968 11.381C13.8968 10.6532 13.3068 10.0632 12.579 10.0632C11.8512 10.0632 11.2612 10.6532 11.2612 11.381C11.2612 12.1088 11.8512 12.6988 12.579 12.6988Z" fill="#3BAACF"/>
<path d="M18.7287 1.95675C18.6089 2.07655 18.3693 2.07655 18.2495 1.95675C18.1297 1.83695 18.1297 1.59735 18.2495 1.47755C18.3693 1.35775 18.6089 1.35775 18.7287 1.47755C18.8485 1.59735 18.8485 1.83695 18.7287 1.95675Z" fill="white"/>
<path d="M19.4076 2.9551C19.584 2.9551 19.7271 2.81207 19.7271 2.63563C19.7271 2.45919 19.584 2.31616 19.4076 2.31616C19.2312 2.31616 19.0881 2.45919 19.0881 2.63563C19.0881 2.81207 19.2312 2.9551 19.4076 2.9551Z" fill="white"/>
<path d="M20.3661 3.91335C20.5425 3.91335 20.6856 3.77032 20.6856 3.59388C20.6856 3.41744 20.5425 3.27441 20.3661 3.27441C20.1897 3.27441 20.0466 3.41744 20.0466 3.59388C20.0466 3.77032 20.1897 3.91335 20.3661 3.91335Z" fill="white"/>
<path d="M21.2846 4.87185C21.461 4.87185 21.604 4.72881 21.604 4.55238C21.604 4.37594 21.461 4.23291 21.2846 4.23291C21.1081 4.23291 20.9651 4.37594 20.9651 4.55238C20.9651 4.72881 21.1081 4.87185 21.2846 4.87185Z" fill="white"/>
<path d="M22.2428 5.7903C22.4192 5.7903 22.5623 5.64727 22.5623 5.47083C22.5623 5.2944 22.4192 5.15137 22.2428 5.15137C22.0664 5.15137 21.9233 5.2944 21.9233 5.47083C21.9233 5.64727 22.0664 5.7903 22.2428 5.7903Z" fill="white"/>
</svg>
