<svg width="30" height="30" viewBox="0 0 30 30" fill="none" xmlns="http://www.w3.org/2000/svg">
<rect width="30" height="30" rx="15" fill="#ECEEFE"/>
<mask id="mask0_39725_15622" style="mask-type:alpha" maskUnits="userSpaceOnUse" x="3" y="3" width="24" height="24">
<rect x="3" y="3" width="24" height="24" fill="#D9D9D9"/>
</mask>
<g mask="url(#mask0_39725_15622)">
<path d="M13.6 16.8L11.45 14.65C11.2667 14.4667 11.0333 14.375 10.75 14.375C10.4667 14.375 10.2333 14.4667 10.05 14.65C9.86667 14.8333 9.775 15.0667 9.775 15.35C9.775 15.6333 9.86667 15.8667 10.05 16.05L12.9 18.9C13.1 19.1 13.3333 19.2 13.6 19.2C13.8667 19.2 14.1 19.1 14.3 18.9L19.95 13.25C20.1333 13.0667 20.225 12.8333 20.225 12.55C20.225 12.2667 20.1333 12.0333 19.95 11.85C19.7667 11.6667 19.5333 11.575 19.25 11.575C18.9667 11.575 18.7333 11.6667 18.55 11.85L13.6 16.8ZM15 25C13.6167 25 12.3167 24.7375 11.1 24.2125C9.88333 23.6875 8.825 22.975 7.925 22.075C7.025 21.175 6.3125 20.1167 5.7875 18.9C5.2625 17.6833 5 16.3833 5 15C5 13.6167 5.2625 12.3167 5.7875 11.1C6.3125 9.88333 7.025 8.825 7.925 7.925C8.825 7.025 9.88333 6.3125 11.1 5.7875C12.3167 5.2625 13.6167 5 15 5C16.3833 5 17.6833 5.2625 18.9 5.7875C20.1167 6.3125 21.175 7.025 22.075 7.925C22.975 8.825 23.6875 9.88333 24.2125 11.1C24.7375 12.3167 25 13.6167 25 15C25 16.3833 24.7375 17.6833 24.2125 18.9C23.6875 20.1167 22.975 21.175 22.075 22.075C21.175 22.975 20.1167 23.6875 18.9 24.2125C17.6833 24.7375 16.3833 25 15 25ZM15 23C17.2333 23 19.125 22.225 20.675 20.675C22.225 19.125 23 17.2333 23 15C23 12.7667 22.225 10.875 20.675 9.325C19.125 7.775 17.2333 7 15 7C12.7667 7 10.875 7.775 9.325 9.325C7.775 10.875 7 12.7667 7 15C7 17.2333 7.775 19.125 9.325 20.675C10.875 22.225 12.7667 23 15 23Z" fill="black"/>
</g>
</svg>
