<svg width="24" height="24" viewBox="0 0 24 24" fill="none" xmlns="http://www.w3.org/2000/svg">
<mask id="mask0_813_12128" style="mask-type:alpha" maskUnits="userSpaceOnUse" x="0" y="0" width="24" height="24">
<rect width="24" height="24" fill="#D9D9D9"/>
</mask>
<g mask="url(#mask0_813_12128)">
<path d="M15.7002 11.2C16.2002 11.2 16.6169 11.0333 16.9502 10.7C17.2835 10.3666 17.4502 9.94995 17.4502 9.44995C17.4502 8.94995 17.2835 8.53328 16.9502 8.19995C16.6169 7.86662 16.2002 7.69995 15.7002 7.69995C15.2002 7.69995 14.7835 7.86662 14.4502 8.19995C14.1169 8.53328 13.9502 8.94995 13.9502 9.44995C13.9502 9.94995 14.1169 10.3666 14.4502 10.7C14.7835 11.0333 15.2002 11.2 15.7002 11.2ZM8.3002 11.2C8.8002 11.2 9.21686 11.0333 9.5502 10.7C9.88353 10.3666 10.0502 9.94995 10.0502 9.44995C10.0502 8.94995 9.88353 8.53328 9.5502 8.19995C9.21686 7.86662 8.8002 7.69995 8.3002 7.69995C7.8002 7.69995 7.38353 7.86662 7.0502 8.19995C6.71686 8.53328 6.5502 8.94995 6.5502 9.44995C6.5502 9.94995 6.71686 10.3666 7.0502 10.7C7.38353 11.0333 7.8002 11.2 8.3002 11.2ZM12.0002 18C13.1002 18 14.0712 17.754 14.9132 17.2619C15.7545 16.7706 16.4002 16.1833 16.8502 15.5C17.0835 15.1333 17.1045 14.8 16.9132 14.5C16.7212 14.2 16.4585 14.05 16.1252 14.05C15.8752 14.05 15.6795 14.1 15.5382 14.2C15.3962 14.3 15.2585 14.4333 15.1252 14.6C14.7585 15.05 14.3085 15.4126 13.7752 15.688C13.2419 15.9626 12.6502 16.1 12.0002 16.1C11.3502 16.1 10.7585 15.9626 10.2252 15.688C9.69186 15.4126 9.24186 15.05 8.8752 14.6C8.74186 14.4333 8.60453 14.3 8.4632 14.2C8.3212 14.1 8.1252 14.05 7.8752 14.05C7.5252 14.05 7.26286 14.2123 7.08819 14.537C6.91286 14.8623 6.95853 15.225 7.22519 15.625C7.64186 16.2416 8.26686 16.7916 9.1002 17.275C9.93353 17.7583 10.9002 18 12.0002 18ZM12.0002 22.7999C10.5002 22.7999 9.09586 22.5166 7.7872 21.95C6.4792 21.3833 5.33786 20.6126 4.3632 19.638C3.38786 18.6626 2.61686 17.5206 2.0502 16.212C1.48353 14.904 1.2002 13.5 1.2002 12C1.2002 10.5 1.48353 9.09162 2.0502 7.77495C2.61686 6.45828 3.38786 5.31262 4.3632 4.33795C5.33786 3.36262 6.4792 2.59562 7.7872 2.03695C9.09586 1.47895 10.5002 1.19995 12.0002 1.19995C13.5002 1.19995 14.9085 1.47895 16.2252 2.03695C17.5419 2.59562 18.6879 3.36262 19.6632 4.33795C20.6379 5.31262 21.4042 6.45828 21.9622 7.77495C22.5209 9.09162 22.8002 10.5 22.8002 12C22.8002 13.5 22.5209 14.904 21.9622 16.212C21.4042 17.5206 20.6379 18.6626 19.6632 19.638C18.6879 20.6126 17.5419 21.3833 16.2252 21.95C14.9085 22.5166 13.5002 22.7999 12.0002 22.7999ZM12.0002 20.15C14.2669 20.15 16.1919 19.3583 17.7752 17.775C19.3585 16.1916 20.1502 14.2666 20.1502 12C20.1502 9.73328 19.3585 7.80828 17.7752 6.22495C16.1919 4.64162 14.2669 3.84995 12.0002 3.84995C9.73353 3.84995 7.80853 4.64162 6.22519 6.22495C4.64186 7.80828 3.8502 9.73328 3.8502 12C3.8502 14.2666 4.64186 16.1916 6.22519 17.775C7.80853 19.3583 9.73353 20.15 12.0002 20.15Z" fill="#535AF1"/>
</g>
</svg>
