<svg width="24" height="24" viewBox="0 0 24 24" fill="none" xmlns="http://www.w3.org/2000/svg">
<mask id="mask0_210_1613" style="mask-type:alpha" maskUnits="userSpaceOnUse" x="0" y="0" width="24" height="24">
<rect width="24" height="24" fill="#D9D9D9"/>
</mask>
<g mask="url(#mask0_210_1613)">
<path d="M12.0002 22.7999C10.5335 22.7999 9.14186 22.5126 7.8252 21.938C6.50853 21.3626 5.36286 20.5873 4.3882 19.6119C3.41286 18.6373 2.63753 17.4916 2.0622 16.175C1.48753 14.8583 1.2002 13.4666 1.2002 12C1.2002 10.5166 1.48753 9.12062 2.0622 7.81195C2.63753 6.50395 3.41286 5.36228 4.3882 4.38695C5.36286 3.41228 6.50853 2.63728 7.8252 2.06195C9.14186 1.48728 10.5335 1.19995 12.0002 1.19995C13.4835 1.19995 14.8795 1.48728 16.1882 2.06195C17.4962 2.63728 18.6379 3.41228 19.6132 4.38695C20.5879 5.36228 21.3629 6.50395 21.9382 7.81195C22.5129 9.12062 22.8002 10.5166 22.8002 12V13.825C22.8002 15.0083 22.4129 15.95 21.6382 16.65C20.8629 17.35 19.9585 17.7 18.9252 17.7C18.3419 17.7 17.7752 17.5873 17.2252 17.3619C16.6752 17.1373 16.2002 16.8333 15.8002 16.45C15.3002 16.85 14.7045 17.1583 14.0132 17.375C13.3212 17.5916 12.6502 17.7 12.0002 17.7C10.4169 17.7 9.07119 17.146 7.96319 16.038C6.85453 14.9293 6.3002 13.5833 6.3002 12C6.3002 10.4166 6.85453 9.07095 7.96319 7.96295C9.07119 6.85428 10.4169 6.29995 12.0002 6.29995C13.5835 6.29995 14.9295 6.85428 16.0382 7.96295C17.1462 9.07095 17.7002 10.4166 17.7002 12V13.825C17.7002 14.1583 17.8209 14.446 18.0622 14.688C18.3042 14.9293 18.5919 15.05 18.9252 15.05C19.2585 15.05 19.5462 14.9293 19.7882 14.688C20.0295 14.446 20.1502 14.1583 20.1502 13.825V12C20.1502 9.76662 19.3502 7.84995 17.7502 6.24995C16.1502 4.64995 14.2335 3.84995 12.0002 3.84995C9.76686 3.84995 7.8502 4.64995 6.2502 6.24995C4.6502 7.84995 3.8502 9.76662 3.8502 12C3.8502 14.2333 4.6502 16.15 6.2502 17.75C7.8502 19.35 9.76686 20.15 12.0002 20.15H15.7752C16.1419 20.15 16.4542 20.2793 16.7122 20.538C16.9709 20.7959 17.1002 21.1083 17.1002 21.475C17.1002 21.8416 16.9709 22.1543 16.7122 22.413C16.4542 22.6709 16.1419 22.7999 15.7752 22.7999H12.0002ZM12.0002 15.05C12.8502 15.05 13.5712 14.754 14.1632 14.162C14.7545 13.5706 15.0502 12.85 15.0502 12C15.0502 11.15 14.7545 10.429 14.1632 9.83695C13.5712 9.24562 12.8502 8.94995 12.0002 8.94995C11.1502 8.94995 10.4295 9.24562 9.8382 9.83695C9.2462 10.429 8.9502 11.15 8.9502 12C8.9502 12.85 9.2462 13.5706 9.8382 14.162C10.4295 14.754 11.1502 15.05 12.0002 15.05Z" fill="#535AF1"/>
</g>
</svg>
