<svg width="100" height="40" viewBox="0 0 100 40" fill="none" xmlns="http://www.w3.org/2000/svg">
<g clip-path="url(#clip0_33902_13936)">
<rect width="40" height="40" rx="20" fill="white"/>
<path d="M40 0.000915527H0V40H40V0.000915527Z" fill="#444DF2"/>
<path d="M23.5319 33.2562C23.2543 35.4841 22.9879 37.7481 22.8991 40H4.22949C4.47509 39.6232 4.76629 39.2248 5.09269 38.7904C6.69509 36.6617 7.99349 34.3049 8.94309 31.8154C9.41749 30.5714 9.80549 29.2931 10.0991 27.9939C10.3039 27.0923 10.9871 25.1348 10.6807 24.246C10.8559 24.7548 11.1031 25.2251 11.4063 25.6595C12.3655 27.0331 13.8863 28.0339 15.4671 28.6659C17.5479 29.4971 19.7927 29.8178 21.9463 30.4362C22.3967 30.5658 22.8655 30.7226 23.1799 31.0706C23.6903 31.637 23.6263 32.4994 23.5319 33.2562Z" fill="#444DF2"/>
<path d="M23.5319 33.2562C23.2543 35.4841 22.9879 37.7481 22.8991 40H4.22949C4.47509 39.6232 4.76629 39.2248 5.09269 38.7904C6.69509 36.6617 7.99349 34.3049 8.94309 31.8154C9.41749 30.5714 9.80549 29.2931 10.0991 27.9939C10.3039 27.0923 10.9871 25.1348 10.6807 24.246C10.8559 24.7548 11.1031 25.2251 11.4063 25.6595C12.3655 27.0331 13.8863 28.0339 15.4671 28.6659C17.5479 29.4971 19.7927 29.8178 21.9463 30.4362C22.3967 30.5658 22.8655 30.7226 23.1799 31.0706C23.6903 31.637 23.6263 32.4994 23.5319 33.2562Z" fill="#EAAA7F"/>
<path d="M8.46953 14.563C8.44393 12.8126 8.62953 11.0399 9.43833 9.4679C10.8255 6.76956 13.8687 5.0968 16.9607 4.51121C20.0535 3.92563 23.2335 4.26802 26.3479 4.63601C28.2191 4.8576 31.0095 5.1952 32.0135 6.90956C33.3407 9.17351 33.4695 12.4414 33.7335 14.975C33.9975 17.5085 34.3199 20.0357 34.5727 22.5708C34.7943 24.7939 34.7087 27.1539 33.8095 29.2674C32.7351 31.7938 30.3831 33.8481 27.5943 34.5273C23.6271 35.4929 18.2095 34.2361 15.6567 31.2258C13.7823 29.0154 11.6815 26.6059 10.4407 24.0124C9.16473 21.3452 8.64553 18.3917 8.49993 15.4686C8.48473 15.1678 8.47353 14.8654 8.46953 14.563Z" fill="#F7C9A4"/>
<path d="M11.3209 25.3819C10.7521 25.4459 10.1937 25.3915 9.68248 25.1259C9.05688 24.8012 8.62088 24.21 8.22008 23.6308C5.97448 20.3901 4.25848 16.4917 3.90488 12.5286C3.76968 11.0095 4.12408 9.37511 5.19128 8.28473C5.46328 8.00714 5.77848 7.76634 5.99448 7.44315C6.27928 7.01756 6.36408 6.49357 6.54648 6.01438C7.14728 4.43282 8.73928 3.31604 10.2737 2.60486C17.3337 -0.667064 26.0369 -1.15825 32.6913 2.87605C33.2561 3.21845 33.8145 3.76163 34.2049 4.29362C35.8449 6.52957 34.2457 9.6487 32.2017 10.8775C29.2937 12.6262 26.2665 13.3494 22.8721 12.9574C20.0225 12.6278 17.2881 11.6759 14.5801 10.7295C15.6385 13.3174 15.5985 16.2397 14.6209 18.8429C14.1673 20.0517 14.2793 20.7108 14.2673 21.9708C14.2601 22.7044 14.2889 24.4316 13.4257 24.774C12.7561 25.0395 12.0305 25.3027 11.3209 25.3819Z" fill="#1B1464"/>
<path d="M12.1104 17.6549C14.2544 19.1421 14.9152 22.8524 14.9696 25.2827C14.972 25.3963 14.9736 25.5147 15.024 25.6171C15.1864 25.9523 12.8976 26.0691 12.712 26.0707C11.8088 26.0795 10.9048 25.9843 10.0232 25.7859C9.0664 25.5707 8.7752 25.3187 8.2064 24.4955C7.7288 23.8044 7.3552 23.038 7.1536 22.2212C6.8264 20.8956 6.9808 19.4237 7.7272 18.2813C7.9744 17.9029 8.2872 17.5605 8.6728 17.3253C9.7128 16.6925 11.1096 16.9605 12.1104 17.6549Z" fill="#F7C9A4"/>
<path d="M13.7665 25.4436C11.9305 26.6923 9.64247 25.9547 8.99367 25.4052C8.04887 24.6044 7.44567 23.41 7.15287 22.222C6.82567 20.8965 6.98007 19.4245 7.72647 18.2821C7.97367 17.9037 8.28647 17.5613 8.67207 17.3261C9.71207 16.6926 11.1089 16.9613 12.1105 17.6549C13.2041 18.4133 13.9529 19.6493 14.1193 20.9701" fill="#F7C9A4"/>
<path d="M25.3822 20.9527C25.9708 20.914 26.3953 20.08 26.3303 19.0897C26.2653 18.0995 25.7354 17.3281 25.1468 17.3667C24.5582 17.4053 24.1337 18.2394 24.1987 19.2296C24.2637 20.2199 24.7936 20.9913 25.3822 20.9527Z" fill="#1B1464"/>
<path d="M31.6319 19.0341C32.2206 18.9955 32.645 18.1614 32.58 17.1712C32.515 16.181 31.9852 15.4095 31.3966 15.4482C30.808 15.4868 30.3835 16.3209 30.4485 17.3111C30.5135 18.3014 31.0433 19.0728 31.6319 19.0341Z" fill="#1B1464"/>
<path d="M29.2177 26.0795C28.3233 26.0795 27.4289 25.8147 26.8393 25.5947C26.6305 25.5163 26.5241 25.2843 26.6025 25.0747C26.6809 24.8659 26.9137 24.7596 27.1225 24.838C27.8009 25.0915 29.4873 25.6099 30.4865 24.9491C30.5665 24.8963 30.5913 24.8675 30.5985 24.8571C30.6009 24.8188 30.5705 24.7172 30.5569 24.6724C30.3025 23.8268 29.9809 22.986 29.6705 22.1732C29.1921 20.9212 28.6977 19.6261 28.4185 18.2549C28.3737 18.0365 28.5153 17.8229 28.7337 17.7781C28.9521 17.7333 29.1657 17.8749 29.2105 18.0933C29.4769 19.3997 29.9593 20.6628 30.4257 21.8852C30.7417 22.7116 31.0681 23.5668 31.3313 24.4396C31.3777 24.5924 31.4545 24.8476 31.3657 25.1131C31.2801 25.3699 31.0777 25.5267 30.9329 25.6227C30.4233 25.9587 29.8209 26.0795 29.2177 26.0795Z" fill="#1B1464"/>
<path d="M21.1031 19.0157C20.9079 19.0157 20.7359 18.8733 20.7047 18.6741C20.4335 16.9437 21.5055 15.1054 23.1455 14.4902C23.3543 14.4118 23.5871 14.5174 23.6655 14.7262C23.7439 14.935 23.6383 15.1678 23.4295 15.2462C22.1351 15.7318 21.2887 17.1829 21.5031 18.5485C21.5375 18.7685 21.3871 18.9757 21.1663 19.0101C21.1447 19.0141 21.1239 19.0157 21.1031 19.0157Z" fill="#1B1464"/>
<path d="M32.7703 14.2038C32.6071 14.2038 32.4535 14.1038 32.3927 13.9422C32.3023 13.7014 32.0927 13.5006 31.8191 13.391C31.5455 13.2814 31.2551 13.2822 31.0231 13.3926C30.8223 13.4894 30.5807 13.4038 30.4847 13.203C30.3879 13.0022 30.4735 12.7606 30.6743 12.6638C31.1095 12.455 31.6367 12.447 32.1199 12.6406C32.6031 12.8342 32.9783 13.2046 33.1487 13.6566C33.2271 13.8654 33.1223 14.0982 32.9135 14.1774C32.8663 14.195 32.8175 14.2038 32.7703 14.2038Z" fill="#1B1464"/>
<path d="M27.5767 30.2547C26.5551 30.2547 25.5327 29.9659 24.6919 29.3923C24.5079 29.2667 24.4599 29.0155 24.5863 28.8307C24.7119 28.6467 24.9631 28.5987 25.1479 28.7243C26.5079 29.6523 28.4359 29.6947 29.8359 28.8259C30.0255 28.7083 30.2743 28.7667 30.3919 28.9563C30.5095 29.1459 30.4511 29.3947 30.2615 29.5123C29.4631 30.0083 28.5199 30.2547 27.5767 30.2547Z" fill="#1B1464"/>
<path d="M23.02 35.4361C22.9952 35.4361 22.9704 35.4337 22.9448 35.4289C19.8528 34.8473 16.7504 32.9585 14.2104 30.1106C14.0616 29.9442 14.0768 29.689 14.2432 29.5402C14.4096 29.3914 14.6648 29.4066 14.8136 29.573C17.236 32.2882 20.1768 34.0865 23.0944 34.6345C23.3136 34.6761 23.4576 34.8865 23.4168 35.1057C23.38 35.3009 23.2104 35.4361 23.02 35.4361Z" fill="#1B1464"/>
<path d="M9.91037 23.314C9.70317 23.314 9.52637 23.1556 9.50877 22.9452C9.44957 22.2604 9.71677 21.8492 9.95197 21.6244C10.38 21.2156 11.0048 21.1084 11.4584 21.0916C11.3904 20.9372 11.2912 20.8084 11.1592 20.7036C10.5512 20.218 9.46717 20.37 9.45677 20.3716C9.23677 20.4036 9.03117 20.2516 8.99837 20.0316C8.96557 19.8116 9.11677 19.606 9.33677 19.5724C9.39517 19.5636 10.7744 19.3645 11.6608 20.0692C12.0856 20.4068 12.3248 20.8828 12.3704 21.4828C12.38 21.6044 12.3336 21.7236 12.2456 21.8076C12.1568 21.8916 12.0352 21.93 11.9144 21.9148C11.6456 21.8804 10.868 21.8652 10.5096 22.2092C10.352 22.3604 10.288 22.578 10.3144 22.8748C10.3336 23.0972 10.1696 23.2932 9.94717 23.3124C9.93437 23.3132 9.92237 23.314 9.91037 23.314Z" fill="#EAAA7F"/>
</g>
<rect x="1" y="1" width="38" height="38" rx="19" stroke="white" stroke-width="2"/>
<g clip-path="url(#clip1_33902_13936)">
<rect x="30" width="40" height="40" rx="20" fill="white"/>
<path d="M70 0H30V40H70V0Z" fill="#797EF3"/>
<path d="M54.7929 40H40.1033C40.4593 38.6952 40.7481 37.5392 40.8017 37.2968C41.2697 35.152 41.5657 32.976 41.6841 30.7928C41.7457 29.6608 41.7601 28.5264 41.7265 27.3936C41.7033 26.6088 41.3457 25.3544 41.7017 24.6064C42.3833 23.172 45.5521 24.856 46.9593 25.0392C49.3761 25.3544 51.8337 25.2064 54.2585 25.0592C53.8897 30.0392 54.0705 35.052 54.7929 40Z" fill="#797EF3"/>
<path d="M65.0121 22.3912C65.2385 23.416 65.6737 24.4096 65.6817 25.46C65.4641 25.5128 65.2617 25.3392 65.1121 25.1728C63.5305 23.4104 63.0281 20.9504 62.6961 18.6056C62.4913 17.1576 61.9657 14.7528 62.6521 13.3816C63.0017 12.6832 64.2673 11.8712 64.9905 12.5432C65.8457 13.3392 65.1561 16.1456 65.0425 17.1672C64.8497 18.9 64.6305 20.6664 65.0121 22.3912Z" fill="#444DF2"/>
<path d="M52.5376 2.67518C51.8632 2.29198 51.1632 1.95358 50.4376 1.66878C47.3392 0.454378 43.7 0.331178 40.7656 1.90318C38.184 3.28638 36.376 5.84558 35.4024 8.60798C34.4288 11.3704 34.2144 14.3408 34.1992 17.2688C34.18 20.8288 34.4432 24.3864 34.8816 27.9184C35.1616 30.1776 35.8608 35.9856 38.884 36.1056C42.5952 36.252 46.32 36.068 49.9992 35.5592C53.1328 35.1264 58.296 37.512 60.8 35.36C62.2952 34.0744 61.7496 29.4544 62.3912 27.5896C63.1712 25.324 63.7528 22.968 63.8224 20.5728C63.9144 17.4152 63.0928 14.2352 61.4824 11.5176C60.6256 10.072 59.556 8.76158 58.4152 7.52798C56.6848 5.65758 54.7432 3.92798 52.5376 2.67518Z" fill="#444DF2"/>
<path d="M54.7929 40H40.1033C40.4593 38.6952 40.7481 37.5392 40.8017 37.2968C41.2697 35.152 41.5657 32.976 41.6841 30.7928C41.7457 29.6608 41.7601 28.5264 41.7265 27.3936C41.7033 26.6088 41.3457 25.3544 41.7017 24.6064C42.3833 23.172 45.5521 24.856 46.9593 25.0392C49.3761 25.3544 51.8337 25.2064 54.2585 25.0592C53.8897 30.0392 54.0705 35.052 54.7929 40Z" fill="#E8AE8E"/>
<path d="M41.8983 29.9352C44.3431 32.5608 47.7095 34.2256 51.3231 35.1584C54.7631 36.0464 58.8135 36.1512 61.4471 33.7664C63.6599 31.7632 64.2631 28.5568 64.4903 25.58C64.7623 22.0136 64.6759 18.4296 64.5199 14.8568C64.4519 13.3032 64.3695 11.7392 63.9967 10.2304C63.4327 7.94879 62.0239 4.91679 59.7935 3.90399C57.0991 2.68079 53.8711 2.35839 50.9559 2.68799C48.8463 2.92639 46.6999 3.17919 44.7607 4.04079C43.0183 4.81519 40.7599 5.80319 39.8295 7.53199C38.6495 9.72399 37.9783 12.2584 37.6927 14.7208C37.2591 18.4552 37.7655 22.3096 39.2175 25.7816C39.8823 27.376 40.7967 28.7528 41.8983 29.9352Z" fill="#F4C19F"/>
<path d="M39.8463 15.356C39.3351 14.752 38.6207 14.3496 37.6455 14.3272C36.2127 14.2944 34.8407 15.2816 34.3223 16.6184C33.4879 18.7712 34.8831 21.3984 36.7639 22.5088C38.4343 23.4944 40.3951 22.92 40.8823 20.9704C41.0983 20.1056 41.0135 19.1984 40.9263 18.3112C40.8223 17.2424 40.5023 16.132 39.8463 15.356Z" fill="#F4C19F"/>
<path d="M36.7063 20.7096C36.4807 20.7096 36.2887 20.5368 36.2687 20.308C36.2039 19.5624 36.4959 19.1144 36.7519 18.8696C37.2183 18.424 37.8991 18.308 38.3927 18.2896C38.3183 18.1208 38.2095 17.98 38.0647 17.8648C37.4071 17.3416 36.2247 17.5032 36.2127 17.5048C35.9727 17.5416 35.7479 17.376 35.7119 17.136C35.6751 16.896 35.8407 16.6712 36.0807 16.6352C36.1439 16.6256 37.6463 16.4088 38.6119 17.176C39.0743 17.544 39.3351 18.0624 39.3855 18.716C39.3959 18.848 39.3455 18.9784 39.2495 19.0696C39.1527 19.1608 39.0207 19.2032 38.8887 19.1864C38.5959 19.1488 37.7487 19.1328 37.3583 19.5072C37.1871 19.672 37.1175 19.9088 37.1455 20.232C37.1663 20.4744 36.9871 20.6872 36.7455 20.7088C36.7319 20.7088 36.7191 20.7096 36.7063 20.7096Z" fill="#EAAA7F"/>
<path d="M47.0753 13.3328C47.0729 13.336 47.0713 13.3392 47.0689 13.3424C46.8049 13.7288 45.8713 13.6904 45.4681 13.7416C45.1329 13.784 40.3793 14.2048 40.3569 13.9816C40.5385 15.8336 40.7201 17.6864 40.9017 19.5384C41.1321 21.892 41.3281 24.42 40.1537 26.4728C40.5833 23.3424 40.0201 20.0832 38.5649 17.2784C38.1017 16.3848 37.5425 15.516 37.3457 14.5288C37.1769 13.6792 37.2897 12.7992 37.4689 11.952C37.9169 9.84161 38.7817 7.82081 39.9993 6.04001C42.2353 2.77121 46.2929 1.10241 50.1449 0.828814C51.8569 0.707214 53.5785 0.724815 55.2873 0.881615C57.7353 1.10641 60.5233 1.90321 62.1393 3.87841C63.0905 5.04161 63.6993 6.44001 64.2961 7.81921C64.4321 8.13361 66.3249 13.9248 65.8457 13.82C64.8713 13.608 63.8977 13.396 62.9233 13.184C61.8777 12.9568 60.8313 12.7288 59.7705 12.5888C57.6033 12.3032 55.4121 12.3912 53.2409 12.5816C52.6721 12.6312 49.1257 13.4416 48.8425 12.6248C48.3737 11.2728 47.9041 9.92081 47.4353 8.56881C47.3585 8.34801 47.0361 8.11281 46.9617 8.33441C46.9633 9.26321 47.5281 12.6328 47.0753 13.3328Z" fill="#444DF2"/>
<path d="M55.3065 25.084C55.0641 25.084 54.8673 24.888 54.8665 24.6456C54.8657 24.4024 55.0617 24.2048 55.3041 24.204C55.3329 24.204 58.1441 24.1688 58.3041 22.6104C58.3673 21.9912 58.1817 21.776 57.8449 21.3864C57.2913 20.7464 56.5337 19.8696 56.5841 17.0312C56.5881 16.7912 56.7841 16.5992 57.0241 16.5992C57.0265 16.5992 57.0297 16.5992 57.0321 16.5992C57.2753 16.6032 57.4689 16.804 57.4641 17.0472C57.4193 19.5496 58.0241 20.2488 58.5105 20.8112C58.8897 21.2496 59.2817 21.704 59.1793 22.7008C58.9385 25.0432 55.4561 25.084 55.3081 25.0848C55.3081 25.084 55.3073 25.084 55.3065 25.084Z" fill="#1B1464"/>
<path d="M51.7727 20.834C52.4143 20.7919 52.8769 19.8832 52.8061 18.8043C52.7353 17.7254 52.1578 16.8849 51.5163 16.9271C50.8748 16.9692 50.4121 17.8779 50.483 18.9568C50.5538 20.0357 51.1312 20.8761 51.7727 20.834Z" fill="#1B1464"/>
<path d="M60.6612 20.5844C61.3027 20.5423 61.7653 19.6335 61.6945 18.5547C61.6237 17.4758 61.0462 16.6353 60.4047 16.6774C59.7632 16.7195 59.3006 17.6283 59.3714 18.7072C59.4422 19.786 60.0197 20.6265 60.6612 20.5844Z" fill="#1B1464"/>
<path d="M62.8512 16.4808C62.7608 16.4808 62.6704 16.4536 62.592 16.396C60.6712 14.992 58.944 15.4288 58.8712 15.448C58.6368 15.5104 58.396 15.372 58.3328 15.1376C58.2696 14.904 58.4064 14.6632 58.6392 14.5984C58.728 14.5744 60.8328 14.02 63.1112 15.6848C63.3072 15.828 63.3504 16.1032 63.2072 16.3C63.1208 16.4184 62.9872 16.4808 62.8512 16.4808Z" fill="#1B1464"/>
<path d="M47.2335 16.9584C47.1647 16.9584 47.0943 16.9424 47.0287 16.9072C46.8135 16.7936 46.7311 16.528 46.8447 16.3128C46.8887 16.2296 47.9663 14.2864 52.5319 14.2864C52.5719 14.2864 52.6119 14.2864 52.6527 14.2872C52.8959 14.2888 53.0911 14.4872 53.0895 14.7304C53.0879 14.972 52.8911 15.1672 52.6495 15.1672C52.6487 15.1672 52.6471 15.1672 52.6463 15.1672C48.5759 15.1376 47.6311 16.7072 47.6231 16.7232C47.5447 16.8728 47.3919 16.9584 47.2335 16.9584Z" fill="#1B1464"/>
<path d="M54.5744 28.8168C51.092 28.8168 48.7752 25.9968 48.6712 25.8688C48.5184 25.68 48.548 25.4024 48.7376 25.2504C48.9264 25.0976 49.2032 25.1272 49.356 25.3168C49.392 25.3608 51.836 28.312 55.2536 27.896C55.4952 27.8672 55.7144 28.0384 55.7432 28.28C55.7728 28.5208 55.6008 28.7408 55.3592 28.7696C55.092 28.8016 54.8296 28.8168 54.5744 28.8168Z" fill="#1B1464"/>
<path d="M54.0649 36.08C48.9361 36.08 43.6993 32.1576 43.4793 31.9904C43.2857 31.844 43.2473 31.568 43.3945 31.3744C43.5409 31.1808 43.8169 31.1424 44.0113 31.2888C44.0633 31.328 49.2353 35.1992 54.0657 35.1992C54.3089 35.1992 54.5057 35.396 54.5057 35.6392C54.5057 35.8824 54.3081 36.08 54.0649 36.08Z" fill="#1B1464"/>
</g>
<rect x="31" y="1" width="38" height="38" rx="19" stroke="white" stroke-width="2"/>
<g clip-path="url(#clip2_33902_13936)">
<rect x="60" width="40" height="40" rx="20" fill="white"/>
<path d="M100 0H60V40H100V0Z" fill="#ADB0D9"/>
<path d="M84.5528 40H66.7512C66.8144 39.812 66.8792 39.6248 66.9424 39.4376C68.2128 35.6736 68.708 32.0296 68.7808 28.084C73.288 29.2312 78.0216 28.7392 82.672 28.6912C84.4024 28.6736 83.8208 30.028 83.8432 31.288C83.8704 32.8632 83.952 34.4376 84.088 36.0072C84.2032 37.3424 84.3584 38.6744 84.5528 40Z" fill="#ADB0D9"/>
<path d="M84.5528 40H66.7512C66.8144 39.812 66.8792 39.6248 66.9424 39.4376C68.2128 35.6736 68.708 32.0296 68.7808 28.084C73.288 29.2312 78.0216 28.7392 82.672 28.6912C84.4024 28.6736 83.8208 30.028 83.8432 31.288C83.8704 32.8632 83.952 34.4376 84.088 36.0072C84.2032 37.3424 84.3584 38.6744 84.5528 40Z" fill="#E8AE8E"/>
<path d="M71.9281 31.3056C71.9569 31.34 71.9865 31.3744 72.0153 31.408C72.3865 31.8448 72.7601 32.284 73.1969 32.656C75.4745 34.5936 79.0193 34.816 81.8249 35.3632C83.5289 35.6952 85.2345 35.752 86.9137 35.2376C88.8497 34.644 90.5865 33.3352 91.5593 31.5592C92.7705 29.3464 92.7217 26.6856 92.6417 24.164C92.5961 22.7328 92.5505 21.3024 92.5049 19.8712C92.4761 18.9736 92.4481 18.0752 92.4937 17.1784C92.6057 14.968 93.1833 12.7008 92.7065 10.4976C92.3105 8.6688 90.7809 6.76 89.0737 5.9848C86.3793 4.7616 83.1513 4.4392 80.2361 4.7688C78.1265 5.0072 75.9801 5.26 74.0409 6.1216C72.2985 6.896 70.0401 7.884 69.1097 9.6128C67.9297 11.8048 67.2585 14.3392 66.9729 16.8016C66.7369 18.8368 66.7793 20.9048 67.1017 22.9288C67.4065 24.8432 67.9161 26.5848 69.1817 28.0736C70.0961 29.1512 71.0121 30.228 71.9281 31.3056Z" fill="#F4C19F"/>
<path d="M84.5864 25.084C84.348 25.084 84.152 24.8936 84.1464 24.6544C84.1408 24.4112 84.3328 24.2096 84.576 24.204C85.6728 24.1784 86.1104 23.8608 86.8552 23.176C86.004 21.2744 85.5032 19.2568 85.3648 17.1736C85.3488 16.9312 85.532 16.7216 85.7744 16.7056C86.0152 16.6904 86.2264 16.8728 86.2424 17.1152C86.3784 19.1664 86.912 21.2344 87.7856 23.0952C87.8672 23.268 87.8272 23.4736 87.6872 23.604C86.668 24.5528 86.068 25.0496 84.596 25.0832C84.5936 25.084 84.5904 25.084 84.5864 25.084Z" fill="#1B1464"/>
<path d="M81.0547 20.8339C81.6962 20.7918 82.1589 19.8831 82.0881 18.8042C82.0172 17.7253 81.4398 16.8848 80.7983 16.9269C80.1568 16.969 79.6941 17.8778 79.7649 18.9567C79.8358 20.0355 80.4132 20.876 81.0547 20.8339Z" fill="#1B1464"/>
<path d="M89.9432 20.5842C90.5847 20.5421 91.0473 19.6334 90.9765 18.5545C90.9057 17.4756 90.3282 16.6351 89.6867 16.6772C89.0452 16.7193 88.5826 17.6281 88.6534 18.707C88.7242 19.7858 89.3016 20.6263 89.9432 20.5842Z" fill="#1B1464"/>
<path d="M91.9439 16.948C91.8191 16.948 91.6943 16.8952 91.6079 16.792C90.0575 14.9584 88.2351 14.9944 88.2175 14.9936C87.9719 15.0024 87.7719 14.8104 87.7639 14.5672C87.7559 14.324 87.9471 14.1216 88.1903 14.1136C88.2815 14.1112 90.4583 14.068 92.2807 16.2232C92.4375 16.4088 92.4143 16.6864 92.2287 16.8432C92.1447 16.9136 92.0439 16.948 91.9439 16.948Z" fill="#1B1464"/>
<path d="M76.8672 17.6728C76.8368 17.6728 76.8064 17.6696 76.7752 17.6632C76.5376 17.6136 76.3856 17.3768 76.4352 17.1392C76.4544 17.0464 76.964 14.844 81.4616 13.592C81.696 13.5272 81.9384 13.664 82.0032 13.8976C82.068 14.132 81.9312 14.3744 81.6976 14.4392C77.7792 15.5304 77.3 17.308 77.2952 17.3256C77.2512 17.5336 77.0704 17.6728 76.8672 17.6728Z" fill="#1B1464"/>
<path d="M84.6776 29.6104C84.3296 29.6104 83.968 29.5592 83.6048 29.4552C82.7592 29.2128 82.0024 28.7304 81.3352 28.3048C81.1304 28.1744 81.0704 27.9016 81.2008 27.6976C81.3312 27.4928 81.6032 27.4328 81.808 27.5632C82.4544 27.976 83.1232 28.4032 83.8456 28.6096C84.5952 28.824 85.3136 28.7536 85.8168 28.4168C86.0184 28.2816 86.292 28.336 86.4272 28.5376C86.5624 28.7392 86.508 29.0128 86.3064 29.148C85.8504 29.4536 85.2856 29.6104 84.6776 29.6104Z" fill="#1B1464"/>
<path d="M68.7089 24.1712C68.4041 22.8256 68.7409 21.304 68.8073 19.9328C68.8161 19.7592 68.8313 19.568 68.9465 19.4456C69.1801 19.1968 69.5617 19.4192 69.8769 19.5232C70.4609 19.7152 71.1161 19.4064 71.5025 18.9016C71.9585 18.3064 72.0905 17.5016 72.1105 16.7328C72.1217 16.2976 72.0865 15.9264 71.9161 15.5368C71.8129 15.3024 71.5865 14.6352 71.3353 14.548C72.3649 14.9032 73.6145 14.844 74.3801 14.0296C74.6089 13.7864 74.7817 13.4896 74.9289 13.1832C75.3201 12.3672 75.7049 10.9184 74.9665 10.2032C75.6793 10.9208 76.6977 11.4392 77.6945 11.1928C78.7113 10.9408 79.4833 9.63922 78.9937 8.65682C79.5017 9.72962 80.1369 10.9152 81.2313 11.2024C82.4489 11.5224 83.7841 10.284 83.6545 8.95442C84.1905 10.3016 85.0121 11.6472 86.2985 12.1592C87.5841 12.6712 89.3465 11.9016 89.4785 10.4448C89.4433 10.8272 89.2929 11.236 89.3121 11.616C89.3841 13.032 90.6601 14.1216 91.7297 14.7504C92.7537 15.352 93.9561 16.0184 95.1849 15.8128C96.3473 15.6192 96.9233 14.64 97.0945 13.4664C97.2065 12.6976 97.1569 11.828 96.6529 11.2648C96.0865 12.156 95.0337 12.6656 94.0313 12.5352C94.6081 12.1952 95.0377 11.5032 94.9409 10.8088C94.8257 9.97442 94.0185 9.64722 93.3497 9.80722C94.0153 8.95442 94.8905 8.32002 94.8409 7.05442C94.7857 5.65042 93.6545 4.21922 92.5449 3.58882C91.9665 3.26002 91.2889 3.06962 90.6505 3.22722C90.0121 3.38482 89.4385 3.95442 89.3881 4.65122C89.2209 3.28322 88.3481 2.09202 87.2585 1.34882C86.1689 0.60562 84.8793 0.26162 83.5961 0.08242C82.7753 -0.03278 81.9025 -0.07678 81.1585 0.30962C80.4145 0.69602 79.8681 1.64402 80.1513 2.47282C79.1937 0.97442 77.4713 0.17522 75.7737 0.06242C74.0761 -0.05038 72.3929 0.44562 70.8057 1.09842C70.2017 1.34722 69.5729 1.64722 69.2097 2.21842C68.4249 3.45362 69.2849 5.09762 70.1817 6.24162C69.6473 5.06722 68.2081 4.79682 66.9841 4.77042C65.7081 4.74322 64.1785 4.98882 63.6441 6.22402C63.0641 7.56322 64.0657 9.03682 64.9993 10.124C63.6193 9.50722 61.8305 10.7008 61.7481 12.2936C61.6657 13.8864 63.3201 15.2832 64.7561 14.8312C64.4081 14.36 63.6329 14.544 63.3249 15.0464C63.0169 15.548 63.0601 16.2056 63.1881 16.7896C63.3953 17.7392 63.7977 18.64 64.3577 19.4112C64.7889 20.0048 65.7409 20.4808 66.0929 19.8304C65.0753 19.9296 64.1529 20.7448 63.8729 21.7928C63.5929 22.84 63.9745 24.052 64.7905 24.7072C65.1529 24.9984 65.6209 25.1864 66.0617 25.0728C66.5025 24.9592 66.8673 24.468 66.7561 23.9992C66.3137 23.8016 65.7865 24.1776 65.6393 24.664C65.4921 25.1504 65.6321 25.684 65.8377 26.1456C66.2081 26.9784 66.7969 27.6984 67.5193 28.204C67.6833 28.3184 67.8705 28.4264 68.0641 28.3968C68.3593 28.352 68.5289 28.02 68.6281 27.7208C69.0233 26.532 68.9785 25.3728 68.7089 24.1712Z" fill="#444DF2"/>
<path d="M69.2865 16.156C68.7753 15.552 68.0609 15.1496 67.0857 15.1272C65.6529 15.0944 64.2809 16.0816 63.7625 17.4184C62.9281 19.5712 64.3233 22.1984 66.2041 23.3088C67.8745 24.2944 69.8353 23.72 70.3225 21.7704C70.5385 20.9056 70.4537 19.9984 70.3665 19.1112C70.2625 18.0424 69.9425 16.932 69.2865 16.156Z" fill="#F4C19F"/>
<path d="M66.1465 21.5096C65.9209 21.5096 65.7289 21.3368 65.7089 21.108C65.6441 20.3624 65.9361 19.9144 66.1921 19.6696C66.6585 19.224 67.3393 19.108 67.8329 19.0896C67.7585 18.9208 67.6497 18.78 67.5049 18.6648C66.8473 18.1416 65.6649 18.3032 65.6529 18.3048C65.4129 18.3424 65.1881 18.176 65.1521 17.936C65.1153 17.696 65.2809 17.4712 65.5209 17.4352C65.5841 17.4256 67.0865 17.2088 68.0521 17.976C68.5145 18.344 68.7753 18.8624 68.8257 19.516C68.8361 19.648 68.7857 19.7784 68.6897 19.8696C68.5929 19.9608 68.4609 20.0032 68.3289 19.9864C68.0361 19.9488 67.1889 19.9328 66.7985 20.3072C66.6273 20.472 66.5577 20.7088 66.5857 21.032C66.6065 21.2744 66.4273 21.4872 66.1857 21.5088C66.1721 21.5088 66.1593 21.5096 66.1465 21.5096Z" fill="#EAAA7F"/>
<path d="M83.5551 35.8256C83.4311 35.8256 81.3655 35.8144 78.7183 35.1288C76.2383 34.4864 72.7711 33.1024 70.3407 30.16C70.1863 29.9728 70.2127 29.6952 70.3999 29.5408C70.5871 29.3864 70.8647 29.4128 71.0191 29.6C73.2943 32.3544 76.5695 33.66 78.9159 34.2712C81.4815 34.9392 83.5311 34.9456 83.5567 34.9456C83.7999 34.9456 83.9967 35.1424 83.9967 35.3848C83.9967 35.628 83.8007 35.8248 83.5575 35.8256C83.5575 35.8256 83.5567 35.8256 83.5551 35.8256Z" fill="#1B1464"/>
</g>
<rect x="61" y="1" width="38" height="38" rx="19" stroke="white" stroke-width="2"/>
<defs>
<clipPath id="clip0_33902_13936">
<rect width="40" height="40" rx="20" fill="white"/>
</clipPath>
<clipPath id="clip1_33902_13936">
<rect x="30" width="40" height="40" rx="20" fill="white"/>
</clipPath>
<clipPath id="clip2_33902_13936">
<rect x="60" width="40" height="40" rx="20" fill="white"/>
</clipPath>
</defs>
</svg>
