<svg width="16" height="16" viewBox="0 0 16 16" fill="none" xmlns="http://www.w3.org/2000/svg">
<mask id="mask0_210_922" style="mask-type:alpha" maskUnits="userSpaceOnUse" x="0" y="0" width="16" height="16">
<rect width="16" height="16" fill="#D9D9D9"/>
</mask>
<g mask="url(#mask0_210_922)">
<path d="M4.8333 13.3333C4.62219 13.3333 4.44997 13.25 4.31663 13.0833C4.1833 12.9166 4.14441 12.7333 4.19997 12.5333L4.66663 10.6666H3.1833C2.96108 10.6666 2.7833 10.5806 2.64997 10.4086C2.51663 10.2362 2.47774 10.0444 2.5333 9.83329C2.56663 9.67774 2.64441 9.55551 2.76663 9.46663C2.88885 9.37774 3.02774 9.33329 3.1833 9.33329H4.99997L5.66663 6.66663H3.84997C3.62774 6.66663 3.44997 6.58063 3.31663 6.40863C3.1833 6.23618 3.14441 6.0444 3.19997 5.83329C3.2333 5.67774 3.31108 5.55551 3.4333 5.46663C3.55552 5.37774 3.69441 5.33329 3.84997 5.33329H5.99997L6.54997 3.14996C6.5833 3.00551 6.65552 2.88885 6.76663 2.79996C6.87774 2.71107 7.01108 2.66663 7.16663 2.66663C7.37774 2.66663 7.54997 2.74996 7.6833 2.91663C7.81663 3.08329 7.85552 3.26663 7.79997 3.46663L7.3333 5.33329H9.99997L10.55 3.14996C10.5833 3.00551 10.6555 2.88885 10.7666 2.79996C10.8777 2.71107 11.0111 2.66663 11.1666 2.66663C11.3777 2.66663 11.55 2.74996 11.6833 2.91663C11.8166 3.08329 11.8555 3.26663 11.8 3.46663L11.3333 5.33329H12.8166C13.0389 5.33329 13.2166 5.41929 13.35 5.59129C13.4833 5.76374 13.5222 5.95551 13.4666 6.16663C13.4333 6.32218 13.3555 6.4444 13.2333 6.53329C13.1111 6.62218 12.9722 6.66663 12.8166 6.66663H11L10.3333 9.33329H12.15C12.3722 9.33329 12.55 9.41929 12.6833 9.59129C12.8166 9.76374 12.8555 9.95551 12.8 10.1666C12.7666 10.3222 12.6889 10.4444 12.5666 10.5333C12.4444 10.6222 12.3055 10.6666 12.15 10.6666H9.99997L9.44997 12.85C9.41663 12.9944 9.34441 13.1111 9.2333 13.2C9.12219 13.2888 8.98885 13.3333 8.8333 13.3333C8.62219 13.3333 8.44997 13.25 8.31663 13.0833C8.1833 12.9166 8.14441 12.7333 8.19997 12.5333L8.66663 10.6666H5.99997L5.44997 12.85C5.41663 12.9944 5.34441 13.1111 5.2333 13.2C5.12219 13.2888 4.98885 13.3333 4.8333 13.3333ZM6.3333 9.33329H8.99997L9.66663 6.66663H6.99997L6.3333 9.33329Z" fill="#797EF3"/>
</g>
</svg>
