<svg width="40" height="40" viewBox="0 0 40 40" fill="none" xmlns="http://www.w3.org/2000/svg">
<rect width="40" height="40" rx="20" fill="#ECEEFE"/>
<mask id="mask0_1823_21502" style="mask-type:alpha" maskUnits="userSpaceOnUse" x="8" y="8" width="24" height="24">
<rect x="8" y="8" width="24" height="24" fill="#D9D9D9"/>
</mask>
<g mask="url(#mask0_1823_21502)">
<path d="M20 30.8C18.5 30.8 17.0956 30.5167 15.787 29.9501C14.479 29.3834 13.3376 28.6127 12.363 27.6381C11.3876 26.6627 10.6166 25.5207 10.05 24.212C9.48328 22.904 9.19995 21.5 9.19995 20C9.19995 18.5 9.48328 17.0917 10.05 15.775C10.6166 14.4584 11.3876 13.3127 12.363 12.338C13.3376 11.3627 14.479 10.5957 15.787 10.037C17.0956 9.47905 18.5 9.20005 20 9.20005C20.7666 9.20005 21.5126 9.27505 22.238 9.42505C22.9626 9.57505 23.65 9.79172 24.3 10.075C24.1166 10.3584 23.9666 10.6584 23.85 10.975C23.7333 11.2917 23.675 11.6334 23.675 12C23.675 12.1334 23.6833 12.2624 23.7 12.387C23.7166 12.5124 23.7416 12.6417 23.775 12.775C23.2083 12.475 22.6083 12.2457 21.975 12.087C21.3416 11.929 20.6833 11.85 20 11.85C17.7333 11.85 15.8083 12.6417 14.225 14.225C12.6416 15.8084 11.85 17.7334 11.85 20C11.85 22.2667 12.6416 24.1917 14.225 25.775C15.8083 27.3584 17.7333 28.15 20 28.15C22.2666 28.15 24.1916 27.3584 25.775 25.775C27.3583 24.1917 28.15 22.2667 28.15 20C28.15 19.4667 28.1 18.95 28 18.45C27.9 17.95 27.7583 17.4667 27.575 17C27.7916 17.1 28.021 17.179 28.263 17.237C28.5043 17.2957 28.75 17.325 29 17.325C29.25 17.325 29.4916 17.3 29.725 17.25C29.9583 17.2 30.1833 17.125 30.4 17.025C30.5333 17.5084 30.6333 17.996 30.7 18.488C30.7666 18.9794 30.7999 19.4834 30.7999 20C30.7999 21.5 30.5206 22.904 29.962 24.212C29.4039 25.5207 28.6376 26.6627 27.663 27.6381C26.6876 28.6127 25.5416 29.3834 24.225 29.9501C22.9083 30.5167 21.5 30.8 20 30.8ZM23.7 19.2C24.2 19.2 24.6166 19.0334 24.95 18.7C25.2833 18.3667 25.45 17.95 25.45 17.45C25.45 16.95 25.2833 16.5334 24.95 16.2C24.6166 15.8667 24.2 15.7 23.7 15.7C23.2 15.7 22.7833 15.8667 22.45 16.2C22.1166 16.5334 21.95 16.95 21.95 17.45C21.95 17.95 22.1166 18.3667 22.45 18.7C22.7833 19.0334 23.2 19.2 23.7 19.2ZM16.3 19.2C16.8 19.2 17.2166 19.0334 17.55 18.7C17.8833 18.3667 18.05 17.95 18.05 17.45C18.05 16.95 17.8833 16.5334 17.55 16.2C17.2166 15.8667 16.8 15.7 16.3 15.7C15.8 15.7 15.3833 15.8667 15.05 16.2C14.7166 16.5334 14.55 16.95 14.55 17.45C14.55 17.95 14.7166 18.3667 15.05 18.7C15.3833 19.0334 15.8 19.2 16.3 19.2ZM20 26C21.3833 26 22.5666 25.6124 23.55 24.837C24.5333 24.0624 25.2166 23.1334 25.6 22.05H14.4C14.7833 23.1334 15.4666 24.0624 16.45 24.837C17.4333 25.6124 18.6166 26 20 26ZM27.6749 13.325H27C26.6333 13.325 26.3206 13.1957 26.062 12.937C25.804 12.679 25.6749 12.3667 25.6749 12C25.6749 11.6334 25.804 11.3207 26.062 11.062C26.3206 10.804 26.6333 10.675 27 10.675H27.6749V10C27.6749 9.63338 27.804 9.32072 28.062 9.06205C28.3206 8.80405 28.6333 8.67505 29 8.67505C29.3666 8.67505 29.6793 8.80405 29.938 9.06205C30.1959 9.32072 30.325 9.63338 30.325 10V10.675H31C31.3666 10.675 31.6793 10.804 31.938 11.062C32.1959 11.3207 32.325 11.6334 32.325 12C32.325 12.3667 32.1959 12.679 31.938 12.937C31.6793 13.1957 31.3666 13.325 31 13.325H30.325V14C30.325 14.3667 30.1959 14.6794 29.938 14.938C29.6793 15.196 29.3666 15.325 29 15.325C28.6333 15.325 28.3206 15.196 28.062 14.938C27.804 14.6794 27.6749 14.3667 27.6749 14V13.325Z" fill="#535AF1"/>
</g>
</svg>
