<?xml version="1.0" encoding="utf-8"?>
<!-- Generator: Adobe Illustrator 28.0.0, SVG Export Plug-In . SVG Version: 6.00 Build 0)  -->
<svg version="1.1" id="Layer_1" xmlns="http://www.w3.org/2000/svg" xmlns:xlink="http://www.w3.org/1999/xlink" x="0px" y="0px"
	 viewBox="0 0 48 48" style="enable-background:new 0 0 48 48;" xml:space="preserve">
<style type="text/css">
	.st0{fill:#FEF8AD;}
</style>
<g>
	<path class="st0" d="M21.03,4.34c5.08,0,10.16,0.12,15.23-0.05c2.99-0.1,4.46,0.83,4.15,4c-0.15,1.47-0.01,2.97-0.03,4.45
		c-0.04,2.7-0.65,5.67,3.88,5.09c1.67-0.21,2.08,1.39,2.08,2.9c-0.01,4.83-0.06,9.66,0.02,14.48c0.04,2.35-0.88,3.5-3.28,3.32
		c-2.01-0.15-3.2,0.43-2.42,2.74c0.95,2.81-0.57,2.69-2.44,2.01c-0.68-0.25-1.6-0.58-1.86-1.13c-2.15-4.54-6.2-3.62-9.94-3.61
		c-1.96,0.01-3.8,0.02-3.9-2.72c-0.04-1.11,0.64-2.78-1.12-3.09c-1.65-0.3-3.47-0.61-4.84,0.97c-1.64,1.89-3.48,3.51-5.89,4.38
		c-0.83,0.3-1.69,0.71-2.45,0.09c-0.91-0.75-0.24-1.62,0.15-2.33c1.59-2.9,0.12-3.52-2.42-3.23c-3.25,0.37-4.38-0.98-4.28-4.24
		C1.85,21.7,1.83,15.01,1.66,8.33C1.58,5.19,2.78,4.19,5.8,4.3C10.87,4.47,15.95,4.34,21.03,4.34z M21.16,5.84
		c-4.95,0-9.9,0.11-14.84-0.05c-2.46-0.08-3.21,0.8-3.16,3.2C3.3,14.93,3.38,20.88,3.13,26.8c-0.14,3.33,0.73,4.84,4.27,4.36
		c1.17-0.16,2.82-0.64,3.23,1.46c0.18,0.93-0.74,2.57,1.02,2.65c1.24,0.06,2.42-0.86,2.98-1.97c1.01-2.03,2.62-2.26,4.61-2.23
		c5.57,0.09,11.14-0.06,16.7,0.07c2.28,0.05,3.02-0.74,2.98-3c-0.11-6.43-0.14-12.87,0.01-19.3c0.06-2.58-1.01-3.12-3.3-3.06
		C30.81,5.93,25.99,5.84,21.16,5.84z M44.83,28.29c0-2.23-0.06-4.45,0.02-6.68c0.06-1.74-0.63-2.44-2.4-2.41
		c-1.68,0.03-2.1,0.86-2.08,2.33c0.04,2.6-0.06,5.2,0.02,7.79c0.08,2.38-0.96,3.36-3.33,3.3c-3.58-0.09-7.17,0.02-10.76-0.03
		c-2.87-0.04-2.52,1.88-2.04,3.54c0.4,1.39,1.87,0.84,2.91,0.9c3.6,0.23,7.66-1.28,9.83,3.5c0.66,1.45,1.88,0.78,1.85-0.88
		c-0.03-1.54,0.26-2.87,2.18-2.57c3.68,0.57,4.09-1.49,3.83-4.35C44.72,31.27,44.84,29.77,44.83,28.29z"/>
	<path class="st0" d="M9.64,19.5c5.62,0,11.24,0,16.85,0c0.01,0.25,0.01,0.5,0.02,0.74c-5.62,0-11.24,0-16.86,0
		C9.65,19.99,9.65,19.75,9.64,19.5z"/>
	<path class="st0" d="M23.53,15.9c-4.63,0-9.25,0-13.88,0c-0.02-0.21-0.03-0.42-0.05-0.63c4.63,0,9.27,0,13.9,0
		C23.51,15.49,23.52,15.7,23.53,15.9z"/>
</g>
</svg>
