<?xml version="1.0" encoding="UTF-8"?>
<svg id="Layer_1" data-name="Layer 1" xmlns="http://www.w3.org/2000/svg" viewBox="0 0 40.83 42.29">
  <defs>
    <style>
      .cls-1 {
        fill: #fdf6b8;
      }

      .cls-1, .cls-2 {
        stroke-width: 0px;
      }

      .cls-2 {
        fill: #fef8d1;
      }
    </style>
  </defs>
  <path class="cls-1" d="m22.48,0c3.05,6.54,8.55,8.96,15.39,9.14,1.08.03,2.26,0,2.69,1.2.43,1.21.39,2.36-.36,3.64-2.71,4.61-1.99,9.47-.46,14.24.42,1.3,1.6,2.43.74,3.9-.81,1.38-2.27,1.09-3.51.99-5.29-.43-8.82,3.35-13.08,5.38-.4.19-.7.97-.74,1.49-.1,1.62-.92,2.26-2.48,2.31-1.53.05-2.76-.28-3.51-1.77-2.59-5.1-7.44-6.83-12.51-7.3-5.22-.49-5.25-.65-3.44-5.45,1.66-4.42,1.85-9.37-.32-13.87-1.63-3.39-1.13-4.58,2.38-4.78,6.75-.37,12.31-2.9,15.69-9.12h3.53Zm-12.92,26.55c0,.97-.57,1.23-1.05,1.54-3.05,2.01-3.02,2.49.3,4.22,1.56.81,3.1,1.68,4.73,2.32,1.48.58,2.49,2.16,4.41,1.83,2.16-.37,1.21-2.75,2.44-3.86,1.6,4.66,2.15,4.83,6.42,2.34,1.31-.77,2.7-1.41,4.06-2.1q4.37-2.21.61-5.32c-.22-.18-.24-.6-.37-.95q6.13.85,6.13-5.73c0-.12,0-.23,0-.35q0-6.19-5.68-4.54c-.08.02-.26-.31-.39-.47,0-.72.57-.98,1.05-1.29,3.05-2.01,3.02-2.49-.31-4.22-1.56-.81-3.15-1.56-4.71-2.38-1.41-.74-2.54-2.07-4.42-1.77-2.17.34-1.22,2.74-2.44,3.86-1.59-4.6-1.87-4.7-6.08-2.46-1.45.77-2.93,1.48-4.4,2.22q-4.37,2.21-.61,5.32c.22.18.24.6.34.88-.62.6-1.13.19-1.65-.01-3.51-1.34-4.41-.74-4.45,3-.02,1.99-.04,3.99,0,5.98.05,2.57,1.35,3.28,3.71,2.42.71-.26,1.33-1.06,2.36-.47Z"/>
  <path class="cls-1" d="m20.05,29.19c4.61-1.95,8.64-3.03,7.59-8.75,2.05,3.8,1.62,5.49-1.37,7.32-5.89,3.6-8.03,3.44-13.36-.83-.72-.58-1.07-1.18-1.05-2.06.02-.82,0-1.64,0-2.46,0-6.67,1.24-8.39,7.44-10.59,2.33-.82,3.7.92,5.33,1.87,1.36.8,3.77,1.03,3.81,2.64.04,1.92-2.38,2.35-3.92,2.99-2.64,1.08-3.95,2.7-3.44,5.62.2,1.14-.14,2.28-1.02,4.24Zm-5.99-12.22c6.86,2.41,7.81,2.42,10.47.69,1.22-.79,1.4-1.21.11-2.21-3.66-2.84-4.61-2.78-10.58,1.51Z"/>
  <path class="cls-2" d="m14.06,16.98c5.97-4.29,6.92-4.35,10.58-1.51,1.29,1,1.1,1.42-.11,2.21-2.66,1.72-3.61,1.72-10.47-.69Z"/>
</svg>