<!-- icon666.com - MILLIONS vector ICONS FREE --><svg id="Layer_1" enable-background="new 0 0 512 512" viewBox="0 0 512 512" xmlns="http://www.w3.org/2000/svg"><path d="m256 0c-141.2 0-256 114.8-256 256s114.8 256 256 256 256-114.8 256-256-114.8-256-256-256zm0 480c-123.5 0-224-100.5-224-224s100.5-224 224-224 224 100.5 224 224-100.5 224-224 224zm101.2-314.2-95.4-37.2c-3.7-1.5-7.9-1.5-11.6 0l-95.4 37.2c-6.2 2.4-10.2 8.4-10.2 15 .1 6.8.3 13.5.6 19.8 1.3 26.7 4.3 52.9 9.1 78 3.1 16.2 12.9 33.5 29.1 51.3s40.2 37.3 64.2 52.1c2.6 1.6 5.5 2.4 8.4 2.4s5.8-.8 8.4-2.4c24-14.9 48-34.4 64.2-52.1 16.2-17.8 26-35.1 29.1-51.4 4.7-24.9 7.8-51.1 9.1-77.9.3-7 .6-13.6.6-19.8.1-6.5-4-12.6-10.2-15zm-22.4 33.4c-1.2 25.3-4.1 50.1-8.5 73.5-2 10.2-9.3 22.6-21.3 35.8-12.2 13.4-30.4 28.6-48.9 41-18.5-12.4-36.7-27.6-48.9-41-12-13.2-19.4-25.6-21.3-35.8-4.5-23.5-7.4-48.3-8.5-73.4-.1-2.5-.2-5-.3-7.6l79.1-30.9 79.1 30.9c-.3 2.3-.4 4.9-.5 7.5zm-94.1 59.1 44.1-39.7c6.6-5.9 16.7-5.4 22.6 1.2s5.4 16.7-1.2 22.6l-54.9 49.4c-3 2.7-6.9 4.1-10.7 4.1-3.9 0-7.7-1.4-10.8-4.2l-24.1-21.9c-6.5-5.9-7-16.1-1.1-22.6s16.1-7 22.6-1.1z" fill="#000000" style="fill: rgb(50, 220, 89);"></path></svg>