<?xml version="1.0" encoding="UTF-8"?>
<svg id="Capa_1" data-name="Capa 1" xmlns="http://www.w3.org/2000/svg" viewBox="0 0 401.62 516.38">
  <defs>
    <style>
      .cls-1 {
        fill: #fff9ae;
        stroke-width: 0px;
      }
    </style>
  </defs>
  <path class="cls-1" d="m200.81,286.88c-26.77,0-47.81,21.04-47.81,47.81,0,15.3,7.65,28.69,19.12,38.25v38.25c0,15.3,13.39,28.69,28.69,28.69s28.69-13.39,28.69-28.69v-38.25c11.48-9.56,19.12-22.95,19.12-38.25,0-26.78-21.04-47.81-47.81-47.81Zm9.56,74.59v49.73c0,5.74-3.83,9.56-9.56,9.56s-9.56-3.83-9.56-9.56v-49.73c-11.48-3.83-19.12-15.3-19.12-26.77,0-15.3,13.39-28.69,28.69-28.69s28.69,13.39,28.69,28.69c0,13.39-7.65,22.95-19.13,26.77Z"/>
  <path class="cls-1" d="m344.25,210.38v-66.94C344.25,65.03,279.23,0,200.81,0S57.38,65.03,57.38,143.44v66.94c-32.51,0-57.38,24.86-57.38,57.38v191.25c0,32.51,24.86,57.38,57.38,57.38h286.88c32.51,0,57.38-24.86,57.38-57.38v-191.25c0-30.6-24.86-57.38-57.38-57.38ZM76.5,143.44c0-68.85,55.46-124.31,124.31-124.31s124.31,55.46,124.31,124.31v66.94h-19.12v-66.94c0-57.38-47.81-105.19-105.19-105.19s-105.19,47.81-105.19,105.19v66.94h-19.12v-66.94Zm210.38,0v66.94H114.75v-66.94c0-47.81,38.25-86.06,86.06-86.06s86.06,38.25,86.06,86.06Zm95.62,315.56c0,21.04-17.21,38.25-38.25,38.25H57.38c-21.04,0-38.25-17.21-38.25-38.25v-191.25c0-21.04,17.21-38.25,38.25-38.25h286.88c21.04,0,38.25,17.21,38.25,38.25v191.25Z"/>
</svg>