<svg width="40" height="40" viewBox="0 0 40 40" fill="none" xmlns="http://www.w3.org/2000/svg">
<mask id="mask0_1823_21497" style="mask-type:alpha" maskUnits="userSpaceOnUse" x="8" y="8" width="24" height="24">
<rect x="8" y="8" width="24" height="24" fill="#D9D9D9"/>
</mask>
<g mask="url(#mask0_1823_21497)">
<path d="M20 28C19.45 28 18.9792 27.8042 18.5875 27.4125C18.1958 27.0208 18 26.55 18 26C18 25.45 18.1958 24.9792 18.5875 24.5875C18.9792 24.1958 19.45 24 20 24C20.55 24 21.0208 24.1958 21.4125 24.5875C21.8042 24.9792 22 25.45 22 26C22 26.55 21.8042 27.0208 21.4125 27.4125C21.0208 27.8042 20.55 28 20 28ZM20 22C19.45 22 18.9792 21.8042 18.5875 21.4125C18.1958 21.0208 18 20.55 18 20C18 19.45 18.1958 18.9792 18.5875 18.5875C18.9792 18.1958 19.45 18 20 18C20.55 18 21.0208 18.1958 21.4125 18.5875C21.8042 18.9792 22 19.45 22 20C22 20.55 21.8042 21.0208 21.4125 21.4125C21.0208 21.8042 20.55 22 20 22ZM20 16C19.45 16 18.9792 15.8042 18.5875 15.4125C18.1958 15.0208 18 14.55 18 14C18 13.45 18.1958 12.9792 18.5875 12.5875C18.9792 12.1958 19.45 12 20 12C20.55 12 21.0208 12.1958 21.4125 12.5875C21.8042 12.9792 22 13.45 22 14C22 14.55 21.8042 15.0208 21.4125 15.4125C21.0208 15.8042 20.55 16 20 16Z" fill="#1C1B1F"/>
</g>
</svg>
