<!-- icon666.com - MILLIONS vector ICONS FREE --><svg id="Layer_1" enable-background="new 0 0 450 450" viewBox="0 0 450 450" xmlns="http://www.w3.org/2000/svg"><g><g><g id="XMLID_2_"><path d="m128.3 147.7-29.8 29.6v-17.9h-87v-23.3h87v-18z" fill="#000000" style="fill: rgb(50, 220, 89);"></path><path d="m130.5 216.4v23.3h-87v17.9l-29.9-29.5 29.9-29.6v17.9z" fill="#000000" style="fill: rgb(50, 220, 89);"></path><path d="m65.3 415.4-12.4 3.3c-6.8 1.8-13.9-2.2-15.7-9.1l-26.7-99.7c-.9-3.3-.4-6.7 1.3-9.7s4.5-5.1 7.8-6l12.4-3.3z" fill="#000000" style="fill: rgb(50, 220, 89);"></path><path d="m202.4 428.7c-19.8 6.4-29.7 9.6-40 7.7-10.7-2-23.4-9.4-48.6-24.2-5.2-3-10.9-6.4-17.2-10.1-1.1-.6-2.2-1.3-3.3-2-6.6-4-14.5-8.8-23.6-7.7l-22.7-84.5c36.4-15.7 55.9-3.4 85.1 15.1l71.2 41.8c16.5 9.5 1.9 35.3-14.8 25.6l-50.6-29.2c-2.3-1.3-5.4-.8-6.9 1.3-1.8 2.5-1 5.9 1.6 7.4l50.8 29.3c5.8 3.3 12.5 4.2 19 2.5s11.9-5.9 15.2-11.6c1.4-2.5 2.4-5.1 2.9-7.9l85.1-22.8c5-1.3 10.1-.6 14.6 2s7.7 6.7 9 11.7.6 10.1-1.9 14.6c-2.6 4.5-6.8 7.7-11.7 9z" fill="#000000" style="fill: rgb(50, 220, 89);"></path><path d="m207.3 270.4v32.2h-.7c-13.6 0-24.7-11-24.7-24.7v-7.5z" fill="#000000" style="fill: rgb(50, 220, 89);"></path><path d="m330.8 270.4v7.5c0 13.6-11 24.7-24.7 24.7h-.6v-32.2z" fill="#000000" style="fill: rgb(50, 220, 89);"></path><path d="m266.3 236.8c.1 5.6-4.4 10.1-9.9 10.1s-9.9-4.4-9.9-9.9c0-5.6 4.6-10.1 10.2-9.9 5.2.2 9.5 4.5 9.6 9.7z" fill="#000000" style="fill: rgb(50, 220, 89);"></path><path d="m330.8 242.1v18h-30.4c-2.8 0-5.1 2.3-5.1 5.1v37.3h-77.7v-37.3c0-2.8-2.3-5.1-5.1-5.1h-30.5v-18h55c2.3 8.6 10.1 15 19.5 15 9.3 0 17.2-6.4 19.5-15z" fill="#000000" style="fill: rgb(50, 220, 89);"></path><path d="m330.8 216.3v15.6h-54.9c-2.3-8.6-10.1-15-19.5-15-9.3 0-17.2 6.4-19.5 15h-54.9v-15.5c0-13.6 11.1-24.7 24.7-24.7h99.5c13.6 0 24.6 11 24.6 24.6z" fill="#000000" style="fill: rgb(50, 220, 89);"></path><path d="m247.6 21.3c19.7-6.4 29.7-9.6 40-7.7 10.7 2 23.4 9.4 48.6 24.2 5.2 3 10.9 6.4 17.2 10.1 1.1.6 2.2 1.3 3.3 2 6.6 4 14.5 8.8 23.6 7.7l22.7 84.6c-36.4 15.7-56 3.4-85.1-15.1-6.4-4.1-13.1-8.3-20.4-12.5l-50.8-29.3c-16.5-9.5-1.9-35.3 14.8-25.6l50.6 29.2c2.3 1.3 5.4.8 6.9-1.3 1.8-2.5 1-5.9-1.6-7.4l-50.8-29.3c-12-6.9-27.3-2.8-34.2 9.2-1.4 2.5-2.4 5.1-2.9 7.9l-85.1 22.8c-4.9 1.3-10.1.6-14.6-2s-7.7-6.8-9-11.7c-2.8-10.3 3.4-20.9 13.6-23.6z" fill="#000000" style="fill: rgb(50, 220, 89);"></path><path d="m384.8 34.6 12.4-3.3c6.8-1.8 13.9 2.2 15.7 9.1l26.7 99.7c.9 3.3.4 6.7-1.3 9.7s-4.5 5.1-7.8 6l-12.4 3.3z" fill="#000000" style="fill: rgb(50, 220, 89);"></path><path d="m296.1 170.8v10.7h-10.2v-10.7c0-5.9-4.8-10.7-10.7-10.7h-37.6c-5.9 0-10.7 4.8-10.7 10.7v10.7h-10.2v-10.7c0-11.5 9.4-20.9 20.9-20.9h37.6c11.6 0 20.9 9.3 20.9 20.9z" fill="#000000" style="fill: rgb(50, 220, 89);"></path></g></g></g></svg>