<svg width="48" fill="#FFF9AD" xmlns="http://www.w3.org/2000/svg" height="48" viewBox="0 0 48 48" xmlns:xlink="http://www.w3.org/1999/xlink" enable-background="new 0 0 16 16">
<path d="m15,30h-12c-1.656,0-3,1.344-3,3v12c0,1.659 1.344,3 3,3h12c1.656,0 3-1.341 3-3v-12c0-1.656-1.344-3-3-3zm-3,12h-6v-6h6v6zm33-42h-12c-1.659,0-3,1.344-3,3v12c0,1.656 1.341,3 3,3h12c1.659,0 3-1.344 3-3v-12c0-1.656-1.341-3-3-3zm-3,12h-6v-6h6v6zm-21-9c1.656,0 3,1.344 3,3 0,1.656-1.344,3-3,3h-6c-1.656,0-3,1.344-3,3h3c1.212,0 2.31,.732 2.772,1.851 .462,1.122 .207,2.412-.651,3.27l-6,6c-.585,.585-1.353,.879-2.121,.879-.768,0-1.536-.294-2.121-.879l-6-6c-.855-.858-1.113-2.148-.651-3.27 .462-1.119 1.56-1.851 2.772-1.851h3c0-4.971 4.029-9 9-9h6Zm20.121,21.879l6,6c.855,.858 1.113,2.148 .651,3.27-.462,1.119-1.56,1.851-2.772,1.851h-3c0,4.968-4.032,9-9,9h-6c-1.659,0-3-1.344-3-3 0-1.659 1.344-3 3-3h6c1.659,0 3-1.341 3-3h-3c-1.212,0-2.31-.732-2.772-1.851-.462-1.122-.207-2.412 .651-3.27l6-6c.585-.585 1.353-.879 2.121-.879 .768,0 1.536,.294 2.121,.879Z"/>
</svg>
