<?xml version="1.0" encoding="utf-8"?>
<!-- Generator: Adobe Illustrator 24.0.1, SVG Export Plug-In . SVG Version: 6.00 Build 0)  -->
<svg version="1.1" id="Layer_1" xmlns="http://www.w3.org/2000/svg" xmlns:xlink="http://www.w3.org/1999/xlink" x="0px" y="0px"
	 viewBox="0 0 504 201" enable-background="new 0 0 504 201" xml:space="preserve">
<g>
	<g>
		<polygon fill="#AEAFB1" points="301.08,78.03 289.71,100.42 294.43,109.75 310.86,78.03 		"/>
		<polygon fill="#AEAFB1" points="255.99,78.03 283.43,130.97 288.01,122.14 265.77,78.03 		"/>
		<path fill="#AEAFB1" d="M289.71,100.42l11.37-22.39h9.78l-16.44,31.72L289.71,100.42z"/>
		<path fill="#AEAFB1" d="M283.43,130.97l-27.44-52.94h9.77l22.25,44.11L283.43,130.97z"/>
		<polygon fill="#AEAFB1" points="387.44,129.56 400.21,129.56 406.85,121.12 400.46,112.99 		"/>
		<polygon fill="#AEAFB1" points="387.44,78.03 427.93,129.56 440.7,129.56 400.21,78.03 		"/>
		<polygon fill="#AEAFB1" points="440.7,78.03 427.93,78.03 421.29,86.46 427.67,94.59 		"/>
		<path fill="#AEAFB1" d="M400.21,129.56h-12.77l13.02-16.57l6.39,8.13L400.21,129.56z"/>
		<path fill="#AEAFB1" d="M250.89,87.52h-60.49l-5.67-9.49h60.42C247.06,81.2,248.97,84.37,250.89,87.52z M242.07,108.62h-50.52
			v-9.49h44.85L242.07,108.62z M250.86,129.56h-59.31v-9.53h53.61L250.86,129.56z"/>
		<path fill="#AEAFB1" d="M359.82,129.56h-24.66l-5.67-9.49h30.33c2.84,0,5.18-0.75,7.01-2.25c1.95-1.59,3.38-3.6,4.29-6.04
			c1.01-2.55,1.51-5.22,1.51-8.02c0-2.75-0.5-5.4-1.51-7.95c-0.92-2.44-2.35-4.45-4.29-6.04c-1.83-1.5-4.17-2.25-7.01-2.25h-24.89
			c-1.79,0-3.38,0.29-4.76,0.87c-1.39,0.58-2.71,1.5-3.98,2.77c-1.26,1.26-2.19,2.59-2.77,3.98c-0.58,1.39-0.87,2.98-0.87,4.76v8.29
			h-9.49V99.9c0-4.03,0.98-7.69,2.95-11c1.97-3.31,4.61-5.95,7.92-7.92c3.31-1.97,6.98-2.95,11-2.95h24.89
			c3.49,0,6.65,0.69,9.5,2.08c2.84,1.39,5.25,3.41,7.25,6.07c3.65,4.9,5.47,10.76,5.47,17.58c0,6.82-1.82,12.68-5.47,17.58
			c-1.99,2.68-4.41,4.73-7.25,6.12C366.47,128.86,363.31,129.56,359.82,129.56z"/>
	</g>
</g>
</svg>
