<?xml version="1.0" encoding="UTF-8"?>
<svg xmlns="http://www.w3.org/2000/svg" xmlns:xlink="http://www.w3.org/1999/xlink" viewBox="0 0 402.89 404.8">
  <defs>
    <style>
      .cls-1 {
        stroke-width: .7px;
      }

      .cls-1, .cls-2, .cls-3, .cls-4, .cls-5, .cls-6, .cls-7, .cls-8, .cls-9, .cls-10 {
        stroke-miterlimit: 10;
      }

      .cls-1, .cls-2, .cls-3, .cls-4, .cls-5, .cls-7, .cls-9, .cls-10 {
        stroke: #fff;
      }

      .cls-1, .cls-2, .cls-3, .cls-11, .cls-6, .cls-10 {
        fill: #fff;
      }

      .cls-2 {
        stroke-width: .5px;
      }

      .cls-3, .cls-7, .cls-9 {
        stroke-width: 3px;
      }

      .cls-4 {
        fill: url(#radial-gradient);
      }

      .cls-4, .cls-5, .cls-8 {
        stroke-width: 5px;
      }

      .cls-5, .cls-8 {
        fill: none;
      }

      .cls-11, .cls-12, .cls-13, .cls-14, .cls-15 {
        stroke-width: 0px;
      }

      .cls-6, .cls-8 {
        stroke: #000;
      }

      .cls-6, .cls-10 {
        stroke-width: .3px;
      }

      .cls-7 {
        fill: url(#radial-gradient-3);
      }

      .cls-12 {
        fill: url(#radial-gradient-5);
      }

      .cls-9 {
        fill: url(#radial-gradient-2);
      }

      .cls-13 {
        fill: #01281d;
      }

      .cls-14 {
        fill: url(#radial-gradient-6);
      }

      .cls-15 {
        fill: url(#radial-gradient-4);
      }
    </style>
    <radialGradient id="radial-gradient" cx="201.63" cy="195.83" fx="201.63" fy="195.83" r="196.43" gradientTransform="translate(2.51 8.26) scale(.99)" gradientUnits="userSpaceOnUse">
      <stop offset="0" stop-color="#006838"/>
      <stop offset="1" stop-color="#000f03"/>
    </radialGradient>
    <radialGradient id="radial-gradient-2" cx="201.68" cy="203.05" fx="201.68" fy="203.05" r="288.14" gradientTransform="translate(2.21 -.38) scale(.99 1)" gradientUnits="userSpaceOnUse">
      <stop offset="0" stop-color="#00563e"/>
      <stop offset=".66" stop-color="#000"/>
    </radialGradient>
    <radialGradient id="radial-gradient-3" cx="201.21" cy="201.5" fx="201.21" fy="201.5" r="158.66" gradientUnits="userSpaceOnUse">
      <stop offset="0" stop-color="#00feb5"/>
      <stop offset="1" stop-color="#156e62"/>
    </radialGradient>
    <radialGradient id="radial-gradient-4" cx="203.87" cy="205.04" fx="203.87" fy="205.04" r="12.99" gradientTransform="translate(166.95 -81.26) rotate(37.53)" gradientUnits="userSpaceOnUse">
      <stop offset=".02" stop-color="#00feb5"/>
      <stop offset="1" stop-color="#000"/>
    </radialGradient>
    <radialGradient id="radial-gradient-5" cx="113.73" cy="135.91" fx="113.73" fy="135.91" r="7.09" gradientUnits="userSpaceOnUse">
      <stop offset="0" stop-color="#00feb5"/>
      <stop offset="1" stop-color="#000"/>
    </radialGradient>
    <radialGradient id="radial-gradient-6" cx="289.67" cy="271.19" fx="289.67" fy="271.19" r="7.09" xlink:href="#radial-gradient-5"/>
  </defs>
  <g id="Layer_1" data-name="Layer 1">
    <ellipse class="cls-4" cx="201.44" cy="202.4" rx="193.81" ry="194.74"/>
    <path class="cls-3" d="m101.22,40.93h100.23v61.49h161.13v100.33h-61.43v161.13h-100.23v-61.43H39.77v-100.33h61.45V40.93Zm162.18,62.66v98.24h98.17v-98.24h-98.17Zm-61.63,259.24h98.19v-98.17h-98.19v98.17Zm-161.1-61.63h98.29c.09-1.08.25-2.04.25-3.01,0-30.57-.05-61.15.03-91.72,0-2.79-.63-3.72-3.6-3.71-30.68.11-61.37.07-92.05.08-.93,0-1.86.14-2.92.23v98.12ZM200.64,42h-98.22v98.11h98.22V42Zm39.11,161.01v60.23h60.17v-60.23h-60.17Zm-37.94-99.43v60.25h60.2v-60.25h-60.2Zm-1.22,137.37h-60.24v60.18h60.24v-60.18Zm-37.9-39.08v-60.26h-60.2v60.26h60.2Zm-22.29,1.09v36.67h36.39v-36.67h-36.39Zm85.22-37.82v36.62h36.36v-36.62h-36.36Zm-25.14,12.91v-36.51h-36.5v36.51h36.5Zm37.97,48.9c-.57-.14-1.09-.37-1.6-.37-10.98-.04-21.96-.02-32.94-.09-2.25-.01-2.33,1.27-2.32,2.96.04,10.55.02,21.1.04,31.65,0,.72.21,1.43.32,2.18h36.5v-36.34Zm-36.66-61.81v22.31h22.3v-22.31h-22.3Zm36.67,37.97h-22.29v22.21h22.29v-22.21Zm-60.31,36.72c7.22,0,14.15.03,21.09-.06.5,0,1.43-.83,1.43-1.29.09-7.03.06-14.07.06-21.19h-22.59v22.54Zm-14.16-38.12h22.26v-22.33h-22.26v22.33Zm50.74,23.71v-12.63h-12.92v12.63h12.92Zm-23.77-22.3h-12.81v12.83h12.81v-12.83Zm-3.29-23.73v12.63h12.89v-12.63h-12.89Zm36.57,9.48h-12.75v12.88h12.75v-12.88Zm-31.72,27.06h8.28c0-2.37.11-4.52-.07-6.65-.05-.59-.9-1.54-1.44-1.58-2.21-.18-4.44-.08-6.78-.08v8.3Zm14.12-13v8.18h8.04v-8.18h-8.04Zm3.27-14.02h-8.13v8.07h8.13v-8.07Zm-14.3,4.87h-7.83v8.02c9.87.24,8.13,1.81,8.12-7.63,0-.08-.12-.17-.29-.39Zm9.72,4.36c-1.37.09-2.39.16-3.36.22-.54,3.87-.19,4.17,3.36,3.05v-3.27Zm-8.11.02v3.64c3.85.26,3.93.16,3.03-3.5-.9-.04-1.85-.09-3.03-.14Zm3.37,4.62c-1.42.13-2.43.22-3.64.33.06,1.31.1,2.33.15,3.37h3.49v-3.7Zm4.67.45c-3.8-.57-4.08-.25-3.04,3.44.98-.05,2-.11,3.04-.16v-3.28Zm.07,4.72c-3.98-.45-4.1-.32-3.2,3.12h3.2v-3.12Zm4.52-6.06v-3.58h-3.41c.06,1.27.12,2.38.17,3.58h3.23Zm-12.69-8.13v3.51c1.31-.13,2.4-.24,3.63-.36-.07-1.3-.13-2.21-.18-3.15h-3.45Zm-1.55,12.78c.6-3.75.44-3.91-2.99-3.27v3.43c1.16-.06,2.09-.11,2.99-.16Z"/>
    <rect class="cls-9" x="84.68" y="84.85" width="233.52" height="237.45"/>
    <path class="cls-7" d="m84.45,363.08V86.38l177.01,135.39V13.01l56.51,31.23v276.36l-177.01-132.76v202.14l-56.51-26.9Z"/>
    <ellipse class="cls-8" cx="201.44" cy="202.4" rx="198.94" ry="199.9"/>
    <circle class="cls-11" cx="84.45" cy="84.85" r="5.67"/>
    <circle class="cls-11" cx="261.35" cy="221.84" r="5.67"/>
    <circle class="cls-11" cx="318.2" cy="322.3" r="5.67"/>
    <circle class="cls-11" cx="140.38" cy="186.94" r="5.67"/>
    <g>
      <path class="cls-2" d="m151.02,223.07l6.43-8.41.79.6,3.04,12.29,4.81-6.28,1.51,1.16-6.43,8.41-.77-.59-3.08-12.32-4.81,6.28-1.5-1.15Z"/>
      <path class="cls-2" d="m169.27,237.04l6.43-8.41,9.52,7.28-.74.97-8.02-6.13-1.89,2.47,4.85,3.71-.74.97-4.85-3.71-2.33,3.04,8.51,6.51-.74.97-10.01-7.66Z"/>
      <path class="cls-2" d="m188.13,251.47l5.69-7.44-5.09-3.89.74-.97,11.7,8.96-.74.97-5.1-3.9-5.69,7.44-1.51-1.16Z"/>
      <path class="cls-2" d="m201.87,261.99l2.49-11.43,1.48,1.13-1.96,8.79,8.05-4.13,1.35,1.03-1.88,8.82,7.97-4.17,1.44,1.1-10.37,5.4-1.1-.84,1.99-9.21-8.34,4.35-1.11-.85Z"/>
      <path class="cls-2" d="m225.67,280.55c-1.81-1.39-2.99-2.95-3.54-4.68-.55-1.73-.33-3.24.64-4.51.98-1.28,2.38-1.88,4.2-1.81s3.63.81,5.44,2.19c1.81,1.39,3,2.95,3.55,4.7.55,1.75.34,3.25-.63,4.53-.98,1.27-2.37,1.87-4.2,1.79-1.82-.08-3.65-.82-5.47-2.21Zm.75-.98c1.36,1.04,2.73,1.58,4.12,1.62,1.38.04,2.46-.44,3.21-1.43.76-1,.94-2.16.55-3.48-.4-1.32-1.28-2.51-2.64-3.56-1.36-1.04-2.73-1.58-4.12-1.61s-2.46.44-3.22,1.43-.94,2.15-.54,3.48c.4,1.33,1.28,2.51,2.64,3.55Z"/>
      <path class="cls-2" d="m239.21,290.56l6.43-8.41,6.94,5.31c1.18.91,1.96,1.82,2.31,2.75.36.93.25,1.76-.31,2.49-.47.61-1.13.93-1.99.96-.86.03-1.76-.23-2.71-.78l.2,6.01-1.67-1.28-.21-6-4.69-3.59-2.82,3.68-1.5-1.15Zm5.07-3.51l5.34,4.09c.76.58,1.42.91,1.99.97.57.07,1.03-.13,1.37-.58.34-.44.41-.94.2-1.48-.2-.55-.66-1.09-1.37-1.63l-5.42-4.15-2.13,2.78Z"/>
      <path class="cls-2" d="m257.17,304.31l6.45-8.42,1.5,1.15-3.21,4.2,10.15,1.12,1.97,1.51-7.18-.75,1.48,9.74-1.82-1.39-1.3-8.46-4.25-.54-2.29,2.99-1.5-1.15Z"/>
    </g>
    <g>
      <path class="cls-1" d="m124.89,105.06l6.98-9.13.86.66,3.3,13.34,5.22-6.82,1.64,1.26-6.98,9.12-.83-.64-3.34-13.37-5.22,6.82-1.63-1.25Z"/>
      <path class="cls-1" d="m144.73,120.24l7.02-9.18,1.66,1.27-7.02,9.18-1.66-1.27Z"/>
      <path class="cls-1" d="m155.14,128.21l6.98-9.12,7.53,5.77c1.29.98,2.12,1.98,2.51,2.99.39,1.01.28,1.91-.33,2.7-.51.66-1.22,1.01-2.16,1.04-.93.03-1.91-.25-2.94-.85l.22,6.52-1.81-1.38-.23-6.51-5.09-3.9-3.06,3.99-1.63-1.25Zm5.5-3.81l5.8,4.44c.83.63,1.55.98,2.17,1.05.62.07,1.12-.14,1.49-.63.37-.48.44-1.02.22-1.61-.22-.59-.71-1.18-1.48-1.77l-5.88-4.5-2.31,3.02Z"/>
      <path class="cls-1" d="m174.57,143.08l6.98-9.12,1.51,1.16,1.03,9.65,9.62-1.5,1.49,1.14-6.98,9.12-1.62-1.24,5.45-7.12-9.34,1.41-1.08-9.39-5.45,7.13-1.61-1.23Z"/>
      <path class="cls-1" d="m194.97,158.69l13.42-4.2,1.36,1.04-.47,14.11-1.77-1.36.09-3.82-7.26-5.56-3.62,1.12-1.75-1.34Zm6.93-.28l5.78,4.43.19-6.26-5.97,1.84Z"/>
      <path class="cls-1" d="m217.1,175.63l6.18-8.08-5.52-4.23.8-1.05,12.7,9.72-.8,1.05-5.53-4.24-6.18,8.08-1.64-1.26Z"/>
      <path class="cls-1" d="m226.55,182.86l13.42-4.2,1.36,1.04-.47,14.11-1.77-1.36.09-3.82-7.26-5.56-3.62,1.12-1.75-1.34Zm6.93-.28l5.78,4.43.19-6.26-5.97,1.84Z"/>
    </g>
  </g>
  <g id="Layer_2" data-name="Layer 2">
    <rect class="cls-13" x="147.02" y="159.91" width="13.59" height="13.59" transform="translate(133.4 -59.2) rotate(37.53)"/>
    <rect class="cls-13" x="171.05" y="178.37" width="13.59" height="13.59" transform="translate(149.63 -70.02) rotate(37.53)"/>
    <rect class="cls-13" x="220.95" y="216.71" width="13.59" height="13.59" transform="translate(183.31 -92.48) rotate(37.53)"/>
    <rect class="cls-13" x="242.92" y="233.59" width="13.59" height="13.59" transform="translate(198.15 -102.38) rotate(37.53)"/>
    <rect class="cls-13" x="92.41" y="203.58" width="221.66" height="2.41" transform="translate(166.84 -81.43) rotate(37.53)"/>
    <circle class="cls-15" cx="203.7" cy="205.54" r="12.99"/>
    <rect class="cls-6" x="112.55" y="136.34" width="2.37" height="242.75"/>
    <circle class="cls-12" cx="113.73" cy="135.91" r="7.09"/>
    <rect class="cls-6" x="288.48" y="29.83" width="2.37" height="242.75"/>
    <rect class="cls-6" x="285.41" y="219.61" width="8.5" height="8.5"/>
    <rect class="cls-6" x="282.58" y="167.32" width="14.17" height="14.17"/>
    <rect class="cls-6" x="285.41" y="120.71" width="8.5" height="8.5"/>
    <rect class="cls-6" x="282.58" y="68.42" width="14.17" height="14.17"/>
    <rect class="cls-6" x="106.65" y="315.68" width="14.17" height="14.17"/>
    <rect class="cls-6" x="109.48" y="269.06" width="8.5" height="8.5"/>
    <rect class="cls-6" x="106.65" y="216.77" width="14.17" height="14.17"/>
    <rect class="cls-10" x="109.48" y="170.16" width="8.5" height="8.5"/>
    <ellipse class="cls-5" cx="201.44" cy="202.4" rx="195.05" ry="195.99"/>
    <circle class="cls-14" cx="289.67" cy="271.19" r="7.09"/>
  </g>
</svg>