<svg width="40" height="40" viewBox="0 0 40 40" fill="none" xmlns="http://www.w3.org/2000/svg">
<mask id="mask0_34001_13239" style="mask-type:alpha" maskUnits="userSpaceOnUse" x="8" y="8" width="24" height="24">
<rect x="8" y="8" width="24" height="24" fill="#D9D9D9"/>
</mask>
<g mask="url(#mask0_34001_13239)">
<path d="M20 21.4L15.1 26.3C14.9167 26.4833 14.6833 26.575 14.4 26.575C14.1167 26.575 13.8833 26.4833 13.7 26.3C13.5167 26.1167 13.425 25.8833 13.425 25.6C13.425 25.3167 13.5167 25.0833 13.7 24.9L18.6 20L13.7 15.1C13.5167 14.9167 13.425 14.6833 13.425 14.4C13.425 14.1167 13.5167 13.8833 13.7 13.7C13.8833 13.5167 14.1167 13.425 14.4 13.425C14.6833 13.425 14.9167 13.5167 15.1 13.7L20 18.6L24.9 13.7C25.0833 13.5167 25.3167 13.425 25.6 13.425C25.8833 13.425 26.1167 13.5167 26.3 13.7C26.4833 13.8833 26.575 14.1167 26.575 14.4C26.575 14.6833 26.4833 14.9167 26.3 15.1L21.4 20L26.3 24.9C26.4833 25.0833 26.575 25.3167 26.575 25.6C26.575 25.8833 26.4833 26.1167 26.3 26.3C26.1167 26.4833 25.8833 26.575 25.6 26.575C25.3167 26.575 25.0833 26.4833 24.9 26.3L20 21.4Z" fill="black"/>
</g>
</svg>
