<svg width="24" height="24" viewBox="0 0 24 24" fill="none" xmlns="http://www.w3.org/2000/svg">
<mask id="mask0_210_1625" style="mask-type:alpha" maskUnits="userSpaceOnUse" x="0" y="0" width="24" height="24">
<rect width="24" height="24" fill="#D9D9D9"/>
</mask>
<g mask="url(#mask0_210_1625)">
<path d="M12.0502 13.8499L7.2752 18.6249C7.00853 18.8916 6.69186 19.0249 6.3252 19.0249C5.95853 19.0249 5.64186 18.8916 5.3752 18.6249C5.10853 18.3582 4.9752 18.0459 4.9752 17.6879C4.9752 17.3292 5.10853 17.0166 5.3752 16.7499L10.1752 11.9499L5.3502 7.1499C5.08353 6.88324 4.9502 6.5749 4.9502 6.2249C4.9502 5.8749 5.08353 5.56657 5.3502 5.2999C5.61686 5.03324 5.9292 4.8999 6.2872 4.8999C6.64586 4.8999 6.95853 5.03324 7.2252 5.2999L12.0002 10.0499L16.7252 5.3249C16.9919 5.05824 17.3085 4.9249 17.6752 4.9249C18.0419 4.9249 18.3585 5.05824 18.6252 5.3249C18.8919 5.59157 19.0252 5.91224 19.0252 6.2869C19.0252 6.66224 18.8919 6.98324 18.6252 7.2499L13.8752 12.0249L18.6502 16.7999C18.9002 17.0499 19.0252 17.3582 19.0252 17.7249C19.0252 18.0916 18.9002 18.3999 18.6502 18.6499C18.4002 18.8999 18.0962 19.0249 17.7382 19.0249C17.3795 19.0249 17.0752 18.8999 16.8252 18.6499L12.0502 13.8499Z" fill="#535AF1"/>
</g>
</svg>
