<svg class="pg-logo__img" style="width: auto;" version="1.0" xmlns="http://www.w3.org/2000/svg" width="" height="20"
  viewBox="0 0 2998.000000 362.000000" preserveAspectRatio="xMidYMid meet">
  <g transform="translate(0.000000,362.000000) scale(0.100000,-0.100000)" fill="#ffd543" stroke="none">
    <path d="M12350 1815 l0 -1795 560 0 560 0 0 1795 0 1795 -560 0 -560 0 0
              -1795z"></path>
    <path d="M29160 3130 l0 -480 -115 0 -116 0 -1028 470 -1028 470 -356 0 -357
              0 0 -540 0 -540 345 0 346 0 1040 -445 1041 -445 519 0 519 0 0 995 0 995
              -405 0 -405 0 0 -480z"></path>
    <path d="M4250 2858 l1 -743 174 -184 c96 -101 175 -187 175 -190 0 -3 -81
              -76 -180 -161 l-179 -155 -1 -702 0 -703 400 0 400 0 0 415 0 415 156 190 156
              190 367 0 c202 0 556 -3 787 -7 l419 -7 163 -175 162 -176 0 -422 0 -423 400
              0 400 0 0 704 0 704 -185 157 c-103 86 -185 160 -183 164 2 4 85 84 185 177
              l183 169 0 753 0 752 -400 0 -400 0 0 -483 0 -482 -168 -168 -167 -167 -767 0
              -766 0 -166 156 -166 156 0 494 0 494 -400 0 -400 0 0 -742z"></path>
    <path d="M17760 1810 l0 -1790 390 0 390 0 0 370 0 370 938 0 937 0 173 -173
              172 -172 0 -148 0 -147 390 0 390 0 0 378 0 377 -433 452 -432 452 -1072 1
              -1073 0 0 360 0 360 939 0 940 0 168 -197 168 -198 5 -124 5 -124 370 2 c204
              1 380 5 393 8 l22 5 -1 387 0 386 -436 478 -435 477 -1454 0 -1454 0 0 -1790z"></path>
    <path d="M10 3030 l0 -560 1925 0 1925 0 0 560 0 560 -1925 0 -1925 0 0 -560z"></path>
    <path d="M8330 3050 l0 -540 1409 -2 1410 -3 -75 -97 -75 -98 -1329 0 c-731 0
              -1331 -4 -1334 -8 -2 -4 -8 -519 -12 -1145 l-7 -1137 1912 0 1911 0 -2 691 -3
              691 -35 31 c-20 18 -110 95 -202 173 l-166 140 194 201 194 201 0 721 0 721
              -1895 0 -1895 0 0 -540z m2740 -1878 c36 -53 73 -109 83 -124 l19 -28 -1056 0
              -1056 0 0 125 0 125 973 0 972 0 65 -98z"></path>
    <path d="M13670 3030 l0 -560 1930 0 1930 0 0 560 0 560 -1930 0 -1930 0 0
              -560z"></path>
    <path d="M22405 3135 c-393 -378 -441 -428 -447 -462 -4 -21 -7 -622 -7 -1335
              l-1 -1298 1484 0 1483 0 417 424 416 424 0 1336 0 1336 -1453 0 -1452 0 -440
              -425z m2565 -1159 l0 -594 -244 -191 -245 -191 -865 0 -866 0 0 598 1 597 251
              188 251 187 859 0 858 0 0 -594z"></path>
    <path d="M462 1832 l-453 -447 1 -684 0 -684 1163 6 c639 4 1507 7 1930 7
              l767 0 0 515 0 515 -1440 2 -1440 3 97 113 98 113 1338 -7 1337 -6 0 501 0
              501 -1472 0 -1473 -1 -453 -447z"></path>
    <path d="M15040 1145 l0 -1135 560 0 560 0 0 1135 0 1135 -560 0 -560 0 0
              -1135z"></path>
    <path d="M26160 1105 l0 -1085 405 0 405 0 0 505 0 505 118 0 117 0 863 -375
              862 -375 120 0 120 0 0 -125 0 -125 354 0 c194 0 374 3 400 6 l46 7 0 663 0
              664 -507 0 -507 0 -1035 410 -1036 410 -362 0 -363 0 0 -1085z"></path>
  </g>
</svg>