<svg width="154" height="32" viewBox="0 0 996 294" fill="none" xmlns="http://www.w3.org/2000/svg">
<g clip-path="url(#clip0_1_2)">
<path d="M220.73 194.03L163.05 292.77L0 291.97L27.98 244.46L40.75 222.31L68.73 174.8L95.47 174.93L139.87 98.85L167.38 146.63L165.05 150.74L146.3 182.92L122.98 223.22L96.24 223.09L83.47 245.24L136.04 245.5L158.44 207.01L249.58 50.72L278.88 0L455.5 0.86L427.52 48.37L305.89 47.77L276.59 97.59L248.2 146.51L220.72 194.03H220.73ZM274.54 146.64L329.64 146.91L346.46 117.94L386.87 118.14L414.75 70.53L319.45 70.06L274.54 146.64Z" fill="url(#paint0_linear_1_2)"/>
<path d="M409.29 246H410.69L484.21 118.6H587.79L615.39 71.2L615.65 70.74H545.84V70.7H456.61L433.61 110.9L415.11 143L330.69 293.5H334.33H381.79H427.64H488.18L515.56 246.1L409.29 246Z" fill="#F3CD79"/>
<path d="M995.3 70.7H931.87L875.06 141.19L846.97 70.7H787.96L787.98 70.74H747.48V70.7H658.25L635.25 110.9L616.75 143L532.33 293.5H535.98H583.44H629.29H689.82L717.2 246.1L610.93 246H610.94H612.34L639.71 198.56L640.9 198.09H745.75L772.34 150.23H702.53V150.19H667.62L685.85 118.6H810.4L837.19 175.8L732.42 293.5H797.43L862.44 213.88L895.57 293.5H955.85L900.62 177.06L995.3 70.7Z" fill="#F3CD79"/>
</g>
<defs>
<linearGradient id="paint0_linear_1_2" x1="-7.8" y1="278.46" x2="459.88" y2="8.44998" gradientUnits="userSpaceOnUse">
<stop stop-color="#FFF0A9"/>
<stop offset="0.14" stop-color="#A8732A"/>
<stop offset="0.33" stop-color="#8D5823"/>
<stop offset="0.77" stop-color="#FEEA9A"/>
<stop offset="1" stop-color="#F3CD79"/>
</linearGradient>
<clipPath id="clip0_1_2">
<rect width="995.3" height="293.5" fill="white"/>
</clipPath>
</defs>
</svg>
