<svg width="248" height="77" viewBox="0 0 248 77" fill="none" xmlns="http://www.w3.org/2000/svg">
<path d="M59.0198 64.7171V73.5125C59.0198 74.7678 57.9953 75.7932 56.7325 75.7932H7.89709C7.82993 75.7932 7.75519 75.7932 7.68803 75.7856C5.23709 75.7185 3.08317 74.4632 1.78249 72.577C1.77492 72.5619 1.7683 72.5467 1.75317 72.5325C1.15911 71.5365 0.817627 70.3711 0.817627 69.1148C0.817627 67.7262 1.24046 66.4482 1.96128 65.3783C2.02087 65.2894 2.08046 65.2005 2.14668 65.1182L39.2306 13.7798H6.01749C4.76222 13.7798 3.73681 12.7544 3.73681 11.4916V2.70376C3.73681 1.44093 4.76222 0.41552 6.01749 0.41552H52.5647C52.6167 0.41552 52.6687 0.415512 52.7207 0.42308C52.7349 0.42308 52.7576 0.415512 52.7803 0.42308C55.3136 0.490242 57.5347 1.84201 58.8117 3.85498C58.8268 3.87769 58.8344 3.89187 58.8419 3.907C59.3613 4.85767 59.6507 5.94268 59.6507 7.09389C59.6507 8.47498 59.2279 9.76051 58.5071 10.8304C58.4484 10.9193 58.3888 11.0016 58.3217 11.0905L21.2311 62.4365H56.7325C57.9953 62.4365 59.0198 63.4619 59.0198 64.7171Z" fill="white"/>
<path d="M90.2574 64.4946C81.8924 64.4946 75.809 57.9799 75.809 48.9688C75.809 39.8461 81.8924 33.3314 90.2574 33.3314C98.6139 33.3314 104.587 39.8461 104.587 48.9688C104.587 57.9799 98.6139 64.4946 90.2574 64.4946ZM116.428 22.1437H106.875C105.612 22.1437 104.587 23.1691 104.587 24.4253V30.7168C100.248 24.64 93.5181 21.052 85.696 21.052C71.575 21.052 61.2566 32.7893 61.2566 48.9688C61.2566 65.1482 71.575 76.7739 85.696 76.7739C93.5181 76.7739 100.248 73.1935 104.587 67.2133V73.4016C104.587 74.7231 105.664 75.793 106.979 75.793H116.428C117.75 75.793 118.82 74.7231 118.82 73.4016V24.5284C118.82 23.2135 117.75 22.1437 116.428 22.1437Z" fill="white"/>
<path d="M161.426 21.0538C154.039 21.0538 147.955 24.5292 144.48 30.289V24.4232C144.48 22.9031 143.613 22.1426 142.2 22.1426H132.639C131.231 22.1426 130.364 22.9031 130.364 24.4232V73.4043C130.364 74.9244 131.231 75.7957 132.639 75.7957H142.2C143.613 75.7957 144.48 74.9244 144.48 73.4043V44.2976C144.48 37.1292 149.044 32.3512 155.884 32.3512C162.51 32.3512 166.964 37.1292 166.964 44.2976V73.4043C166.964 74.7248 168.034 75.7957 169.35 75.7957H178.804C180.12 75.7957 181.191 74.7248 181.191 73.4043V42.2363C181.191 29.7423 173.043 21.0538 161.426 21.0538Z" fill="white"/>
<path d="M218.081 64.4946C209.717 64.4946 203.751 57.9799 203.751 48.9688C203.751 39.8461 209.717 33.3314 218.081 33.3314C226.556 33.3314 232.529 39.8461 232.529 48.9688C232.529 57.9799 226.556 64.4946 218.081 64.4946ZM218.192 21.052C201.359 21.052 189.19 32.7893 189.19 48.9688C189.19 65.1482 201.359 76.7739 218.192 76.7739C234.921 76.7739 247.082 65.1482 247.082 48.9688C247.082 32.7893 234.921 21.052 218.192 21.052Z" fill="white"/>
</svg>
